<?xml version="1.0" encoding="UTF-8"?>
<svg width="320px" height="320px" viewBox="0 0 320 320" version="1.1" xmlns="http://www.w3.org/2000/svg" xmlns:xlink="http://www.w3.org/1999/xlink">
    <title>pricing/book-gray</title>
    <g id="pricing/book-gray" stroke="none" stroke-width="1" fill="none" fill-rule="evenodd">
        <path d="M300,225 L300,15 C300,6.6875 293.3125,0 285,0 L80,0 C46.875,0 20,26.875 20,60 L20,260 C20,293.125 46.875,320 80,320 L285,320 C293.3125,320 300,313.3125 300,305 L300,295 C300,290.3125 297.8125,286.0625 294.4375,283.3125 C291.8125,273.6875 291.8125,246.25 294.4375,236.625 C297.8125,233.9375 300,229.6875 300,225 Z M100,83.75 C100,81.6875 101.6875,80 103.75,80 L236.25,80 C238.3125,80 240,81.6875 240,83.75 L240,96.25 C240,98.3125 238.3125,100 236.25,100 L103.75,100 C101.6875,100 100,98.3125 100,96.25 L100,83.75 Z M100,123.75 C100,121.6875 101.6875,120 103.75,120 L236.25,120 C238.3125,120 240,121.6875 240,123.75 L240,136.25 C240,138.3125 238.3125,140 236.25,140 L103.75,140 C101.6875,140 100,138.3125 100,136.25 L100,123.75 Z M258.375,280 L80,280 C68.9375,280 60,271.0625 60,260 C60,249 69,240 80,240 L258.375,240 C257.1875,250.6875 257.1875,269.3125 258.375,280 Z" id="Shape" fill="#AAAAAA" fill-rule="nonzero"></path>
    </g>
</svg>