<?xml version="1.0" encoding="UTF-8"?>
<svg width="320px" height="320px" viewBox="0 0 320 320" version="1.1" xmlns="http://www.w3.org/2000/svg" xmlns:xlink="http://www.w3.org/1999/xlink">
    <title>pricing/coaching</title>
    <g id="pricing/coaching" stroke="none" stroke-width="1" fill="none" fill-rule="evenodd">
        <path d="M308.397661,15.9688109 L243.524366,0.998050682 C236.475634,-0.623781676 229.239766,3.05653021 226.37037,9.66861598 L196.42885,79.5321637 C193.808967,85.6452242 195.555556,92.8187135 200.732943,96.9980507 L238.534113,127.937622 C216.077973,175.781676 176.842105,215.578947 128,238.471735 L97.0604288,200.670565 C92.8187135,195.493177 85.7076023,193.746589 79.5945419,196.366472 L9.73099415,226.307992 C3.05653021,229.239766 -0.623781676,236.475634 0.998050682,243.524366 L15.9688109,308.397661 C17.5282651,315.134503 23.5165692,320 30.5653021,320 C190.315789,320 320,190.565302 320,30.5653021 C320,23.5789474 315.196881,17.5282651 308.397661,15.9688109 Z" id="Path" fill="#683523" fill-rule="nonzero"></path>
    </g>
</svg>