<?xml version="1.0" encoding="UTF-8"?>
<svg width="320px" height="320px" viewBox="0 0 320 320" version="1.1" xmlns="http://www.w3.org/2000/svg" xmlns:xlink="http://www.w3.org/1999/xlink">
    <title>pricing/exercises</title>
    <g id="pricing/exercises" stroke="none" stroke-width="1" fill="none" fill-rule="evenodd">
        <path d="M68.902924,152.851462 L152.851462,68.9153996 L125.330214,41.394152 L86.8553606,79.8690058 C85.9287085,80.7974549 84.6708195,81.3192035 83.3590643,81.3192035 C82.0473091,81.3192035 80.7894201,80.7974549 79.862768,79.8690058 L72.8701754,72.8764133 C70.9364522,70.9426901 70.9364522,67.811306 72.8701754,65.8838207 L111.345029,27.4089669 L90.3610136,6.41871345 C82.6323587,-1.30994152 70.1068226,-1.30994152 62.3781676,6.41871345 L6.41871345,62.3781676 C-1.3037037,70.1068226 -1.30994152,82.6323587 6.41871345,90.3610136 L68.902924,152.851462 Z M311.223392,79.9937622 C322.925536,68.2916179 322.919298,49.3224172 311.223392,37.6202729 L282.997271,9.39415205 C271.295127,-2.3079922 252.319688,-2.3079922 240.611306,9.39415205 L211.904873,38.094347 L282.516959,108.706433 L311.223392,79.9937622 Z M197.788694,52.2167641 L12.5255361,237.454971 L0.823391813,304.474074 C-0.754775828,313.512671 7.11734893,321.384795 16.1621832,319.794152 L83.1875244,308.042105 L268.40078,122.822612 L197.788694,52.2167641 Z M314.205068,230.262768 L293.221053,209.278752 L254.746199,247.753606 C252.812476,249.687329 249.681092,249.687329 247.753606,247.753606 L240.761014,240.761014 C238.833528,238.82729 238.833528,235.695906 240.761014,233.768421 L279.235867,195.293567 L251.702144,167.759844 L167.753606,251.695906 L230.262768,314.19883 C237.991423,321.927485 250.516959,321.927485 258.245614,314.19883 L314.205068,258.245614 C321.933723,250.516959 321.933723,237.991423 314.205068,230.262768 Z" id="Shape" fill="#683523" fill-rule="nonzero"></path>
    </g>
</svg>