<?xml version="1.0" encoding="UTF-8"?>
<svg width="320px" height="320px" viewBox="0 0 320 320" version="1.1" xmlns="http://www.w3.org/2000/svg" xmlns:xlink="http://www.w3.org/1999/xlink">
    <title>pricing/slack</title>
    <g id="pricing/slack" stroke="none" stroke-width="1" fill="none" fill-rule="evenodd">
        <path d="M117.785714,67.2285714 C99.2857143,67.2285714 84.1714286,52.1142857 84.1714286,33.6142857 C84.1714286,15.1142857 99.2857143,-5.68434189e-14 117.785714,-5.68434189e-14 C136.285714,-5.68434189e-14 151.4,15.1142857 151.4,33.6142857 L151.4,67.2285714 L117.785714,67.2285714 L117.785714,67.2285714 Z M117.785714,84.1714286 C136.285714,84.1714286 151.4,99.2857143 151.4,117.785714 C151.4,136.285714 136.285714,151.4 117.785714,151.4 L33.6142857,151.4 C15.1142857,151.4 0,136.285714 0,117.785714 C0,99.2857143 15.1142857,84.1714286 33.6142857,84.1714286 L117.785714,84.1714286 L117.785714,84.1714286 Z M202.214286,252.771429 C220.714286,252.771429 235.828571,267.885714 235.828571,286.385714 C235.828571,304.885714 220.714286,320 202.214286,320 C183.714286,320 168.6,304.885714 168.6,286.385714 L168.6,252.771429 L202.214286,252.771429 Z M202.214286,235.828571 C183.714286,235.828571 168.6,220.714286 168.6,202.214286 C168.6,183.714286 183.714286,168.6 202.214286,168.6 L286.385714,168.6 C304.885714,168.6 320,183.714286 320,202.214286 C320,220.714286 304.885714,235.828571 286.385714,235.828571 L202.214286,235.828571 Z" id="Shape" fill="#683523" fill-rule="nonzero"></path>
        <path d="M67.2285714,202.214286 C67.2285714,220.714286 52.1142857,235.828571 33.6142857,235.828571 C15.1142857,235.828571 0,220.714286 0,202.214286 C0,183.714286 15.1142857,168.6 33.6142857,168.6 L67.2285714,168.6 L67.2285714,202.214286 Z M84.1714286,202.214286 C84.1714286,183.714286 99.2857143,168.6 117.785714,168.6 C136.285714,168.6 151.4,183.714286 151.4,202.214286 L151.4,286.385714 C151.4,304.885714 136.285714,320 117.785714,320 C99.2857143,320 84.1714286,304.885714 84.1714286,286.385714 L84.1714286,202.214286 Z M252.771429,117.785714 C252.771429,99.2857143 267.885714,84.1714286 286.385714,84.1714286 C304.885714,84.1714286 320,99.2857143 320,117.785714 C320,136.285714 304.885714,151.4 286.385714,151.4 L252.771429,151.4 L252.771429,117.785714 L252.771429,117.785714 Z M235.828571,117.785714 C235.828571,136.285714 220.714286,151.4 202.214286,151.4 C183.714286,151.4 168.6,136.285714 168.6,117.785714 L168.6,33.6142857 C168.6,15.1142857 183.714286,-5.68434189e-14 202.214286,-5.68434189e-14 C220.714286,-5.68434189e-14 235.828571,15.1142857 235.828571,33.6142857 L235.828571,117.785714 Z" id="Shape-Copy" fill="#683523" fill-rule="nonzero"></path>
    </g>
</svg>