<?xml version="1.0" encoding="UTF-8"?>
<svg width="320px" height="320px" viewBox="0 0 320 320" version="1.1" xmlns="http://www.w3.org/2000/svg" xmlns:xlink="http://www.w3.org/1999/xlink">
    <title>pricing/videos-gray</title>
    <g id="pricing/videos-gray" stroke="none" stroke-width="1" fill="none" fill-rule="evenodd">
        <path d="M292,245.333333 L231.111111,203.388889 L231.111111,115.944444 L292,73.9444444 C303.833333,65.8333333 320,74.1666667 320,88.2777778 L320,231 C320,245.166667 303.777778,253.444444 292,245.333333 Z" id="Path" fill="#AAAAAA" fill-rule="nonzero"></path>
        <path d="M-1.42108547e-14,239.777778 L-1.42108547e-14,79.5555556 C-1.42108547e-14,64.8893272 11.8893272,53 26.5555556,53 L186.777778,53 C193.820749,53 200.575258,55.7978094 205.555391,60.7779421 C210.535524,65.7580749 213.333333,72.5125843 213.333333,79.5555556 L213.333333,239.777778 C213.333333,254.444006 201.444006,266.333333 186.777778,266.333333 L26.5555556,266.333333 C19.5125843,266.333333 12.7580749,263.535524 7.77794214,258.555391 C2.79780943,253.575258 -1.42108547e-14,246.820749 -1.42108547e-14,239.777778 Z" id="Path" fill="#AAAAAA" fill-rule="nonzero"></path>
    </g>
</svg>