<?xml version="1.0" encoding="UTF-8"?>
<svg width="320px" height="320px" viewBox="0 0 320 320" version="1.1" xmlns="http://www.w3.org/2000/svg" xmlns:xlink="http://www.w3.org/1999/xlink">
    <title>many-ways/coaching</title>
    <g id="many-ways/coaching" stroke="none" stroke-width="1" fill="none" fill-rule="evenodd">
        <path d="M226.19375,9.06875 C229.047939,2.52503139 236.084773,-1.11147246 243.04966,0.309741623 L243.38125,0.38125 L253.75,2.76875 L273.5375,7.3375 L308.38125,15.38125 C315.184946,16.9554316 320.000001,23.0165682 320.000001,30 C320.000001,190.31875 190.0625,320.000001 30,320.000001 C23.1292042,320.000001 17.1511921,315.339018 15.4609069,308.708897 L15.38125,308.38125 L7.325,273.49375 L2.75,253.6875 L0.375,243.38125 C-1.19860566,236.386198 2.33432834,229.26096 8.81421512,226.264548 L9.125,226.125 L79.125,196.125 C85.1615251,193.554326 92.153446,195.208597 96.4001455,200.174554 L96.625,200.44375 L104.50625,210.08125 L117.7,226.1875 L127.625,238.3125 C175.793243,215.60457 214.650154,177.000095 237.675854,129.019326 L238.36875,127.5625 L226.25,117.64375 L210.14375,104.45 L200.5125,96.56875 C195.410151,92.4329449 193.618008,85.461169 196.058931,79.3929476 L196.19375,79.06875 L226.19375,9.06875 Z" id="Path" fill="#683523" fill-rule="nonzero" opacity="0.4"></path>
        <path d="M96.4001455,200.174554 L96.625,200.44375 L104.50625,210.08125 L117.7,226.1875 L7.325,273.49375 L2.75,253.6875 L0.375,243.38125 C-1.19860566,236.386198 2.33432834,229.26096 8.81421512,226.264548 L9.125,226.125 L79.125,196.125 C85.1615251,193.554326 92.153446,195.208597 96.4001455,200.174554 Z M243.04966,0.309741623 L243.38125,0.38125 L253.75,2.76875 L273.5375,7.3375 L226.25,117.64375 L210.14375,104.45 L200.5125,96.56875 C195.410151,92.4329449 193.618008,85.461169 196.058931,79.3929476 L196.19375,79.06875 L226.19375,9.06875 C229.047939,2.52503139 236.084773,-1.11147246 243.04966,0.309741623 Z" id="Shape" fill="#683523" fill-rule="nonzero"></path>
    </g>
</svg>