<?xml version="1.0" encoding="UTF-8"?>
<svg width="320px" height="320px" viewBox="0 0 320 320" version="1.1" xmlns="http://www.w3.org/2000/svg" xmlns:xlink="http://www.w3.org/1999/xlink">
    <title>many-ways/ebook</title>
    <g id="many-ways/ebook" stroke="none" stroke-width="1" fill="none" fill-rule="evenodd">
        <path d="M80,280 C68,280 60,272 60,260 C60,248 70,240 80,240 L279.58125,240 C278.375,250.15 278.48125,270.2375 279.9125,280 L80,280 Z" id="Path" fill="#683523" fill-rule="nonzero" opacity="0.4"></path>
        <path d="M80,240 L285,240 C293.284271,240 300,233.284271 300,225 L300,20 C300,8.954305 291.045695,0 280,0 L80,0 C46.862915,0 20,26.862915 20,60 L20,260 C20,293.137085 46.862915,320 80,320 L285,320 C293.284271,320 300,313.284271 300,305 L300,295 C300,286.715729 293.284271,280 285,280 L80,280 C68,280 60,272 60,260 C60,248 70,240 80,240 Z M100,83.75 C100,81.6789322 101.678932,80 103.75,80 L236.25,80 C238.321068,80 240,81.6789322 240,83.75 L240,96.25 C240,98.3210678 238.321068,100 236.25,100 L103.75,100 C101.678932,100 100,98.3210678 100,96.25 L100,83.75 Z M100,123.75 C100,121.678932 101.678932,120 103.75,120 L236.25,120 C238.321068,120 240,121.678932 240,123.75 L240,136.25 C240,138.321068 238.321068,140 236.25,140 L103.75,140 C101.678932,140 100,138.321068 100,136.25 L100,123.75 Z" id="Shape" fill="#683523" fill-rule="nonzero"></path>
    </g>
</svg>