<?xml version="1.0" encoding="UTF-8"?>
<svg width="320px" height="320px" viewBox="0 0 320 320" version="1.1" xmlns="http://www.w3.org/2000/svg" xmlns:xlink="http://www.w3.org/1999/xlink">
    <title>many-ways/exercises</title>
    <g id="many-ways/exercises" stroke="none" stroke-width="1" fill="none" fill-rule="evenodd">
        <path d="M86.2378168,79.251462 C84.3085305,81.1805514 81.1807482,81.1805514 79.251462,79.251462 L72.2588694,72.2588694 C71.3305736,71.3321358 70.808931,70.0742774 70.808931,68.7625731 C70.808931,67.4508688 71.3305736,66.1930104 72.2588694,65.2662768 L110.721248,26.8226121 L89.7434698,5.80116959 C82.0141954,-1.92707266 69.4836603,-1.92707266 61.754386,5.80116959 L5.79493177,61.754386 C-1.92571361,69.4843699 -1.92571361,82.0072481 5.79493177,89.737232 L68.2791423,152.233918 L152.202729,68.2978558 L124.706433,40.7766082 L86.2378168,79.251462 Z M313.581287,229.645224 L292.603509,208.661209 L254.128655,247.136062 C253.201921,248.064358 251.944063,248.586001 250.632359,248.586001 C249.320654,248.586001 248.062796,248.064358 247.136062,247.136062 L240.155945,240.155945 C239.22765,239.229212 238.706007,237.971353 238.706007,236.659649 C238.706007,235.347945 239.22765,234.090086 240.155945,233.163353 L278.630799,194.688499 L251.0846,167.173489 L167.136062,251.078363 L229.645224,313.581287 C233.354037,317.293317 238.386199,319.378984 243.633528,319.378984 C248.880858,319.378984 253.913019,317.293317 257.621832,313.581287 L313.581287,257.621832 C321.304657,249.895412 321.304657,237.371644 313.581287,229.645224 Z" id="Shape" fill="#683523" fill-rule="nonzero" opacity="0.4"></path>
        <path d="M310.605848,37.002729 L282.379727,8.77660819 C270.674867,-2.92723141 251.698622,-2.92723141 239.993762,8.77660819 L211.299805,37.4705653 L281.918129,108.082651 L310.612086,79.388694 C316.239321,73.7710323 319.400957,66.1457635 319.399787,58.1944178 C319.398617,50.2430721 316.234737,42.6187342 310.605848,37.002729 L310.605848,37.002729 Z M11.9017544,236.837427 L0.205847953,303.85653 C-0.536250571,308.107769 0.839651489,312.453956 3.893049,315.503628 C6.94644651,318.5533 11.2943101,319.923896 15.5446394,319.176608 L82.5699805,307.424561 L267.783236,122.205068 L197.164912,51.5992203 L11.9017544,236.837427 Z" id="Shape" fill="#683523" fill-rule="nonzero"></path>
    </g>
</svg>