<?xml version="1.0" encoding="UTF-8"?>
<svg width="320px" height="320px" viewBox="0 0 320 320" version="1.1" xmlns="http://www.w3.org/2000/svg" xmlns:xlink="http://www.w3.org/1999/xlink">
    <title>benefits/context</title>
    <g id="benefits/context" stroke="none" stroke-width="1" fill="none" fill-rule="evenodd">
        <path d="M288.598499,169.648438 C277.964277,145.720312 263.998607,92.5980469 251.485367,74.8144531 C231.703299,46.7213834 199.492324,30.0050202 165.131822,30 L127.505768,30 C73.6744596,30 30,73.671875 30,127.5 C29.9950764,155.203755 41.8205025,181.591372 62.5019238,200.025781 L62.5019238,290 L192.509613,290 L192.509613,257.5 L225.011535,257.5 C242.961851,257.5 257.513458,242.949254 257.513458,225 L257.513458,192.5 L273.764419,192.5 C279.263103,192.494781 284.386203,189.709488 287.380041,185.097549 C290.373878,180.485611 290.832343,174.67263 288.598499,169.648438 L288.598499,169.648438 Z M200.550196,136.124706 L174.60284,136.124706 C175.566971,138.727049 176.073583,141.475698 176.100391,144.249748 C176.100391,157.711758 165.15384,168.624874 151.650586,168.624874 C148.868037,168.598148 146.110967,168.093084 143.500651,167.131898 L143.500651,193 L110.900911,193 L110.900911,167.131898 C108.290595,168.093084 105.533525,168.598148 102.750976,168.624874 C89.2477217,168.624874 78.3011712,157.711758 78.3011712,144.249748 C78.3011712,143.741933 78.4183265,143.289977 78.4488888,142.802475 C67.1719437,138.930336 60.3583885,127.495116 62.3419094,115.77006 C64.3254303,104.045004 74.5240739,95.4701747 86.4511062,95.4994962 C86.4511062,82.0374858 97.3976567,71.1243702 110.900911,71.1243702 C115.111913,71.1478314 119.243631,72.2681981 122.886409,74.374387 C127.335006,67.2972791 135.123131,63 143.500651,63 C151.878171,63 159.666296,67.2972791 164.114893,74.374387 C170.360408,70.7620211 177.900206,70.127277 184.664901,72.6443677 C191.429596,75.1614583 196.708459,80.5659271 199.052645,87.3744542 L200.550196,87.3744542 C214.05345,87.3744544 225,98.28757 225,111.74958 C225,125.21159 214.05345,136.124706 200.550196,136.124706 Z" id="Shape" fill="#683523" fill-rule="nonzero" opacity="0.4"></path>
        <path d="M64.3179028,111.896847 C67.6946769,102.065225 76.9294018,95.4751739 87.2957243,95.4994962 C87.2957243,82.0374858 98.1747948,71.1243702 111.594808,71.1243702 C115.779852,71.1478314 119.886099,72.2681981 123.506422,74.374387 C127.927595,67.2972791 135.667711,63 143.993587,63 C152.319464,63 160.059579,67.2972791 164.480753,74.374387 C170.687767,70.7620211 178.181086,70.127277 184.904081,72.6443677 C191.627075,75.1614583 196.873397,80.5659271 199.203131,87.3744542 L200.69145,87.3744542 C214.111464,87.3744544 224.990534,98.28757 224.990534,111.74958 C224.990534,125.21159 214.111464,136.124706 200.69145,136.124706 L174.904047,136.124706 C175.862235,138.727049 176.365724,141.475698 176.392366,144.249748 C176.392366,157.711758 165.513296,168.624874 152.093282,168.624874 C149.327886,168.598148 146.587812,168.093084 143.993587,167.131898 L143.993587,193 L111.594808,193 L111.594808,167.131898 C109.000584,168.093084 106.260509,168.598148 103.495114,168.624874 C90.0751001,168.624874 79.1960295,157.711758 79.1960295,144.249748 C79.1960295,143.741933 79.3124626,143.289977 79.3428365,142.802475 C66.6862399,138.429952 59.9594257,124.593191 64.3179028,111.896847 L64.3179028,111.896847 Z" id="Path" fill="#683523" fill-rule="nonzero"></path>
    </g>
</svg>