<?xml version="1.0" encoding="UTF-8"?>
<svg width="320px" height="320px" viewBox="0 0 320 320" version="1.1" xmlns="http://www.w3.org/2000/svg" xmlns:xlink="http://www.w3.org/1999/xlink">
    <title>curation</title>
    <g id="curation" stroke="none" stroke-width="1" fill="none" fill-rule="evenodd">
        <path d="M95.279202,258 C85.5116808,258 79,251.4 79,241.5 C79,231.6 87.139601,225 95.279202,225 L257.730376,225 C256.748536,233.37375 256.83502,249.945938 258,258 L95.279202,258 Z" id="Path" fill="#683523" fill-rule="nonzero" opacity="0.4"></path>
        <path d="M94.8571429,225 L261.785714,225 C268.531478,225 274,219.54347 274,212.8125 L274,46.25 C274,37.2753728 266.708637,30 257.714286,30 L94.8571429,30 C67.8740879,30 46,51.8261184 46,78.75 L46,241.25 C46,268.173882 67.8740879,290 94.8571429,290 L261.785714,290 C268.531478,290 274,284.54347 274,277.8125 L274,269.6875 C274,262.95653 268.531478,257.5 261.785714,257.5 L94.8571429,257.5 C85.0857143,257.5 78.5714286,251 78.5714286,241.25 C78.5714286,231.5 86.7142857,225 94.8571429,225 Z M111.142857,98.046875 C111.142857,96.3641324 112.509988,95 114.196429,95 L222.089286,95 C223.775727,95 225.142857,96.3641324 225.142857,98.046875 L225.142857,108.203125 C225.142857,109.885868 223.775727,111.25 222.089286,111.25 L114.196429,111.25 C112.509988,111.25 111.142857,109.885868 111.142857,108.203125 L111.142857,98.046875 Z M111.142857,130.546875 C111.142857,128.864132 112.509988,127.5 114.196429,127.5 L222.089286,127.5 C223.775727,127.5 225.142857,128.864132 225.142857,130.546875 L225.142857,140.703125 C225.142857,142.385868 223.775727,143.75 222.089286,143.75 L114.196429,143.75 C112.509988,143.75 111.142857,142.385868 111.142857,140.703125 L111.142857,130.546875 Z" id="Shape" fill="#683523" fill-rule="nonzero"></path>
    </g>
</svg>