<?xml version="1.0" encoding="UTF-8"?>
<svg width="320px" height="320px" viewBox="0 0 320 320" version="1.1" xmlns="http://www.w3.org/2000/svg" xmlns:xlink="http://www.w3.org/1999/xlink">
    <title>benefits/curation</title>
    <defs>
        <linearGradient x1="3.8357971%" y1="43.2840522%" x2="96.0824675%" y2="55.851185%" id="linearGradient-1">
            <stop stop-color="#1B0700" offset="0%"></stop>
            <stop stop-color="#683523" offset="100%"></stop>
        </linearGradient>
        <path d="M1543,0 L1543.01277,500.424469 C1552.8441,504.167514 1558,508.038154 1558,512 C1558,544.5848 1209.22982,571 779,571 C348.77018,571 0,544.5848 0,512 C0,508.038023 5.15623952,504.167258 14.9882039,500.424098 L15,0 L1543,0 Z" id="path-2"></path>
    </defs>
    <g id="benefits/curation" stroke="none" stroke-width="1" fill="none" fill-rule="evenodd">
        <path d="M95.279202,258 C85.5116808,258 79,251.4 79,241.5 C79,231.6 87.139601,225 95.279202,225 L257.730376,225 C256.748536,233.37375 256.83502,249.945938 258,258 L95.279202,258 Z" id="Path" fill="#683523" fill-rule="nonzero" opacity="0.4"></path>
        <path d="M94.8571429,225 L261.785714,225 C268.531478,225 274,219.54347 274,212.8125 L274,46.25 C274,37.2753728 266.708637,30 257.714286,30 L94.8571429,30 C67.8740879,30 46,51.8261184 46,78.75 L46,241.25 C46,268.173882 67.8740879,290 94.8571429,290 L261.785714,290 C268.531478,290 274,284.54347 274,277.8125 L274,269.6875 C274,262.95653 268.531478,257.5 261.785714,257.5 L94.8571429,257.5 C85.0857143,257.5 78.5714286,251 78.5714286,241.25 C78.5714286,231.5 86.7142857,225 94.8571429,225 Z M111.142857,98.046875 C111.142857,96.3641324 112.509988,95 114.196429,95 L222.089286,95 C223.775727,95 225.142857,96.3641324 225.142857,98.046875 L225.142857,108.203125 C225.142857,109.885868 223.775727,111.25 222.089286,111.25 L114.196429,111.25 C112.509988,111.25 111.142857,109.885868 111.142857,108.203125 L111.142857,98.046875 Z M111.142857,130.546875 C111.142857,128.864132 112.509988,127.5 114.196429,127.5 L222.089286,127.5 C223.775727,127.5 225.142857,128.864132 225.142857,130.546875 L225.142857,140.703125 C225.142857,142.385868 223.775727,143.75 222.089286,143.75 L114.196429,143.75 C112.509988,143.75 111.142857,142.385868 111.142857,140.703125 L111.142857,130.546875 Z" id="Shape" fill="#683523" fill-rule="nonzero"></path>
        <g id="Background-Copy" transform="translate(-915.000000, 209.000000)">
            <mask id="mask-3" fill="white">
                <use xlink:href="#path-2"></use>
            </mask>
            <use id="Mask" fill="url(#linearGradient-1)" xlink:href="#path-2"></use>
            <g id="Background" opacity="0.102353051" mask="url(#mask-3)">
                <g transform="translate(786.717514, 239.282486) rotate(-45.000000) translate(-786.717514, -239.282486) translate(-103.782486, -660.717514)">
                    <g id="Group-2-Copy" transform="translate(0.000000, 150.000000)"></g>
                    <g id="Group-2-Copy-3" transform="translate(0.000000, 300.000000)"></g>
                    <g id="Group-2-Copy-2" transform="translate(0.000000, 450.000000)">
                        <g id="Group-Copy-2" transform="translate(1200.000000, 0.000000)"></g>
                    </g>
                    <g id="Group-2-Copy-7" transform="translate(-0.000000, 600.000000)">
                        <g id="Group-Copy-2" transform="translate(1200.000000, 0.000000)" fill="#FFFFFF" fill-rule="nonzero">
                            <g id="Tile" transform="translate(0.000000, 13.000000)">
                                <path d="M104.291667,18.75 C100.630208,18.75 97.5661458,21.3378906 96.7856771,24.8046875 C94.4828125,24.4628906 91.1971354,23.5449219 88.7015625,21.1328125 C87.1020833,19.5800781 86.0132813,17.5683594 85.4544271,15.1171875 C88.3546875,13.9941406 90.4166667,11.1425781 90.4166667,7.8125 C90.4166667,3.49609375 86.9671875,0 82.7083333,0 C78.4494792,0 75,3.49609375 75,7.8125 C75,11.3085938 77.2643229,14.2675781 80.3958333,15.2636719 L80.3958333,34.7265625 C77.2643229,35.7324219 75,38.6914062 75,42.1875 C75,46.5039062 78.4494792,50 82.7083333,50 C86.9671875,50 90.4166667,46.5039062 90.4166667,42.1875 C90.4166667,38.6914062 88.1523438,35.7324219 85.0208333,34.7363281 L85.0208333,24.0332031 C85.175,24.1992188 85.3388021,24.3652344 85.5026042,24.5214844 C89.2893229,28.1835938 94.2130208,29.2675781 97.1807292,29.5800781 C98.3466146,32.4023437 101.092708,34.3847656 104.291667,34.3847656 C108.550521,34.3847656 112,30.8886719 112,26.5722656 C112,22.2558594 108.550521,18.75 104.291667,18.75 Z M82.7083333,4.6875 C84.4041667,4.6875 85.7916667,6.09375 85.7916667,7.8125 C85.7916667,9.53125 84.4041667,10.9375 82.7083333,10.9375 C81.0125,10.9375 79.625,9.53125 79.625,7.8125 C79.625,6.09375 81.0125,4.6875 82.7083333,4.6875 Z M82.7083333,45.3125 C81.0125,45.3125 79.625,43.90625 79.625,42.1875 C79.625,40.46875 81.0125,39.0625 82.7083333,39.0625 C84.4041667,39.0625 85.7916667,40.46875 85.7916667,42.1875 C85.7916667,43.90625 84.4041667,45.3125 82.7083333,45.3125 Z M104.291667,29.6875 C102.595833,29.6875 101.208333,28.28125 101.208333,26.5625 C101.208333,24.84375 102.595833,23.4375 104.291667,23.4375 C105.9875,23.4375 107.375,24.84375 107.375,26.5625 C107.375,28.28125 105.9875,29.6875 104.291667,29.6875 Z" id="Shape"></path>
                                <path d="M29.2916667,92.75 C25.6302083,92.75 22.5661458,95.3378906 21.7856771,98.8046875 C19.4828125,98.4628906 16.1971354,97.5449219 13.7015625,95.1328125 C12.1020833,93.5800781 11.0132812,91.5683594 10.4544271,89.1171875 C13.3546875,87.9941406 15.4166667,85.1425781 15.4166667,81.8125 C15.4166667,77.4960938 11.9671875,74 7.70833333,74 C3.44947917,74 -2.27373675e-13,77.4960938 -2.27373675e-13,81.8125 C-2.27373675e-13,85.3085938 2.26432292,88.2675781 5.39583333,89.2636719 L5.39583333,108.726562 C2.26432292,109.732422 -2.27373675e-13,112.691406 -2.27373675e-13,116.1875 C-2.27373675e-13,120.503906 3.44947917,124 7.70833333,124 C11.9671875,124 15.4166667,120.503906 15.4166667,116.1875 C15.4166667,112.691406 13.1523437,109.732422 10.0208333,108.736328 L10.0208333,98.0332031 C10.175,98.1992188 10.3388021,98.3652344 10.5026042,98.5214844 C14.2893229,102.183594 19.2130208,103.267578 22.1807292,103.580078 C23.3466146,106.402344 26.0927083,108.384766 29.2916667,108.384766 C33.5505208,108.384766 37,104.888672 37,100.572266 C37,96.2558594 33.5505208,92.75 29.2916667,92.75 Z M7.70833333,78.6875 C9.40416667,78.6875 10.7916667,80.09375 10.7916667,81.8125 C10.7916667,83.53125 9.40416667,84.9375 7.70833333,84.9375 C6.0125,84.9375 4.625,83.53125 4.625,81.8125 C4.625,80.09375 6.0125,78.6875 7.70833333,78.6875 Z M7.70833333,119.3125 C6.0125,119.3125 4.625,117.90625 4.625,116.1875 C4.625,114.46875 6.0125,113.0625 7.70833333,113.0625 C9.40416667,113.0625 10.7916667,114.46875 10.7916667,116.1875 C10.7916667,117.90625 9.40416667,119.3125 7.70833333,119.3125 Z M29.2916667,103.6875 C27.5958333,103.6875 26.2083333,102.28125 26.2083333,100.5625 C26.2083333,98.84375 27.5958333,97.4375 29.2916667,97.4375 C30.9875,97.4375 32.375,98.84375 32.375,100.5625 C32.375,102.28125 30.9875,103.6875 29.2916667,103.6875 Z" id="Shape"></path>
                                <path d="M113,88.0625 C113,83.7460938 109.457292,80.25 105.083333,80.25 C100.709375,80.25 97.1666667,83.7460938 97.1666667,88.0625 C97.1666667,91.6171875 99.5713542,94.6152344 102.856771,95.5625 C102.797396,97.1347656 102.441146,98.3457031 101.768229,99.1660156 C100.244271,101.041016 96.8895833,101.353516 93.3369792,101.675781 C90.5463542,101.929688 87.6567708,102.203125 85.2916667,103.326172 L85.2916667,89.2636719 C88.5078125,88.2675781 90.8333333,85.3085938 90.8333333,81.8125 C90.8333333,77.4960938 87.290625,74 82.9166667,74 C78.5427083,74 75,77.4960938 75,81.8125 C75,85.3085938 77.3255208,88.2675781 80.5416667,89.2636719 L80.5416667,108.726562 C77.3255208,109.732422 75,112.691406 75,116.1875 C75,120.503906 78.5427083,124 82.9166667,124 C87.290625,124 90.8333333,120.503906 90.8333333,116.1875 C90.8333333,112.867188 88.7354167,110.025391 85.7666667,108.902344 C86.0734375,108.394531 86.5385417,107.945312 87.2411458,107.59375 C88.8442708,106.792969 91.2390625,106.578125 93.7822917,106.34375 C97.9583333,105.962891 102.688542,105.523438 105.479167,102.095703 C106.864583,100.396484 107.567188,98.2089844 107.616667,95.4648438 C110.74375,94.4199219 113,91.5 113,88.0625 Z M82.9166667,78.6875 C84.6583333,78.6875 86.0833333,80.09375 86.0833333,81.8125 C86.0833333,83.53125 84.6583333,84.9375 82.9166667,84.9375 C81.175,84.9375 79.75,83.53125 79.75,81.8125 C79.75,80.09375 81.175,78.6875 82.9166667,78.6875 Z M82.9166667,119.3125 C81.175,119.3125 79.75,117.90625 79.75,116.1875 C79.75,114.46875 81.175,113.0625 82.9166667,113.0625 C84.6583333,113.0625 86.0833333,114.46875 86.0833333,116.1875 C86.0833333,117.90625 84.6583333,119.3125 82.9166667,119.3125 Z M105.083333,91.1875 C103.341667,91.1875 101.916667,89.78125 101.916667,88.0625 C101.916667,86.34375 103.341667,84.9375 105.083333,84.9375 C106.825,84.9375 108.25,86.34375 108.25,88.0625 C108.25,89.78125 106.825,91.1875 105.083333,91.1875 Z" id="Shape"></path>
                            </g>
                            <g id="Tile-Copy" transform="translate(150.000000, 13.000000)">
                                <path d="M29.2916667,92.75 C25.6302083,92.75 22.5661458,95.3378906 21.7856771,98.8046875 C19.4828125,98.4628906 16.1971354,97.5449219 13.7015625,95.1328125 C12.1020833,93.5800781 11.0132812,91.5683594 10.4544271,89.1171875 C13.3546875,87.9941406 15.4166667,85.1425781 15.4166667,81.8125 C15.4166667,77.4960938 11.9671875,74 7.70833333,74 C3.44947917,74 -1.13686838e-13,77.4960938 -1.13686838e-13,81.8125 C-1.13686838e-13,85.3085938 2.26432292,88.2675781 5.39583333,89.2636719 L5.39583333,108.726562 C2.26432292,109.732422 -1.13686838e-13,112.691406 -1.13686838e-13,116.1875 C-1.13686838e-13,120.503906 3.44947917,124 7.70833333,124 C11.9671875,124 15.4166667,120.503906 15.4166667,116.1875 C15.4166667,112.691406 13.1523437,109.732422 10.0208333,108.736328 L10.0208333,98.0332031 C10.175,98.1992188 10.3388021,98.3652344 10.5026042,98.5214844 C14.2893229,102.183594 19.2130208,103.267578 22.1807292,103.580078 C23.3466146,106.402344 26.0927083,108.384766 29.2916667,108.384766 C33.5505208,108.384766 37,104.888672 37,100.572266 C37,96.2558594 33.5505208,92.75 29.2916667,92.75 Z M7.70833333,78.6875 C9.40416667,78.6875 10.7916667,80.09375 10.7916667,81.8125 C10.7916667,83.53125 9.40416667,84.9375 7.70833333,84.9375 C6.0125,84.9375 4.625,83.53125 4.625,81.8125 C4.625,80.09375 6.0125,78.6875 7.70833333,78.6875 Z M7.70833333,119.3125 C6.0125,119.3125 4.625,117.90625 4.625,116.1875 C4.625,114.46875 6.0125,113.0625 7.70833333,113.0625 C9.40416667,113.0625 10.7916667,114.46875 10.7916667,116.1875 C10.7916667,117.90625 9.40416667,119.3125 7.70833333,119.3125 Z M29.2916667,103.6875 C27.5958333,103.6875 26.2083333,102.28125 26.2083333,100.5625 C26.2083333,98.84375 27.5958333,97.4375 29.2916667,97.4375 C30.9875,97.4375 32.375,98.84375 32.375,100.5625 C32.375,102.28125 30.9875,103.6875 29.2916667,103.6875 Z" id="Shape"></path>
                            </g>
                        </g>
                    </g>
                    <g id="Group-2-Copy-6" transform="translate(-0.000000, 750.000000)">
                        <g id="Group-Copy" transform="translate(600.000000, -0.000000)" fill="#FFFFFF" fill-rule="nonzero">
                            <g id="Tile-Copy-2" transform="translate(450.000000, 13.000000)">
                                <path d="M104.291667,18.75 C100.630208,18.75 97.5661458,21.3378906 96.7856771,24.8046875 C94.4828125,24.4628906 91.1971354,23.5449219 88.7015625,21.1328125 C87.1020833,19.5800781 86.0132813,17.5683594 85.4544271,15.1171875 C88.3546875,13.9941406 90.4166667,11.1425781 90.4166667,7.8125 C90.4166667,3.49609375 86.9671875,0 82.7083333,0 C78.4494792,0 75,3.49609375 75,7.8125 C75,11.3085938 77.2643229,14.2675781 80.3958333,15.2636719 L80.3958333,34.7265625 C77.2643229,35.7324219 75,38.6914062 75,42.1875 C75,46.5039062 78.4494792,50 82.7083333,50 C86.9671875,50 90.4166667,46.5039062 90.4166667,42.1875 C90.4166667,38.6914062 88.1523438,35.7324219 85.0208333,34.7363281 L85.0208333,24.0332031 C85.175,24.1992188 85.3388021,24.3652344 85.5026042,24.5214844 C89.2893229,28.1835938 94.2130208,29.2675781 97.1807292,29.5800781 C98.3466146,32.4023437 101.092708,34.3847656 104.291667,34.3847656 C108.550521,34.3847656 112,30.8886719 112,26.5722656 C112,22.2558594 108.550521,18.75 104.291667,18.75 Z M82.7083333,4.6875 C84.4041667,4.6875 85.7916667,6.09375 85.7916667,7.8125 C85.7916667,9.53125 84.4041667,10.9375 82.7083333,10.9375 C81.0125,10.9375 79.625,9.53125 79.625,7.8125 C79.625,6.09375 81.0125,4.6875 82.7083333,4.6875 Z M82.7083333,45.3125 C81.0125,45.3125 79.625,43.90625 79.625,42.1875 C79.625,40.46875 81.0125,39.0625 82.7083333,39.0625 C84.4041667,39.0625 85.7916667,40.46875 85.7916667,42.1875 C85.7916667,43.90625 84.4041667,45.3125 82.7083333,45.3125 Z M104.291667,29.6875 C102.595833,29.6875 101.208333,28.28125 101.208333,26.5625 C101.208333,24.84375 102.595833,23.4375 104.291667,23.4375 C105.9875,23.4375 107.375,24.84375 107.375,26.5625 C107.375,28.28125 105.9875,29.6875 104.291667,29.6875 Z" id="Shape"></path>
                                <path d="M29.2916667,92.75 C25.6302083,92.75 22.5661458,95.3378906 21.7856771,98.8046875 C19.4828125,98.4628906 16.1971354,97.5449219 13.7015625,95.1328125 C12.1020833,93.5800781 11.0132812,91.5683594 10.4544271,89.1171875 C13.3546875,87.9941406 15.4166667,85.1425781 15.4166667,81.8125 C15.4166667,77.4960937 11.9671875,74 7.70833333,74 C3.44947917,74 0,77.4960937 0,81.8125 C0,85.3085937 2.26432292,88.2675781 5.39583333,89.2636719 L5.39583333,108.726562 C2.26432292,109.732422 0,112.691406 0,116.1875 C0,120.503906 3.44947917,124 7.70833333,124 C11.9671875,124 15.4166667,120.503906 15.4166667,116.1875 C15.4166667,112.691406 13.1523438,109.732422 10.0208333,108.736328 L10.0208333,98.0332031 C10.175,98.1992187 10.3388021,98.3652344 10.5026042,98.5214844 C14.2893229,102.183594 19.2130208,103.267578 22.1807292,103.580078 C23.3466146,106.402344 26.0927083,108.384766 29.2916667,108.384766 C33.5505208,108.384766 37,104.888672 37,100.572266 C37,96.2558594 33.5505208,92.75 29.2916667,92.75 Z M7.70833333,78.6875 C9.40416667,78.6875 10.7916667,80.09375 10.7916667,81.8125 C10.7916667,83.53125 9.40416667,84.9375 7.70833333,84.9375 C6.0125,84.9375 4.625,83.53125 4.625,81.8125 C4.625,80.09375 6.0125,78.6875 7.70833333,78.6875 Z M7.70833333,119.3125 C6.0125,119.3125 4.625,117.90625 4.625,116.1875 C4.625,114.46875 6.0125,113.0625 7.70833333,113.0625 C9.40416667,113.0625 10.7916667,114.46875 10.7916667,116.1875 C10.7916667,117.90625 9.40416667,119.3125 7.70833333,119.3125 Z M29.2916667,103.6875 C27.5958333,103.6875 26.2083333,102.28125 26.2083333,100.5625 C26.2083333,98.84375 27.5958333,97.4375 29.2916667,97.4375 C30.9875,97.4375 32.375,98.84375 32.375,100.5625 C32.375,102.28125 30.9875,103.6875 29.2916667,103.6875 Z" id="Shape"></path>
                                <path d="M113,88.0625 C113,83.7460938 109.457292,80.25 105.083333,80.25 C100.709375,80.25 97.1666667,83.7460938 97.1666667,88.0625 C97.1666667,91.6171875 99.5713542,94.6152344 102.856771,95.5625 C102.797396,97.1347656 102.441146,98.3457031 101.768229,99.1660156 C100.244271,101.041016 96.8895833,101.353516 93.3369792,101.675781 C90.5463542,101.929688 87.6567708,102.203125 85.2916667,103.326172 L85.2916667,89.2636719 C88.5078125,88.2675781 90.8333333,85.3085938 90.8333333,81.8125 C90.8333333,77.4960938 87.290625,74 82.9166667,74 C78.5427083,74 75,77.4960938 75,81.8125 C75,85.3085938 77.3255208,88.2675781 80.5416667,89.2636719 L80.5416667,108.726562 C77.3255208,109.732422 75,112.691406 75,116.1875 C75,120.503906 78.5427083,124 82.9166667,124 C87.290625,124 90.8333333,120.503906 90.8333333,116.1875 C90.8333333,112.867188 88.7354167,110.025391 85.7666667,108.902344 C86.0734375,108.394531 86.5385417,107.945312 87.2411458,107.59375 C88.8442708,106.792969 91.2390625,106.578125 93.7822917,106.34375 C97.9583333,105.962891 102.688542,105.523438 105.479167,102.095703 C106.864583,100.396484 107.567188,98.2089844 107.616667,95.4648438 C110.74375,94.4199219 113,91.5 113,88.0625 Z M82.9166667,78.6875 C84.6583333,78.6875 86.0833333,80.09375 86.0833333,81.8125 C86.0833333,83.53125 84.6583333,84.9375 82.9166667,84.9375 C81.175,84.9375 79.75,83.53125 79.75,81.8125 C79.75,80.09375 81.175,78.6875 82.9166667,78.6875 Z M82.9166667,119.3125 C81.175,119.3125 79.75,117.90625 79.75,116.1875 C79.75,114.46875 81.175,113.0625 82.9166667,113.0625 C84.6583333,113.0625 86.0833333,114.46875 86.0833333,116.1875 C86.0833333,117.90625 84.6583333,119.3125 82.9166667,119.3125 Z M105.083333,91.1875 C103.341667,91.1875 101.916667,89.78125 101.916667,88.0625 C101.916667,86.34375 103.341667,84.9375 105.083333,84.9375 C106.825,84.9375 108.25,86.34375 108.25,88.0625 C108.25,89.78125 106.825,91.1875 105.083333,91.1875 Z" id="Shape"></path>
                            </g>
                        </g>
                        <g id="Group-Copy-2" transform="translate(1200.000000, 0.000000)" fill="#FFFFFF" fill-rule="nonzero">
                            <g id="Tile" transform="translate(0.000000, 13.000000)">
                                <path d="M104.291667,18.75 C100.630208,18.75 97.5661458,21.3378906 96.7856771,24.8046875 C94.4828125,24.4628906 91.1971354,23.5449219 88.7015625,21.1328125 C87.1020833,19.5800781 86.0132813,17.5683594 85.4544271,15.1171875 C88.3546875,13.9941406 90.4166667,11.1425781 90.4166667,7.8125 C90.4166667,3.49609375 86.9671875,0 82.7083333,0 C78.4494792,0 75,3.49609375 75,7.8125 C75,11.3085938 77.2643229,14.2675781 80.3958333,15.2636719 L80.3958333,34.7265625 C77.2643229,35.7324219 75,38.6914062 75,42.1875 C75,46.5039062 78.4494792,50 82.7083333,50 C86.9671875,50 90.4166667,46.5039062 90.4166667,42.1875 C90.4166667,38.6914062 88.1523438,35.7324219 85.0208333,34.7363281 L85.0208333,24.0332031 C85.175,24.1992188 85.3388021,24.3652344 85.5026042,24.5214844 C89.2893229,28.1835938 94.2130208,29.2675781 97.1807292,29.5800781 C98.3466146,32.4023437 101.092708,34.3847656 104.291667,34.3847656 C108.550521,34.3847656 112,30.8886719 112,26.5722656 C112,22.2558594 108.550521,18.75 104.291667,18.75 Z M82.7083333,4.6875 C84.4041667,4.6875 85.7916667,6.09375 85.7916667,7.8125 C85.7916667,9.53125 84.4041667,10.9375 82.7083333,10.9375 C81.0125,10.9375 79.625,9.53125 79.625,7.8125 C79.625,6.09375 81.0125,4.6875 82.7083333,4.6875 Z M82.7083333,45.3125 C81.0125,45.3125 79.625,43.90625 79.625,42.1875 C79.625,40.46875 81.0125,39.0625 82.7083333,39.0625 C84.4041667,39.0625 85.7916667,40.46875 85.7916667,42.1875 C85.7916667,43.90625 84.4041667,45.3125 82.7083333,45.3125 Z M104.291667,29.6875 C102.595833,29.6875 101.208333,28.28125 101.208333,26.5625 C101.208333,24.84375 102.595833,23.4375 104.291667,23.4375 C105.9875,23.4375 107.375,24.84375 107.375,26.5625 C107.375,28.28125 105.9875,29.6875 104.291667,29.6875 Z" id="Shape"></path>
                                <path d="M38,14.0625 C38,9.74609375 34.4572917,6.25 30.0833333,6.25 C25.709375,6.25 22.1666667,9.74609375 22.1666667,14.0625 C22.1666667,17.6171875 24.5713542,20.6152344 27.8567708,21.5625 C27.7973958,23.1347656 27.4411458,24.3457031 26.7682292,25.1660156 C25.2442708,27.0410156 21.8895833,27.3535156 18.3369792,27.6757813 C15.5463542,27.9296875 12.6567708,28.203125 10.2916667,29.3261719 L10.2916667,15.2636719 C13.5078125,14.2675781 15.8333333,11.3085938 15.8333333,7.8125 C15.8333333,3.49609375 12.290625,0 7.91666667,0 C3.54270833,0 0,3.49609375 0,7.8125 C0,11.3085938 2.32552083,14.2675781 5.54166667,15.2636719 L5.54166667,34.7265625 C2.32552083,35.7324219 0,38.6914063 0,42.1875 C0,46.5039063 3.54270833,50 7.91666667,50 C12.290625,50 15.8333333,46.5039063 15.8333333,42.1875 C15.8333333,38.8671875 13.7354167,36.0253906 10.7666667,34.9023438 C11.0734375,34.3945313 11.5385417,33.9453125 12.2411458,33.59375 C13.8442708,32.7929688 16.2390625,32.578125 18.7822917,32.34375 C22.9583333,31.9628906 27.6885417,31.5234375 30.4791667,28.0957031 C31.8645833,26.3964844 32.5671875,24.2089844 32.6166667,21.4648438 C35.74375,20.4199219 38,17.5 38,14.0625 Z M7.91666667,4.6875 C9.65833333,4.6875 11.0833333,6.09375 11.0833333,7.8125 C11.0833333,9.53125 9.65833333,10.9375 7.91666667,10.9375 C6.175,10.9375 4.75,9.53125 4.75,7.8125 C4.75,6.09375 6.175,4.6875 7.91666667,4.6875 Z M7.91666667,45.3125 C6.175,45.3125 4.75,43.90625 4.75,42.1875 C4.75,40.46875 6.175,39.0625 7.91666667,39.0625 C9.65833333,39.0625 11.0833333,40.46875 11.0833333,42.1875 C11.0833333,43.90625 9.65833333,45.3125 7.91666667,45.3125 Z M30.0833333,17.1875 C28.3416667,17.1875 26.9166667,15.78125 26.9166667,14.0625 C26.9166667,12.34375 28.3416667,10.9375 30.0833333,10.9375 C31.825,10.9375 33.25,12.34375 33.25,14.0625 C33.25,15.78125 31.825,17.1875 30.0833333,17.1875 Z" id="Shape"></path>
                                <path d="M29.2916667,92.75 C25.6302083,92.75 22.5661458,95.3378906 21.7856771,98.8046875 C19.4828125,98.4628906 16.1971354,97.5449219 13.7015625,95.1328125 C12.1020833,93.5800781 11.0132812,91.5683594 10.4544271,89.1171875 C13.3546875,87.9941406 15.4166667,85.1425781 15.4166667,81.8125 C15.4166667,77.4960938 11.9671875,74 7.70833333,74 C3.44947917,74 0,77.4960938 0,81.8125 C0,85.3085938 2.26432292,88.2675781 5.39583333,89.2636719 L5.39583333,108.726562 C2.26432292,109.732422 0,112.691406 0,116.1875 C0,120.503906 3.44947917,124 7.70833333,124 C11.9671875,124 15.4166667,120.503906 15.4166667,116.1875 C15.4166667,112.691406 13.1523438,109.732422 10.0208333,108.736328 L10.0208333,98.0332031 C10.175,98.1992188 10.3388021,98.3652344 10.5026042,98.5214844 C14.2893229,102.183594 19.2130208,103.267578 22.1807292,103.580078 C23.3466146,106.402344 26.0927083,108.384766 29.2916667,108.384766 C33.5505208,108.384766 37,104.888672 37,100.572266 C37,96.2558594 33.5505208,92.75 29.2916667,92.75 Z M7.70833333,78.6875 C9.40416667,78.6875 10.7916667,80.09375 10.7916667,81.8125 C10.7916667,83.53125 9.40416667,84.9375 7.70833333,84.9375 C6.0125,84.9375 4.625,83.53125 4.625,81.8125 C4.625,80.09375 6.0125,78.6875 7.70833333,78.6875 Z M7.70833333,119.3125 C6.0125,119.3125 4.625,117.90625 4.625,116.1875 C4.625,114.46875 6.0125,113.0625 7.70833333,113.0625 C9.40416667,113.0625 10.7916667,114.46875 10.7916667,116.1875 C10.7916667,117.90625 9.40416667,119.3125 7.70833333,119.3125 Z M29.2916667,103.6875 C27.5958333,103.6875 26.2083333,102.28125 26.2083333,100.5625 C26.2083333,98.84375 27.5958333,97.4375 29.2916667,97.4375 C30.9875,97.4375 32.375,98.84375 32.375,100.5625 C32.375,102.28125 30.9875,103.6875 29.2916667,103.6875 Z" id="Shape"></path>
                                <path d="M113,88.0625 C113,83.7460938 109.457292,80.25 105.083333,80.25 C100.709375,80.25 97.1666667,83.7460938 97.1666667,88.0625 C97.1666667,91.6171875 99.5713542,94.6152344 102.856771,95.5625 C102.797396,97.1347656 102.441146,98.3457031 101.768229,99.1660156 C100.244271,101.041016 96.8895833,101.353516 93.3369792,101.675781 C90.5463542,101.929688 87.6567708,102.203125 85.2916667,103.326172 L85.2916667,89.2636719 C88.5078125,88.2675781 90.8333333,85.3085938 90.8333333,81.8125 C90.8333333,77.4960938 87.290625,74 82.9166667,74 C78.5427083,74 75,77.4960938 75,81.8125 C75,85.3085938 77.3255208,88.2675781 80.5416667,89.2636719 L80.5416667,108.726562 C77.3255208,109.732422 75,112.691406 75,116.1875 C75,120.503906 78.5427083,124 82.9166667,124 C87.290625,124 90.8333333,120.503906 90.8333333,116.1875 C90.8333333,112.867188 88.7354167,110.025391 85.7666667,108.902344 C86.0734375,108.394531 86.5385417,107.945312 87.2411458,107.59375 C88.8442708,106.792969 91.2390625,106.578125 93.7822917,106.34375 C97.9583333,105.962891 102.688542,105.523438 105.479167,102.095703 C106.864583,100.396484 107.567188,98.2089844 107.616667,95.4648438 C110.74375,94.4199219 113,91.5 113,88.0625 Z M82.9166667,78.6875 C84.6583333,78.6875 86.0833333,80.09375 86.0833333,81.8125 C86.0833333,83.53125 84.6583333,84.9375 82.9166667,84.9375 C81.175,84.9375 79.75,83.53125 79.75,81.8125 C79.75,80.09375 81.175,78.6875 82.9166667,78.6875 Z M82.9166667,119.3125 C81.175,119.3125 79.75,117.90625 79.75,116.1875 C79.75,114.46875 81.175,113.0625 82.9166667,113.0625 C84.6583333,113.0625 86.0833333,114.46875 86.0833333,116.1875 C86.0833333,117.90625 84.6583333,119.3125 82.9166667,119.3125 Z M105.083333,91.1875 C103.341667,91.1875 101.916667,89.78125 101.916667,88.0625 C101.916667,86.34375 103.341667,84.9375 105.083333,84.9375 C106.825,84.9375 108.25,86.34375 108.25,88.0625 C108.25,89.78125 106.825,91.1875 105.083333,91.1875 Z" id="Shape"></path>
                            </g>
                            <g id="Tile-Copy" transform="translate(150.000000, 13.000000)">
                                <path d="M104.291667,18.75 C100.630208,18.75 97.5661458,21.3378906 96.7856771,24.8046875 C94.4828125,24.4628906 91.1971354,23.5449219 88.7015625,21.1328125 C87.1020833,19.5800781 86.0132813,17.5683594 85.4544271,15.1171875 C88.3546875,13.9941406 90.4166667,11.1425781 90.4166667,7.8125 C90.4166667,3.49609375 86.9671875,0 82.7083333,0 C78.4494792,0 75,3.49609375 75,7.8125 C75,11.3085938 77.2643229,14.2675781 80.3958333,15.2636719 L80.3958333,34.7265625 C77.2643229,35.7324219 75,38.6914062 75,42.1875 C75,46.5039062 78.4494792,50 82.7083333,50 C86.9671875,50 90.4166667,46.5039062 90.4166667,42.1875 C90.4166667,38.6914062 88.1523438,35.7324219 85.0208333,34.7363281 L85.0208333,24.0332031 C85.175,24.1992188 85.3388021,24.3652344 85.5026042,24.5214844 C89.2893229,28.1835938 94.2130208,29.2675781 97.1807292,29.5800781 C98.3466146,32.4023437 101.092708,34.3847656 104.291667,34.3847656 C108.550521,34.3847656 112,30.8886719 112,26.5722656 C112,22.2558594 108.550521,18.75 104.291667,18.75 Z M82.7083333,4.6875 C84.4041667,4.6875 85.7916667,6.09375 85.7916667,7.8125 C85.7916667,9.53125 84.4041667,10.9375 82.7083333,10.9375 C81.0125,10.9375 79.625,9.53125 79.625,7.8125 C79.625,6.09375 81.0125,4.6875 82.7083333,4.6875 Z M82.7083333,45.3125 C81.0125,45.3125 79.625,43.90625 79.625,42.1875 C79.625,40.46875 81.0125,39.0625 82.7083333,39.0625 C84.4041667,39.0625 85.7916667,40.46875 85.7916667,42.1875 C85.7916667,43.90625 84.4041667,45.3125 82.7083333,45.3125 Z M104.291667,29.6875 C102.595833,29.6875 101.208333,28.28125 101.208333,26.5625 C101.208333,24.84375 102.595833,23.4375 104.291667,23.4375 C105.9875,23.4375 107.375,24.84375 107.375,26.5625 C107.375,28.28125 105.9875,29.6875 104.291667,29.6875 Z" id="Shape"></path>
                                <path d="M38,14.0625 C38,9.74609375 34.4572917,6.25 30.0833333,6.25 C25.709375,6.25 22.1666667,9.74609375 22.1666667,14.0625 C22.1666667,17.6171875 24.5713542,20.6152344 27.8567708,21.5625 C27.7973958,23.1347656 27.4411458,24.3457031 26.7682292,25.1660156 C25.2442708,27.0410156 21.8895833,27.3535156 18.3369792,27.6757813 C15.5463542,27.9296875 12.6567708,28.203125 10.2916667,29.3261719 L10.2916667,15.2636719 C13.5078125,14.2675781 15.8333333,11.3085938 15.8333333,7.8125 C15.8333333,3.49609375 12.290625,0 7.91666667,0 C3.54270833,0 0,3.49609375 0,7.8125 C0,11.3085938 2.32552083,14.2675781 5.54166667,15.2636719 L5.54166667,34.7265625 C2.32552083,35.7324219 0,38.6914063 0,42.1875 C0,46.5039063 3.54270833,50 7.91666667,50 C12.290625,50 15.8333333,46.5039063 15.8333333,42.1875 C15.8333333,38.8671875 13.7354167,36.0253906 10.7666667,34.9023438 C11.0734375,34.3945313 11.5385417,33.9453125 12.2411458,33.59375 C13.8442708,32.7929688 16.2390625,32.578125 18.7822917,32.34375 C22.9583333,31.9628906 27.6885417,31.5234375 30.4791667,28.0957031 C31.8645833,26.3964844 32.5671875,24.2089844 32.6166667,21.4648438 C35.74375,20.4199219 38,17.5 38,14.0625 Z M7.91666667,4.6875 C9.65833333,4.6875 11.0833333,6.09375 11.0833333,7.8125 C11.0833333,9.53125 9.65833333,10.9375 7.91666667,10.9375 C6.175,10.9375 4.75,9.53125 4.75,7.8125 C4.75,6.09375 6.175,4.6875 7.91666667,4.6875 Z M7.91666667,45.3125 C6.175,45.3125 4.75,43.90625 4.75,42.1875 C4.75,40.46875 6.175,39.0625 7.91666667,39.0625 C9.65833333,39.0625 11.0833333,40.46875 11.0833333,42.1875 C11.0833333,43.90625 9.65833333,45.3125 7.91666667,45.3125 Z M30.0833333,17.1875 C28.3416667,17.1875 26.9166667,15.78125 26.9166667,14.0625 C26.9166667,12.34375 28.3416667,10.9375 30.0833333,10.9375 C31.825,10.9375 33.25,12.34375 33.25,14.0625 C33.25,15.78125 31.825,17.1875 30.0833333,17.1875 Z" id="Shape"></path>
                                <path d="M29.2916667,92.75 C25.6302083,92.75 22.5661458,95.3378906 21.7856771,98.8046875 C19.4828125,98.4628906 16.1971354,97.5449219 13.7015625,95.1328125 C12.1020833,93.5800781 11.0132812,91.5683594 10.4544271,89.1171875 C13.3546875,87.9941406 15.4166667,85.1425781 15.4166667,81.8125 C15.4166667,77.4960938 11.9671875,74 7.70833333,74 C3.44947917,74 -1.13686838e-13,77.4960938 -1.13686838e-13,81.8125 C-1.13686838e-13,85.3085938 2.26432292,88.2675781 5.39583333,89.2636719 L5.39583333,108.726563 C2.26432292,109.732422 -1.13686838e-13,112.691406 -1.13686838e-13,116.1875 C-1.13686838e-13,120.503906 3.44947917,124 7.70833333,124 C11.9671875,124 15.4166667,120.503906 15.4166667,116.1875 C15.4166667,112.691406 13.1523437,109.732422 10.0208333,108.736328 L10.0208333,98.0332031 C10.175,98.1992188 10.3388021,98.3652344 10.5026042,98.5214844 C14.2893229,102.183594 19.2130208,103.267578 22.1807292,103.580078 C23.3466146,106.402344 26.0927083,108.384766 29.2916667,108.384766 C33.5505208,108.384766 37,104.888672 37,100.572266 C37,96.2558594 33.5505208,92.75 29.2916667,92.75 Z M7.70833333,78.6875 C9.40416667,78.6875 10.7916667,80.09375 10.7916667,81.8125 C10.7916667,83.53125 9.40416667,84.9375 7.70833333,84.9375 C6.0125,84.9375 4.625,83.53125 4.625,81.8125 C4.625,80.09375 6.0125,78.6875 7.70833333,78.6875 Z M7.70833333,119.3125 C6.0125,119.3125 4.625,117.90625 4.625,116.1875 C4.625,114.46875 6.0125,113.0625 7.70833333,113.0625 C9.40416667,113.0625 10.7916667,114.46875 10.7916667,116.1875 C10.7916667,117.90625 9.40416667,119.3125 7.70833333,119.3125 Z M29.2916667,103.6875 C27.5958333,103.6875 26.2083333,102.28125 26.2083333,100.5625 C26.2083333,98.84375 27.5958333,97.4375 29.2916667,97.4375 C30.9875,97.4375 32.375,98.84375 32.375,100.5625 C32.375,102.28125 30.9875,103.6875 29.2916667,103.6875 Z" id="Shape"></path>
                                <path d="M113,88.0625 C113,83.7460938 109.457292,80.25 105.083333,80.25 C100.709375,80.25 97.1666667,83.7460938 97.1666667,88.0625 C97.1666667,91.6171875 99.5713542,94.6152344 102.856771,95.5625 C102.797396,97.1347656 102.441146,98.3457031 101.768229,99.1660156 C100.244271,101.041016 96.8895833,101.353516 93.3369792,101.675781 C90.5463542,101.929688 87.6567708,102.203125 85.2916667,103.326172 L85.2916667,89.2636719 C88.5078125,88.2675781 90.8333333,85.3085938 90.8333333,81.8125 C90.8333333,77.4960938 87.290625,74 82.9166667,74 C78.5427083,74 75,77.4960938 75,81.8125 C75,85.3085938 77.3255208,88.2675781 80.5416667,89.2636719 L80.5416667,108.726562 C77.3255208,109.732422 75,112.691406 75,116.1875 C75,120.503906 78.5427083,124 82.9166667,124 C87.290625,124 90.8333333,120.503906 90.8333333,116.1875 C90.8333333,112.867188 88.7354167,110.025391 85.7666667,108.902344 C86.0734375,108.394531 86.5385417,107.945312 87.2411458,107.59375 C88.8442708,106.792969 91.2390625,106.578125 93.7822917,106.34375 C97.9583333,105.962891 102.688542,105.523438 105.479167,102.095703 C106.864583,100.396484 107.567188,98.2089844 107.616667,95.4648438 C110.74375,94.4199219 113,91.5 113,88.0625 Z M82.9166667,78.6875 C84.6583333,78.6875 86.0833333,80.09375 86.0833333,81.8125 C86.0833333,83.53125 84.6583333,84.9375 82.9166667,84.9375 C81.175,84.9375 79.75,83.53125 79.75,81.8125 C79.75,80.09375 81.175,78.6875 82.9166667,78.6875 Z M82.9166667,119.3125 C81.175,119.3125 79.75,117.90625 79.75,116.1875 C79.75,114.46875 81.175,113.0625 82.9166667,113.0625 C84.6583333,113.0625 86.0833333,114.46875 86.0833333,116.1875 C86.0833333,117.90625 84.6583333,119.3125 82.9166667,119.3125 Z M105.083333,91.1875 C103.341667,91.1875 101.916667,89.78125 101.916667,88.0625 C101.916667,86.34375 103.341667,84.9375 105.083333,84.9375 C106.825,84.9375 108.25,86.34375 108.25,88.0625 C108.25,89.78125 106.825,91.1875 105.083333,91.1875 Z" id="Shape"></path>
                            </g>
                            <g id="Tile-Copy-3" transform="translate(300.000000, 13.000000)">
                                <path d="M29.2916667,92.75 C25.6302083,92.75 22.5661458,95.3378906 21.7856771,98.8046875 C19.4828125,98.4628906 16.1971354,97.5449219 13.7015625,95.1328125 C12.1020833,93.5800781 11.0132812,91.5683594 10.4544271,89.1171875 C13.3546875,87.9941406 15.4166667,85.1425781 15.4166667,81.8125 C15.4166667,77.4960937 11.9671875,74 7.70833333,74 C3.44947917,74 0,77.4960937 0,81.8125 C0,85.3085937 2.26432292,88.2675781 5.39583333,89.2636719 L5.39583333,108.726562 C2.26432292,109.732422 0,112.691406 0,116.1875 C0,120.503906 3.44947917,124 7.70833333,124 C11.9671875,124 15.4166667,120.503906 15.4166667,116.1875 C15.4166667,112.691406 13.1523438,109.732422 10.0208333,108.736328 L10.0208333,98.0332031 C10.175,98.1992187 10.3388021,98.3652344 10.5026042,98.5214844 C14.2893229,102.183594 19.2130208,103.267578 22.1807292,103.580078 C23.3466146,106.402344 26.0927083,108.384766 29.2916667,108.384766 C33.5505208,108.384766 37,104.888672 37,100.572266 C37,96.2558594 33.5505208,92.75 29.2916667,92.75 Z M7.70833333,78.6875 C9.40416667,78.6875 10.7916667,80.09375 10.7916667,81.8125 C10.7916667,83.53125 9.40416667,84.9375 7.70833333,84.9375 C6.0125,84.9375 4.625,83.53125 4.625,81.8125 C4.625,80.09375 6.0125,78.6875 7.70833333,78.6875 Z M7.70833333,119.3125 C6.0125,119.3125 4.625,117.90625 4.625,116.1875 C4.625,114.46875 6.0125,113.0625 7.70833333,113.0625 C9.40416667,113.0625 10.7916667,114.46875 10.7916667,116.1875 C10.7916667,117.90625 9.40416667,119.3125 7.70833333,119.3125 Z M29.2916667,103.6875 C27.5958333,103.6875 26.2083333,102.28125 26.2083333,100.5625 C26.2083333,98.84375 27.5958333,97.4375 29.2916667,97.4375 C30.9875,97.4375 32.375,98.84375 32.375,100.5625 C32.375,102.28125 30.9875,103.6875 29.2916667,103.6875 Z" id="Shape"></path>
                            </g>
                        </g>
                    </g>
                    <g id="Group-2-Copy-5" transform="translate(-0.000000, 900.000000)">
                        <g id="Group-Copy" transform="translate(600.000000, 0.000000)" fill="#FFFFFF" fill-rule="nonzero">
                            <g id="Tile-Copy-2" transform="translate(450.000000, 13.000000)">
                                <path d="M104.291667,18.75 C100.630208,18.75 97.5661458,21.3378906 96.7856771,24.8046875 C94.4828125,24.4628906 91.1971354,23.5449219 88.7015625,21.1328125 C87.1020833,19.5800781 86.0132813,17.5683594 85.4544271,15.1171875 C88.3546875,13.9941406 90.4166667,11.1425781 90.4166667,7.8125 C90.4166667,3.49609375 86.9671875,0 82.7083333,0 C78.4494792,0 75,3.49609375 75,7.8125 C75,11.3085938 77.2643229,14.2675781 80.3958333,15.2636719 L80.3958333,34.7265625 C77.2643229,35.7324219 75,38.6914062 75,42.1875 C75,46.5039062 78.4494792,50 82.7083333,50 C86.9671875,50 90.4166667,46.5039062 90.4166667,42.1875 C90.4166667,38.6914062 88.1523438,35.7324219 85.0208333,34.7363281 L85.0208333,24.0332031 C85.175,24.1992188 85.3388021,24.3652344 85.5026042,24.5214844 C89.2893229,28.1835938 94.2130208,29.2675781 97.1807292,29.5800781 C98.3466146,32.4023437 101.092708,34.3847656 104.291667,34.3847656 C108.550521,34.3847656 112,30.8886719 112,26.5722656 C112,22.2558594 108.550521,18.75 104.291667,18.75 Z M82.7083333,4.6875 C84.4041667,4.6875 85.7916667,6.09375 85.7916667,7.8125 C85.7916667,9.53125 84.4041667,10.9375 82.7083333,10.9375 C81.0125,10.9375 79.625,9.53125 79.625,7.8125 C79.625,6.09375 81.0125,4.6875 82.7083333,4.6875 Z M82.7083333,45.3125 C81.0125,45.3125 79.625,43.90625 79.625,42.1875 C79.625,40.46875 81.0125,39.0625 82.7083333,39.0625 C84.4041667,39.0625 85.7916667,40.46875 85.7916667,42.1875 C85.7916667,43.90625 84.4041667,45.3125 82.7083333,45.3125 Z M104.291667,29.6875 C102.595833,29.6875 101.208333,28.28125 101.208333,26.5625 C101.208333,24.84375 102.595833,23.4375 104.291667,23.4375 C105.9875,23.4375 107.375,24.84375 107.375,26.5625 C107.375,28.28125 105.9875,29.6875 104.291667,29.6875 Z" id="Shape"></path>
                                <path d="M38,14.0625 C38,9.74609375 34.4572917,6.25 30.0833333,6.25 C25.709375,6.25 22.1666667,9.74609375 22.1666667,14.0625 C22.1666667,17.6171875 24.5713542,20.6152344 27.8567708,21.5625 C27.7973958,23.1347656 27.4411458,24.3457031 26.7682292,25.1660156 C25.2442708,27.0410156 21.8895833,27.3535156 18.3369792,27.6757813 C15.5463542,27.9296875 12.6567708,28.203125 10.2916667,29.3261719 L10.2916667,15.2636719 C13.5078125,14.2675781 15.8333333,11.3085938 15.8333333,7.8125 C15.8333333,3.49609375 12.290625,0 7.91666667,0 C3.54270833,0 0,3.49609375 0,7.8125 C0,11.3085938 2.32552083,14.2675781 5.54166667,15.2636719 L5.54166667,34.7265625 C2.32552083,35.7324219 0,38.6914063 0,42.1875 C0,46.5039063 3.54270833,50 7.91666667,50 C12.290625,50 15.8333333,46.5039063 15.8333333,42.1875 C15.8333333,38.8671875 13.7354167,36.0253906 10.7666667,34.9023438 C11.0734375,34.3945313 11.5385417,33.9453125 12.2411458,33.59375 C13.8442708,32.7929688 16.2390625,32.578125 18.7822917,32.34375 C22.9583333,31.9628906 27.6885417,31.5234375 30.4791667,28.0957031 C31.8645833,26.3964844 32.5671875,24.2089844 32.6166667,21.4648438 C35.74375,20.4199219 38,17.5 38,14.0625 Z M7.91666667,4.6875 C9.65833333,4.6875 11.0833333,6.09375 11.0833333,7.8125 C11.0833333,9.53125 9.65833333,10.9375 7.91666667,10.9375 C6.175,10.9375 4.75,9.53125 4.75,7.8125 C4.75,6.09375 6.175,4.6875 7.91666667,4.6875 Z M7.91666667,45.3125 C6.175,45.3125 4.75,43.90625 4.75,42.1875 C4.75,40.46875 6.175,39.0625 7.91666667,39.0625 C9.65833333,39.0625 11.0833333,40.46875 11.0833333,42.1875 C11.0833333,43.90625 9.65833333,45.3125 7.91666667,45.3125 Z M30.0833333,17.1875 C28.3416667,17.1875 26.9166667,15.78125 26.9166667,14.0625 C26.9166667,12.34375 28.3416667,10.9375 30.0833333,10.9375 C31.825,10.9375 33.25,12.34375 33.25,14.0625 C33.25,15.78125 31.825,17.1875 30.0833333,17.1875 Z" id="Shape"></path>
                                <path d="M113,88.0625 C113,83.7460938 109.457292,80.25 105.083333,80.25 C100.709375,80.25 97.1666667,83.7460938 97.1666667,88.0625 C97.1666667,91.6171875 99.5713542,94.6152344 102.856771,95.5625 C102.797396,97.1347656 102.441146,98.3457031 101.768229,99.1660156 C100.244271,101.041016 96.8895833,101.353516 93.3369792,101.675781 C90.5463542,101.929688 87.6567708,102.203125 85.2916667,103.326172 L85.2916667,89.2636719 C88.5078125,88.2675781 90.8333333,85.3085938 90.8333333,81.8125 C90.8333333,77.4960938 87.290625,74 82.9166667,74 C78.5427083,74 75,77.4960938 75,81.8125 C75,85.3085938 77.3255208,88.2675781 80.5416667,89.2636719 L80.5416667,108.726562 C77.3255208,109.732422 75,112.691406 75,116.1875 C75,120.503906 78.5427083,124 82.9166667,124 C87.290625,124 90.8333333,120.503906 90.8333333,116.1875 C90.8333333,112.867188 88.7354167,110.025391 85.7666667,108.902344 C86.0734375,108.394531 86.5385417,107.945312 87.2411458,107.59375 C88.8442708,106.792969 91.2390625,106.578125 93.7822917,106.34375 C97.9583333,105.962891 102.688542,105.523438 105.479167,102.095703 C106.864583,100.396484 107.567188,98.2089844 107.616667,95.4648438 C110.74375,94.4199219 113,91.5 113,88.0625 Z M82.9166667,78.6875 C84.6583333,78.6875 86.0833333,80.09375 86.0833333,81.8125 C86.0833333,83.53125 84.6583333,84.9375 82.9166667,84.9375 C81.175,84.9375 79.75,83.53125 79.75,81.8125 C79.75,80.09375 81.175,78.6875 82.9166667,78.6875 Z M82.9166667,119.3125 C81.175,119.3125 79.75,117.90625 79.75,116.1875 C79.75,114.46875 81.175,113.0625 82.9166667,113.0625 C84.6583333,113.0625 86.0833333,114.46875 86.0833333,116.1875 C86.0833333,117.90625 84.6583333,119.3125 82.9166667,119.3125 Z M105.083333,91.1875 C103.341667,91.1875 101.916667,89.78125 101.916667,88.0625 C101.916667,86.34375 103.341667,84.9375 105.083333,84.9375 C106.825,84.9375 108.25,86.34375 108.25,88.0625 C108.25,89.78125 106.825,91.1875 105.083333,91.1875 Z" id="Shape"></path>
                            </g>
                        </g>
                        <g id="Group-Copy-2" transform="translate(1200.000000, 0.000000)" fill="#FFFFFF" fill-rule="nonzero">
                            <g id="Tile" transform="translate(-0.000000, 13.000000)">
                                <path d="M104.291667,18.75 C100.630208,18.75 97.5661458,21.3378906 96.7856771,24.8046875 C94.4828125,24.4628906 91.1971354,23.5449219 88.7015625,21.1328125 C87.1020833,19.5800781 86.0132813,17.5683594 85.4544271,15.1171875 C88.3546875,13.9941406 90.4166667,11.1425781 90.4166667,7.8125 C90.4166667,3.49609375 86.9671875,0 82.7083333,0 C78.4494792,0 75,3.49609375 75,7.8125 C75,11.3085938 77.2643229,14.2675781 80.3958333,15.2636719 L80.3958333,34.7265625 C77.2643229,35.7324219 75,38.6914062 75,42.1875 C75,46.5039062 78.4494792,50 82.7083333,50 C86.9671875,50 90.4166667,46.5039062 90.4166667,42.1875 C90.4166667,38.6914062 88.1523438,35.7324219 85.0208333,34.7363281 L85.0208333,24.0332031 C85.175,24.1992188 85.3388021,24.3652344 85.5026042,24.5214844 C89.2893229,28.1835938 94.2130208,29.2675781 97.1807292,29.5800781 C98.3466146,32.4023437 101.092708,34.3847656 104.291667,34.3847656 C108.550521,34.3847656 112,30.8886719 112,26.5722656 C112,22.2558594 108.550521,18.75 104.291667,18.75 Z M82.7083333,4.6875 C84.4041667,4.6875 85.7916667,6.09375 85.7916667,7.8125 C85.7916667,9.53125 84.4041667,10.9375 82.7083333,10.9375 C81.0125,10.9375 79.625,9.53125 79.625,7.8125 C79.625,6.09375 81.0125,4.6875 82.7083333,4.6875 Z M82.7083333,45.3125 C81.0125,45.3125 79.625,43.90625 79.625,42.1875 C79.625,40.46875 81.0125,39.0625 82.7083333,39.0625 C84.4041667,39.0625 85.7916667,40.46875 85.7916667,42.1875 C85.7916667,43.90625 84.4041667,45.3125 82.7083333,45.3125 Z M104.291667,29.6875 C102.595833,29.6875 101.208333,28.28125 101.208333,26.5625 C101.208333,24.84375 102.595833,23.4375 104.291667,23.4375 C105.9875,23.4375 107.375,24.84375 107.375,26.5625 C107.375,28.28125 105.9875,29.6875 104.291667,29.6875 Z" id="Shape"></path>
                                <path d="M38,14.0625 C38,9.74609375 34.4572917,6.25 30.0833333,6.25 C25.709375,6.25 22.1666667,9.74609375 22.1666667,14.0625 C22.1666667,17.6171875 24.5713542,20.6152344 27.8567708,21.5625 C27.7973958,23.1347656 27.4411458,24.3457031 26.7682292,25.1660156 C25.2442708,27.0410156 21.8895833,27.3535156 18.3369792,27.6757813 C15.5463542,27.9296875 12.6567708,28.203125 10.2916667,29.3261719 L10.2916667,15.2636719 C13.5078125,14.2675781 15.8333333,11.3085938 15.8333333,7.8125 C15.8333333,3.49609375 12.290625,0 7.91666667,0 C3.54270833,0 0,3.49609375 0,7.8125 C0,11.3085938 2.32552083,14.2675781 5.54166667,15.2636719 L5.54166667,34.7265625 C2.32552083,35.7324219 0,38.6914063 0,42.1875 C0,46.5039063 3.54270833,50 7.91666667,50 C12.290625,50 15.8333333,46.5039063 15.8333333,42.1875 C15.8333333,38.8671875 13.7354167,36.0253906 10.7666667,34.9023438 C11.0734375,34.3945313 11.5385417,33.9453125 12.2411458,33.59375 C13.8442708,32.7929688 16.2390625,32.578125 18.7822917,32.34375 C22.9583333,31.9628906 27.6885417,31.5234375 30.4791667,28.0957031 C31.8645833,26.3964844 32.5671875,24.2089844 32.6166667,21.4648438 C35.74375,20.4199219 38,17.5 38,14.0625 Z M7.91666667,4.6875 C9.65833333,4.6875 11.0833333,6.09375 11.0833333,7.8125 C11.0833333,9.53125 9.65833333,10.9375 7.91666667,10.9375 C6.175,10.9375 4.75,9.53125 4.75,7.8125 C4.75,6.09375 6.175,4.6875 7.91666667,4.6875 Z M7.91666667,45.3125 C6.175,45.3125 4.75,43.90625 4.75,42.1875 C4.75,40.46875 6.175,39.0625 7.91666667,39.0625 C9.65833333,39.0625 11.0833333,40.46875 11.0833333,42.1875 C11.0833333,43.90625 9.65833333,45.3125 7.91666667,45.3125 Z M30.0833333,17.1875 C28.3416667,17.1875 26.9166667,15.78125 26.9166667,14.0625 C26.9166667,12.34375 28.3416667,10.9375 30.0833333,10.9375 C31.825,10.9375 33.25,12.34375 33.25,14.0625 C33.25,15.78125 31.825,17.1875 30.0833333,17.1875 Z" id="Shape"></path>
                                <path d="M29.2916667,92.75 C25.6302083,92.75 22.5661458,95.3378906 21.7856771,98.8046875 C19.4828125,98.4628906 16.1971354,97.5449219 13.7015625,95.1328125 C12.1020833,93.5800781 11.0132812,91.5683594 10.4544271,89.1171875 C13.3546875,87.9941406 15.4166667,85.1425781 15.4166667,81.8125 C15.4166667,77.4960938 11.9671875,74 7.70833333,74 C3.44947917,74 0,77.4960938 0,81.8125 C0,85.3085938 2.26432292,88.2675781 5.39583333,89.2636719 L5.39583333,108.726562 C2.26432292,109.732422 0,112.691406 0,116.1875 C0,120.503906 3.44947917,124 7.70833333,124 C11.9671875,124 15.4166667,120.503906 15.4166667,116.1875 C15.4166667,112.691406 13.1523438,109.732422 10.0208333,108.736328 L10.0208333,98.0332031 C10.175,98.1992188 10.3388021,98.3652344 10.5026042,98.5214844 C14.2893229,102.183594 19.2130208,103.267578 22.1807292,103.580078 C23.3466146,106.402344 26.0927083,108.384766 29.2916667,108.384766 C33.5505208,108.384766 37,104.888672 37,100.572266 C37,96.2558594 33.5505208,92.75 29.2916667,92.75 Z M7.70833333,78.6875 C9.40416667,78.6875 10.7916667,80.09375 10.7916667,81.8125 C10.7916667,83.53125 9.40416667,84.9375 7.70833333,84.9375 C6.0125,84.9375 4.625,83.53125 4.625,81.8125 C4.625,80.09375 6.0125,78.6875 7.70833333,78.6875 Z M7.70833333,119.3125 C6.0125,119.3125 4.625,117.90625 4.625,116.1875 C4.625,114.46875 6.0125,113.0625 7.70833333,113.0625 C9.40416667,113.0625 10.7916667,114.46875 10.7916667,116.1875 C10.7916667,117.90625 9.40416667,119.3125 7.70833333,119.3125 Z M29.2916667,103.6875 C27.5958333,103.6875 26.2083333,102.28125 26.2083333,100.5625 C26.2083333,98.84375 27.5958333,97.4375 29.2916667,97.4375 C30.9875,97.4375 32.375,98.84375 32.375,100.5625 C32.375,102.28125 30.9875,103.6875 29.2916667,103.6875 Z" id="Shape"></path>
                                <path d="M113,88.0625 C113,83.7460938 109.457292,80.25 105.083333,80.25 C100.709375,80.25 97.1666667,83.7460938 97.1666667,88.0625 C97.1666667,91.6171875 99.5713542,94.6152344 102.856771,95.5625 C102.797396,97.1347656 102.441146,98.3457031 101.768229,99.1660156 C100.244271,101.041016 96.8895833,101.353516 93.3369792,101.675781 C90.5463542,101.929688 87.6567708,102.203125 85.2916667,103.326172 L85.2916667,89.2636719 C88.5078125,88.2675781 90.8333333,85.3085938 90.8333333,81.8125 C90.8333333,77.4960938 87.290625,74 82.9166667,74 C78.5427083,74 75,77.4960938 75,81.8125 C75,85.3085938 77.3255208,88.2675781 80.5416667,89.2636719 L80.5416667,108.726562 C77.3255208,109.732422 75,112.691406 75,116.1875 C75,120.503906 78.5427083,124 82.9166667,124 C87.290625,124 90.8333333,120.503906 90.8333333,116.1875 C90.8333333,112.867188 88.7354167,110.025391 85.7666667,108.902344 C86.0734375,108.394531 86.5385417,107.945312 87.2411458,107.59375 C88.8442708,106.792969 91.2390625,106.578125 93.7822917,106.34375 C97.9583333,105.962891 102.688542,105.523438 105.479167,102.095703 C106.864583,100.396484 107.567188,98.2089844 107.616667,95.4648438 C110.74375,94.4199219 113,91.5 113,88.0625 Z M82.9166667,78.6875 C84.6583333,78.6875 86.0833333,80.09375 86.0833333,81.8125 C86.0833333,83.53125 84.6583333,84.9375 82.9166667,84.9375 C81.175,84.9375 79.75,83.53125 79.75,81.8125 C79.75,80.09375 81.175,78.6875 82.9166667,78.6875 Z M82.9166667,119.3125 C81.175,119.3125 79.75,117.90625 79.75,116.1875 C79.75,114.46875 81.175,113.0625 82.9166667,113.0625 C84.6583333,113.0625 86.0833333,114.46875 86.0833333,116.1875 C86.0833333,117.90625 84.6583333,119.3125 82.9166667,119.3125 Z M105.083333,91.1875 C103.341667,91.1875 101.916667,89.78125 101.916667,88.0625 C101.916667,86.34375 103.341667,84.9375 105.083333,84.9375 C106.825,84.9375 108.25,86.34375 108.25,88.0625 C108.25,89.78125 106.825,91.1875 105.083333,91.1875 Z" id="Shape"></path>
                            </g>
                            <g id="Tile-Copy" transform="translate(150.000000, 13.000000)">
                                <path d="M104.291667,18.75 C100.630208,18.75 97.5661458,21.3378906 96.7856771,24.8046875 C94.4828125,24.4628906 91.1971354,23.5449219 88.7015625,21.1328125 C87.1020833,19.5800781 86.0132813,17.5683594 85.4544271,15.1171875 C88.3546875,13.9941406 90.4166667,11.1425781 90.4166667,7.8125 C90.4166667,3.49609375 86.9671875,0 82.7083333,0 C78.4494792,0 75,3.49609375 75,7.8125 C75,11.3085938 77.2643229,14.2675781 80.3958333,15.2636719 L80.3958333,34.7265625 C77.2643229,35.7324219 75,38.6914062 75,42.1875 C75,46.5039062 78.4494792,50 82.7083333,50 C86.9671875,50 90.4166667,46.5039062 90.4166667,42.1875 C90.4166667,38.6914062 88.1523438,35.7324219 85.0208333,34.7363281 L85.0208333,24.0332031 C85.175,24.1992188 85.3388021,24.3652344 85.5026042,24.5214844 C89.2893229,28.1835938 94.2130208,29.2675781 97.1807292,29.5800781 C98.3466146,32.4023437 101.092708,34.3847656 104.291667,34.3847656 C108.550521,34.3847656 112,30.8886719 112,26.5722656 C112,22.2558594 108.550521,18.75 104.291667,18.75 Z M82.7083333,4.6875 C84.4041667,4.6875 85.7916667,6.09375 85.7916667,7.8125 C85.7916667,9.53125 84.4041667,10.9375 82.7083333,10.9375 C81.0125,10.9375 79.625,9.53125 79.625,7.8125 C79.625,6.09375 81.0125,4.6875 82.7083333,4.6875 Z M82.7083333,45.3125 C81.0125,45.3125 79.625,43.90625 79.625,42.1875 C79.625,40.46875 81.0125,39.0625 82.7083333,39.0625 C84.4041667,39.0625 85.7916667,40.46875 85.7916667,42.1875 C85.7916667,43.90625 84.4041667,45.3125 82.7083333,45.3125 Z M104.291667,29.6875 C102.595833,29.6875 101.208333,28.28125 101.208333,26.5625 C101.208333,24.84375 102.595833,23.4375 104.291667,23.4375 C105.9875,23.4375 107.375,24.84375 107.375,26.5625 C107.375,28.28125 105.9875,29.6875 104.291667,29.6875 Z" id="Shape"></path>
                                <path d="M38,14.0625 C38,9.74609375 34.4572917,6.25 30.0833333,6.25 C25.709375,6.25 22.1666667,9.74609375 22.1666667,14.0625 C22.1666667,17.6171875 24.5713542,20.6152344 27.8567708,21.5625 C27.7973958,23.1347656 27.4411458,24.3457031 26.7682292,25.1660156 C25.2442708,27.0410156 21.8895833,27.3535156 18.3369792,27.6757813 C15.5463542,27.9296875 12.6567708,28.203125 10.2916667,29.3261719 L10.2916667,15.2636719 C13.5078125,14.2675781 15.8333333,11.3085938 15.8333333,7.8125 C15.8333333,3.49609375 12.290625,0 7.91666667,0 C3.54270833,0 1.13686838e-13,3.49609375 1.13686838e-13,7.8125 C1.13686838e-13,11.3085938 2.32552083,14.2675781 5.54166667,15.2636719 L5.54166667,34.7265625 C2.32552083,35.7324219 1.13686838e-13,38.6914063 1.13686838e-13,42.1875 C1.13686838e-13,46.5039063 3.54270833,50 7.91666667,50 C12.290625,50 15.8333333,46.5039063 15.8333333,42.1875 C15.8333333,38.8671875 13.7354167,36.0253906 10.7666667,34.9023438 C11.0734375,34.3945313 11.5385417,33.9453125 12.2411458,33.59375 C13.8442708,32.7929688 16.2390625,32.578125 18.7822917,32.34375 C22.9583333,31.9628906 27.6885417,31.5234375 30.4791667,28.0957031 C31.8645833,26.3964844 32.5671875,24.2089844 32.6166667,21.4648438 C35.74375,20.4199219 38,17.5 38,14.0625 Z M7.91666667,4.6875 C9.65833333,4.6875 11.0833333,6.09375 11.0833333,7.8125 C11.0833333,9.53125 9.65833333,10.9375 7.91666667,10.9375 C6.175,10.9375 4.75,9.53125 4.75,7.8125 C4.75,6.09375 6.175,4.6875 7.91666667,4.6875 Z M7.91666667,45.3125 C6.175,45.3125 4.75,43.90625 4.75,42.1875 C4.75,40.46875 6.175,39.0625 7.91666667,39.0625 C9.65833333,39.0625 11.0833333,40.46875 11.0833333,42.1875 C11.0833333,43.90625 9.65833333,45.3125 7.91666667,45.3125 Z M30.0833333,17.1875 C28.3416667,17.1875 26.9166667,15.78125 26.9166667,14.0625 C26.9166667,12.34375 28.3416667,10.9375 30.0833333,10.9375 C31.825,10.9375 33.25,12.34375 33.25,14.0625 C33.25,15.78125 31.825,17.1875 30.0833333,17.1875 Z" id="Shape"></path>
                                <path d="M29.2916667,92.75 C25.6302083,92.75 22.5661458,95.3378906 21.7856771,98.8046875 C19.4828125,98.4628906 16.1971354,97.5449219 13.7015625,95.1328125 C12.1020833,93.5800781 11.0132813,91.5683594 10.4544271,89.1171875 C13.3546875,87.9941406 15.4166667,85.1425781 15.4166667,81.8125 C15.4166667,77.4960938 11.9671875,74 7.70833333,74 C3.44947917,74 1.13686838e-13,77.4960938 1.13686838e-13,81.8125 C1.13686838e-13,85.3085938 2.26432292,88.2675781 5.39583333,89.2636719 L5.39583333,108.726562 C2.26432292,109.732422 1.13686838e-13,112.691406 1.13686838e-13,116.1875 C1.13686838e-13,120.503906 3.44947917,124 7.70833333,124 C11.9671875,124 15.4166667,120.503906 15.4166667,116.1875 C15.4166667,112.691406 13.1523438,109.732422 10.0208333,108.736328 L10.0208333,98.0332031 C10.175,98.1992188 10.3388021,98.3652344 10.5026042,98.5214844 C14.2893229,102.183594 19.2130208,103.267578 22.1807292,103.580078 C23.3466146,106.402344 26.0927083,108.384766 29.2916667,108.384766 C33.5505208,108.384766 37,104.888672 37,100.572266 C37,96.2558594 33.5505208,92.75 29.2916667,92.75 Z M7.70833333,78.6875 C9.40416667,78.6875 10.7916667,80.09375 10.7916667,81.8125 C10.7916667,83.53125 9.40416667,84.9375 7.70833333,84.9375 C6.0125,84.9375 4.625,83.53125 4.625,81.8125 C4.625,80.09375 6.0125,78.6875 7.70833333,78.6875 Z M7.70833333,119.3125 C6.0125,119.3125 4.625,117.90625 4.625,116.1875 C4.625,114.46875 6.0125,113.0625 7.70833333,113.0625 C9.40416667,113.0625 10.7916667,114.46875 10.7916667,116.1875 C10.7916667,117.90625 9.40416667,119.3125 7.70833333,119.3125 Z M29.2916667,103.6875 C27.5958333,103.6875 26.2083333,102.28125 26.2083333,100.5625 C26.2083333,98.84375 27.5958333,97.4375 29.2916667,97.4375 C30.9875,97.4375 32.375,98.84375 32.375,100.5625 C32.375,102.28125 30.9875,103.6875 29.2916667,103.6875 Z" id="Shape"></path>
                                <path d="M113,88.0625 C113,83.7460938 109.457292,80.25 105.083333,80.25 C100.709375,80.25 97.1666667,83.7460938 97.1666667,88.0625 C97.1666667,91.6171875 99.5713542,94.6152344 102.856771,95.5625 C102.797396,97.1347656 102.441146,98.3457031 101.768229,99.1660156 C100.244271,101.041016 96.8895833,101.353516 93.3369792,101.675781 C90.5463542,101.929688 87.6567708,102.203125 85.2916667,103.326172 L85.2916667,89.2636719 C88.5078125,88.2675781 90.8333333,85.3085938 90.8333333,81.8125 C90.8333333,77.4960938 87.290625,74 82.9166667,74 C78.5427083,74 75,77.4960938 75,81.8125 C75,85.3085938 77.3255208,88.2675781 80.5416667,89.2636719 L80.5416667,108.726562 C77.3255208,109.732422 75,112.691406 75,116.1875 C75,120.503906 78.5427083,124 82.9166667,124 C87.290625,124 90.8333333,120.503906 90.8333333,116.1875 C90.8333333,112.867188 88.7354167,110.025391 85.7666667,108.902344 C86.0734375,108.394531 86.5385417,107.945312 87.2411458,107.59375 C88.8442708,106.792969 91.2390625,106.578125 93.7822917,106.34375 C97.9583333,105.962891 102.688542,105.523438 105.479167,102.095703 C106.864583,100.396484 107.567188,98.2089844 107.616667,95.4648438 C110.74375,94.4199219 113,91.5 113,88.0625 Z M82.9166667,78.6875 C84.6583333,78.6875 86.0833333,80.09375 86.0833333,81.8125 C86.0833333,83.53125 84.6583333,84.9375 82.9166667,84.9375 C81.175,84.9375 79.75,83.53125 79.75,81.8125 C79.75,80.09375 81.175,78.6875 82.9166667,78.6875 Z M82.9166667,119.3125 C81.175,119.3125 79.75,117.90625 79.75,116.1875 C79.75,114.46875 81.175,113.0625 82.9166667,113.0625 C84.6583333,113.0625 86.0833333,114.46875 86.0833333,116.1875 C86.0833333,117.90625 84.6583333,119.3125 82.9166667,119.3125 Z M105.083333,91.1875 C103.341667,91.1875 101.916667,89.78125 101.916667,88.0625 C101.916667,86.34375 103.341667,84.9375 105.083333,84.9375 C106.825,84.9375 108.25,86.34375 108.25,88.0625 C108.25,89.78125 106.825,91.1875 105.083333,91.1875 Z" id="Shape"></path>
                            </g>
                            <g id="Tile-Copy-3" transform="translate(300.000000, 13.000000)">
                                <path d="M38,14.0625 C38,9.74609375 34.4572917,6.25 30.0833333,6.25 C25.709375,6.25 22.1666667,9.74609375 22.1666667,14.0625 C22.1666667,17.6171875 24.5713542,20.6152344 27.8567708,21.5625 C27.7973958,23.1347656 27.4411458,24.3457031 26.7682292,25.1660156 C25.2442708,27.0410156 21.8895833,27.3535156 18.3369792,27.6757812 C15.5463542,27.9296875 12.6567708,28.203125 10.2916667,29.3261719 L10.2916667,15.2636719 C13.5078125,14.2675781 15.8333333,11.3085937 15.8333333,7.8125 C15.8333333,3.49609375 12.290625,-2.27373675e-13 7.91666667,-2.27373675e-13 C3.54270833,-2.27373675e-13 0,3.49609375 0,7.8125 C0,11.3085937 2.32552083,14.2675781 5.54166667,15.2636719 L5.54166667,34.7265625 C2.32552083,35.7324219 0,38.6914062 0,42.1875 C0,46.5039062 3.54270833,50 7.91666667,50 C12.290625,50 15.8333333,46.5039062 15.8333333,42.1875 C15.8333333,38.8671875 13.7354167,36.0253906 10.7666667,34.9023437 C11.0734375,34.3945312 11.5385417,33.9453125 12.2411458,33.59375 C13.8442708,32.7929687 16.2390625,32.578125 18.7822917,32.34375 C22.9583333,31.9628906 27.6885417,31.5234375 30.4791667,28.0957031 C31.8645833,26.3964844 32.5671875,24.2089844 32.6166667,21.4648437 C35.74375,20.4199219 38,17.5 38,14.0625 Z M7.91666667,4.6875 C9.65833333,4.6875 11.0833333,6.09375 11.0833333,7.8125 C11.0833333,9.53125 9.65833333,10.9375 7.91666667,10.9375 C6.175,10.9375 4.75,9.53125 4.75,7.8125 C4.75,6.09375 6.175,4.6875 7.91666667,4.6875 Z M7.91666667,45.3125 C6.175,45.3125 4.75,43.90625 4.75,42.1875 C4.75,40.46875 6.175,39.0625 7.91666667,39.0625 C9.65833333,39.0625 11.0833333,40.46875 11.0833333,42.1875 C11.0833333,43.90625 9.65833333,45.3125 7.91666667,45.3125 Z M30.0833333,17.1875 C28.3416667,17.1875 26.9166667,15.78125 26.9166667,14.0625 C26.9166667,12.34375 28.3416667,10.9375 30.0833333,10.9375 C31.825,10.9375 33.25,12.34375 33.25,14.0625 C33.25,15.78125 31.825,17.1875 30.0833333,17.1875 Z" id="Shape"></path>
                            </g>
                        </g>
                    </g>
                    <g id="Group-2-Copy-4" transform="translate(0.000000, 1050.000000)">
                        <g id="Group-Copy-2" transform="translate(1200.000000, 0.000000)" fill="#FFFFFF" fill-rule="nonzero">
                            <g id="Tile" transform="translate(0.000000, 13.000000)">
                                <path d="M104.291667,18.75 C100.630208,18.75 97.5661458,21.3378906 96.7856771,24.8046875 C94.4828125,24.4628906 91.1971354,23.5449219 88.7015625,21.1328125 C87.1020833,19.5800781 86.0132813,17.5683594 85.4544271,15.1171875 C88.3546875,13.9941406 90.4166667,11.1425781 90.4166667,7.8125 C90.4166667,3.49609375 86.9671875,0 82.7083333,0 C78.4494792,0 75,3.49609375 75,7.8125 C75,11.3085938 77.2643229,14.2675781 80.3958333,15.2636719 L80.3958333,34.7265625 C77.2643229,35.7324219 75,38.6914062 75,42.1875 C75,46.5039062 78.4494792,50 82.7083333,50 C86.9671875,50 90.4166667,46.5039062 90.4166667,42.1875 C90.4166667,38.6914062 88.1523438,35.7324219 85.0208333,34.7363281 L85.0208333,24.0332031 C85.175,24.1992188 85.3388021,24.3652344 85.5026042,24.5214844 C89.2893229,28.1835938 94.2130208,29.2675781 97.1807292,29.5800781 C98.3466146,32.4023437 101.092708,34.3847656 104.291667,34.3847656 C108.550521,34.3847656 112,30.8886719 112,26.5722656 C112,22.2558594 108.550521,18.75 104.291667,18.75 Z M82.7083333,4.6875 C84.4041667,4.6875 85.7916667,6.09375 85.7916667,7.8125 C85.7916667,9.53125 84.4041667,10.9375 82.7083333,10.9375 C81.0125,10.9375 79.625,9.53125 79.625,7.8125 C79.625,6.09375 81.0125,4.6875 82.7083333,4.6875 Z M82.7083333,45.3125 C81.0125,45.3125 79.625,43.90625 79.625,42.1875 C79.625,40.46875 81.0125,39.0625 82.7083333,39.0625 C84.4041667,39.0625 85.7916667,40.46875 85.7916667,42.1875 C85.7916667,43.90625 84.4041667,45.3125 82.7083333,45.3125 Z M104.291667,29.6875 C102.595833,29.6875 101.208333,28.28125 101.208333,26.5625 C101.208333,24.84375 102.595833,23.4375 104.291667,23.4375 C105.9875,23.4375 107.375,24.84375 107.375,26.5625 C107.375,28.28125 105.9875,29.6875 104.291667,29.6875 Z" id="Shape"></path>
                                <path d="M38,14.0625 C38,9.74609375 34.4572917,6.25 30.0833333,6.25 C25.709375,6.25 22.1666667,9.74609375 22.1666667,14.0625 C22.1666667,17.6171875 24.5713542,20.6152344 27.8567708,21.5625 C27.7973958,23.1347656 27.4411458,24.3457031 26.7682292,25.1660156 C25.2442708,27.0410156 21.8895833,27.3535156 18.3369792,27.6757813 C15.5463542,27.9296875 12.6567708,28.203125 10.2916667,29.3261719 L10.2916667,15.2636719 C13.5078125,14.2675781 15.8333333,11.3085938 15.8333333,7.8125 C15.8333333,3.49609375 12.290625,0 7.91666667,0 C3.54270833,0 0,3.49609375 0,7.8125 C0,11.3085938 2.32552083,14.2675781 5.54166667,15.2636719 L5.54166667,34.7265625 C2.32552083,35.7324219 0,38.6914063 0,42.1875 C0,46.5039063 3.54270833,50 7.91666667,50 C12.290625,50 15.8333333,46.5039063 15.8333333,42.1875 C15.8333333,38.8671875 13.7354167,36.0253906 10.7666667,34.9023438 C11.0734375,34.3945313 11.5385417,33.9453125 12.2411458,33.59375 C13.8442708,32.7929688 16.2390625,32.578125 18.7822917,32.34375 C22.9583333,31.9628906 27.6885417,31.5234375 30.4791667,28.0957031 C31.8645833,26.3964844 32.5671875,24.2089844 32.6166667,21.4648438 C35.74375,20.4199219 38,17.5 38,14.0625 Z M7.91666667,4.6875 C9.65833333,4.6875 11.0833333,6.09375 11.0833333,7.8125 C11.0833333,9.53125 9.65833333,10.9375 7.91666667,10.9375 C6.175,10.9375 4.75,9.53125 4.75,7.8125 C4.75,6.09375 6.175,4.6875 7.91666667,4.6875 Z M7.91666667,45.3125 C6.175,45.3125 4.75,43.90625 4.75,42.1875 C4.75,40.46875 6.175,39.0625 7.91666667,39.0625 C9.65833333,39.0625 11.0833333,40.46875 11.0833333,42.1875 C11.0833333,43.90625 9.65833333,45.3125 7.91666667,45.3125 Z M30.0833333,17.1875 C28.3416667,17.1875 26.9166667,15.78125 26.9166667,14.0625 C26.9166667,12.34375 28.3416667,10.9375 30.0833333,10.9375 C31.825,10.9375 33.25,12.34375 33.25,14.0625 C33.25,15.78125 31.825,17.1875 30.0833333,17.1875 Z" id="Shape"></path>
                                <path d="M113,88.0625 C113,83.7460938 109.457292,80.25 105.083333,80.25 C100.709375,80.25 97.1666667,83.7460938 97.1666667,88.0625 C97.1666667,91.6171875 99.5713542,94.6152344 102.856771,95.5625 C102.797396,97.1347656 102.441146,98.3457031 101.768229,99.1660156 C100.244271,101.041016 96.8895833,101.353516 93.3369792,101.675781 C90.5463542,101.929688 87.6567708,102.203125 85.2916667,103.326172 L85.2916667,89.2636719 C88.5078125,88.2675781 90.8333333,85.3085938 90.8333333,81.8125 C90.8333333,77.4960938 87.290625,74 82.9166667,74 C78.5427083,74 75,77.4960938 75,81.8125 C75,85.3085938 77.3255208,88.2675781 80.5416667,89.2636719 L80.5416667,108.726562 C77.3255208,109.732422 75,112.691406 75,116.1875 C75,120.503906 78.5427083,124 82.9166667,124 C87.290625,124 90.8333333,120.503906 90.8333333,116.1875 C90.8333333,112.867188 88.7354167,110.025391 85.7666667,108.902344 C86.0734375,108.394531 86.5385417,107.945312 87.2411458,107.59375 C88.8442708,106.792969 91.2390625,106.578125 93.7822917,106.34375 C97.9583333,105.962891 102.688542,105.523438 105.479167,102.095703 C106.864583,100.396484 107.567187,98.2089844 107.616667,95.4648438 C110.74375,94.4199219 113,91.5 113,88.0625 Z M82.9166667,78.6875 C84.6583333,78.6875 86.0833333,80.09375 86.0833333,81.8125 C86.0833333,83.53125 84.6583333,84.9375 82.9166667,84.9375 C81.175,84.9375 79.75,83.53125 79.75,81.8125 C79.75,80.09375 81.175,78.6875 82.9166667,78.6875 Z M82.9166667,119.3125 C81.175,119.3125 79.75,117.90625 79.75,116.1875 C79.75,114.46875 81.175,113.0625 82.9166667,113.0625 C84.6583333,113.0625 86.0833333,114.46875 86.0833333,116.1875 C86.0833333,117.90625 84.6583333,119.3125 82.9166667,119.3125 Z M105.083333,91.1875 C103.341667,91.1875 101.916667,89.78125 101.916667,88.0625 C101.916667,86.34375 103.341667,84.9375 105.083333,84.9375 C106.825,84.9375 108.25,86.34375 108.25,88.0625 C108.25,89.78125 106.825,91.1875 105.083333,91.1875 Z" id="Shape"></path>
                            </g>
                            <g id="Tile-Copy" transform="translate(150.000000, 13.000000)">
                                <path d="M38,14.0625 C38,9.74609375 34.4572917,6.25 30.0833333,6.25 C25.709375,6.25 22.1666667,9.74609375 22.1666667,14.0625 C22.1666667,17.6171875 24.5713542,20.6152344 27.8567708,21.5625 C27.7973958,23.1347656 27.4411458,24.3457031 26.7682292,25.1660156 C25.2442708,27.0410156 21.8895833,27.3535156 18.3369792,27.6757813 C15.5463542,27.9296875 12.6567708,28.203125 10.2916667,29.3261719 L10.2916667,15.2636719 C13.5078125,14.2675781 15.8333333,11.3085938 15.8333333,7.8125 C15.8333333,3.49609375 12.290625,2.27373675e-13 7.91666667,2.27373675e-13 C3.54270833,2.27373675e-13 -1.13686838e-13,3.49609375 -1.13686838e-13,7.8125 C-1.13686838e-13,11.3085938 2.32552083,14.2675781 5.54166667,15.2636719 L5.54166667,34.7265625 C2.32552083,35.7324219 -1.13686838e-13,38.6914063 -1.13686838e-13,42.1875 C-1.13686838e-13,46.5039063 3.54270833,50 7.91666667,50 C12.290625,50 15.8333333,46.5039063 15.8333333,42.1875 C15.8333333,38.8671875 13.7354167,36.0253906 10.7666667,34.9023438 C11.0734375,34.3945313 11.5385417,33.9453125 12.2411458,33.59375 C13.8442708,32.7929688 16.2390625,32.578125 18.7822917,32.34375 C22.9583333,31.9628906 27.6885417,31.5234375 30.4791667,28.0957031 C31.8645833,26.3964844 32.5671875,24.2089844 32.6166667,21.4648438 C35.74375,20.4199219 38,17.5 38,14.0625 Z M7.91666667,4.6875 C9.65833333,4.6875 11.0833333,6.09375 11.0833333,7.8125 C11.0833333,9.53125 9.65833333,10.9375 7.91666667,10.9375 C6.175,10.9375 4.75,9.53125 4.75,7.8125 C4.75,6.09375 6.175,4.6875 7.91666667,4.6875 Z M7.91666667,45.3125 C6.175,45.3125 4.75,43.90625 4.75,42.1875 C4.75,40.46875 6.175,39.0625 7.91666667,39.0625 C9.65833333,39.0625 11.0833333,40.46875 11.0833333,42.1875 C11.0833333,43.90625 9.65833333,45.3125 7.91666667,45.3125 Z M30.0833333,17.1875 C28.3416667,17.1875 26.9166667,15.78125 26.9166667,14.0625 C26.9166667,12.34375 28.3416667,10.9375 30.0833333,10.9375 C31.825,10.9375 33.25,12.34375 33.25,14.0625 C33.25,15.78125 31.825,17.1875 30.0833333,17.1875 Z" id="Shape"></path>
                            </g>
                        </g>
                    </g>
                    <g id="Group-2-Copy-11" transform="translate(0.000000, 1200.000000)">
                        <g id="Group-Copy-2" transform="translate(1200.000000, 0.000000)"></g>
                    </g>
                    <g id="Group-2-Copy-10" transform="translate(-0.000000, 1350.000000)"></g>
                    <g id="Group-2-Copy-9" transform="translate(-0.000000, 1500.000000)"></g>
                </g>
            </g>
        </g>
    </g>
</svg>