<?xml version="1.0" encoding="UTF-8"?>
<svg width="320px" height="320px" viewBox="0 0 320 320" version="1.1" xmlns="http://www.w3.org/2000/svg" xmlns:xlink="http://www.w3.org/1999/xlink">
    <title>deep</title>
    <g id="deep" stroke="none" stroke-width="1" fill="none" fill-rule="evenodd">
        <g id="Group" transform="translate(29.997664, 29.999089)" fill="#683523" fill-rule="nonzero">
            <path d="M254.044433,49.0190019 L210.989125,5.95655645 C203.046245,-1.98430369 190.170836,-1.98430369 182.227956,5.95655645 L165.615025,22.5702798 C150.125085,37.9022566 146.27148,61.4664192 156.070344,80.9344374 L100.002336,137.000033 L123.017374,160.000911 L179.080296,103.940401 C198.542951,113.741016 222.1031,109.889081 237.431502,94.4003509 L254.044433,77.8069688 C257.859204,73.9922126 260.002336,68.8181749 260.002336,63.423156 C260.002336,58.028137 257.859204,52.8540993 254.044433,49.0393431 L254.044433,49.0190019 Z M214.426634,71.3943869 C207.268953,78.3333902 195.867836,78.2448243 188.818809,71.1954608 C181.769781,64.1460974 181.68122,52.7444368 188.619892,45.5864144 L196.603456,37.6024702 L222.410198,63.4104427 L214.426634,71.3943869 Z" id="Shape" opacity="0.4"></path>
            <path d="M146.242289,205.714134 L111.764307,240.19213 C86.3642906,265.592155 19.816248,263.204553 8.30496066,251.698341 C-3.2063267,240.19213 -5.58376822,173.644062 19.816248,148.244036 L54.2840701,113.760961 C60.632156,107.414228 70.9229988,107.414228 77.2710848,113.760961 L146.242289,182.727111 C152.589019,189.075199 152.589019,199.366046 146.242289,205.714134 Z" id="Path"></path>
        </g>
    </g>
</svg>