<?xml version="1.0" encoding="UTF-8"?>
<svg width="320px" height="320px" viewBox="0 0 320 320" version="1.1" xmlns="http://www.w3.org/2000/svg" xmlns:xlink="http://www.w3.org/1999/xlink">
    <title>developer</title>
    <g id="developer" stroke="none" stroke-width="1" fill="none" fill-rule="evenodd">
        <path d="M314.254419,147.678336 C321.183254,154.608651 321.183254,165.843342 314.254419,172.773657 L289.159099,197.868977 C285.825644,201.197306 283.952183,205.714363 283.951473,210.424957 L283.951473,231.216638 C283.951473,260.620776 260.11471,284.457539 230.710572,284.457539 L204.090121,284.457539 C199.189432,284.457539 195.216638,280.484745 195.216638,275.584055 L195.216638,257.837088 C195.216638,252.936399 199.189432,248.963605 204.090121,248.963605 L230.710572,248.963605 C240.511951,248.963605 248.457539,241.018017 248.457539,231.216638 L248.457539,210.430503 C248.458201,196.307673 254.070082,182.763749 264.058232,172.779203 L276.608666,160.228769 L264.063778,147.683882 C254.070875,137.697527 248.456729,124.14896 248.457539,110.02149 L248.457539,89.2409012 C248.457539,79.4395219 240.511951,71.4939341 230.710572,71.4939341 L204.090121,71.4939341 C199.189432,71.4939341 195.216638,67.5211402 195.216638,62.6204506 L195.216638,44.8734835 C195.216638,39.9727939 199.189432,36 204.090121,36 L230.710572,36 C260.11471,36 283.951473,59.8367634 283.951473,89.2409012 L283.951473,110.027036 C283.94924,114.738755 285.820772,119.257965 289.153553,122.588562 L314.248873,147.678336 L314.254419,147.678336 Z" id="Path" fill="#683523" fill-rule="nonzero" opacity="0.4"></path>
        <path d="M115.355286,36 L88.7348354,36 C59.3306975,36 35.4939341,59.8367634 35.4939341,89.2409012 L35.4939341,110.027036 C35.4888713,114.737303 33.6184491,119.253834 30.2918544,122.588562 L5.20207972,147.678336 C-1.72675495,154.608651 -1.72675495,165.843342 5.20207972,172.773657 L30.2974003,197.868977 C33.6242063,201.200847 35.4931214,205.716561 35.4939341,210.424957 L35.4939341,231.216638 C35.4939341,260.620776 59.3306975,284.457539 88.7348354,284.457539 L115.355286,284.457539 C120.255976,284.457539 124.228769,280.484745 124.228769,275.584055 L124.228769,257.837088 C124.228769,252.936399 120.255976,248.963605 115.355286,248.963605 L88.7348354,248.963605 C78.9334561,248.963605 70.9878683,241.018017 70.9878683,231.216638 L70.9878683,210.430503 C70.9872063,196.307673 65.3753255,182.763749 55.387175,172.779203 L42.8478336,160.228769 L55.3982669,147.678336 C65.3823499,137.691974 70.9901479,124.148274 70.9878683,110.027036 L70.9878683,89.2409012 C70.9878683,79.4395219 78.9334561,71.4939341 88.7348354,71.4939341 L115.355286,71.4939341 C120.255976,71.4939341 124.228769,67.5211402 124.228769,62.6204506 L124.228769,44.8734835 C124.228769,39.9727939 120.255976,36 115.355286,36 Z" id="Path" fill="#683523" fill-rule="nonzero"></path>
    </g>
</svg>