<?xml version="1.0" encoding="UTF-8"?>
<svg width="320px" height="320px" viewBox="0 0 320 320" version="1.1" xmlns="http://www.w3.org/2000/svg" xmlns:xlink="http://www.w3.org/1999/xlink">
    <title>exercises</title>
    <g id="exercises" stroke="none" stroke-width="1" fill="none" fill-rule="evenodd">
        <path d="M99.9329519,94.2658357 C98.3683524,95.8302529 95.8318048,95.8302529 94.2672054,94.2658357 L88.5964001,88.5951127 C87.8435771,87.8435675 87.4205389,86.8234928 87.4205389,85.7597511 C87.4205389,84.6960095 87.8435771,83.6759348 88.5964001,82.9243896 L119.788358,51.7480595 L102.775943,34.7004799 C96.5077082,28.4331734 86.3457799,28.4331734 80.0775455,34.7004799 L34.6959274,80.0763815 C28.4346909,86.3451005 28.4346909,96.500672 34.6959274,102.769391 L85.3689481,153.451794 L153.428728,85.3828833 L131.129969,63.0642124 L99.9329519,94.2658357 Z M284.302415,216.22938 L267.289999,199.212152 L236.087924,230.413775 C235.336367,231.166587 234.316278,231.589619 233.252521,231.589619 C232.188764,231.589619 231.168674,231.166587 230.417118,230.413775 L224.75643,224.753169 C224.003607,224.001624 223.580569,222.981549 223.580569,221.917808 C223.580569,220.854066 224.003607,219.833991 224.75643,219.082446 L255.958506,187.880823 L233.619277,165.567211 L165.539262,233.610829 L216.232517,284.298291 C219.240265,287.308604 223.321213,289 227.576657,289 C231.8321,289 235.913049,287.308604 238.920797,284.298291 L284.302415,238.91733 C290.565862,232.651502 290.565862,222.495208 284.302415,216.22938 Z" id="Shape" fill="#683523" fill-rule="nonzero" opacity="0.4"></path>
        <path d="M282.841309,60.0084309 L259.863885,37.1184302 C250.335564,27.6271899 234.887985,27.6271899 225.359664,37.1184302 L202.001398,60.3878232 L259.488121,117.650764 L282.846387,94.3813712 C287.427228,89.8257229 290.000952,83.6420036 290,77.1938519 C289.999047,70.7457002 287.423496,64.5627359 282.841309,60.0084309 L282.841309,60.0084309 Z M39.681763,222.064577 L30.1607308,276.413786 C29.5566268,279.861332 30.6766775,283.385876 33.1622904,285.859011 C35.6479033,288.332146 39.1872741,289.443632 42.6472472,288.837618 L97.2091091,279.307284 L247.981636,129.103352 L190.494913,71.84547 L39.681763,222.064577 Z" id="Shape" fill="#683523" fill-rule="nonzero"></path>
    </g>
</svg>