<?xml version="1.0" encoding="UTF-8"?>
<svg width="320px" height="320px" viewBox="0 0 320 320" version="1.1" xmlns="http://www.w3.org/2000/svg" xmlns:xlink="http://www.w3.org/1999/xlink">
    <title>benefits/intermediate</title>
    <g id="benefits/intermediate" stroke="none" stroke-width="1" fill="none" fill-rule="evenodd">
        <path d="M173.928571,215.714288 C173.928571,223.406825 167.692537,229.642859 160,229.642859 C152.307463,229.642859 146.071429,223.406825 146.071429,215.714288 L146.071429,191.733924 C135.152324,198.038074 129.828805,210.890189 133.092073,223.068869 C136.355341,235.247549 147.391702,243.716047 160,243.716047 C172.608298,243.716047 183.644659,235.247549 186.907927,223.068869 C190.171195,210.890189 184.847676,198.038074 173.928571,191.733924 L173.928571,215.714288 Z M104.285712,76.4285707 C88.9052809,76.4351375 76.4404594,88.9052821 76.4404594,104.285715 C76.4404594,119.666147 88.9052809,132.136292 104.285712,132.142859 C106.694645,132.110154 109.088823,131.760883 111.406701,131.104021 L94.4196414,114.151788 C88.9707598,108.702906 88.9707598,99.8685233 94.4196416,94.4196416 C99.8685233,88.9707598 108.702906,88.9707598 114.151788,94.4196414 L131.121429,111.389288 C131.770896,109.076246 132.114299,106.688035 132.142859,104.285712 C132.12686,88.9072676 119.664157,76.4445669 104.285712,76.4285707 L104.285712,76.4285707 Z M243.571429,30 L76.4285707,30 C50.7987121,30.0287858 30.0287858,50.7987121 30,76.4285707 L30,243.571429 C30.028783,269.201289 50.7987109,289.971217 76.4285707,290 L243.571429,290 C269.201291,289.971223 289.971223,269.201291 290,243.571429 L290,76.4285707 C289.971217,50.7987109 269.201289,30.028783 243.571429,30 Z M215.714288,150.714288 C208.273551,150.665783 200.956093,148.809528 194.391972,145.305354 L173.928571,165.76875 L173.928571,171.647771 C192.720538,177.590625 206.428571,194.960707 206.428571,215.714288 C206.428571,241.356079 185.641792,262.142859 160,262.142859 C134.358208,262.142859 113.571429,241.356079 113.571429,215.714288 C113.571429,194.960707 127.279462,177.590625 146.071429,171.647771 L146.071429,165.76875 L125.608038,145.305364 C119.043915,148.80954 111.726452,150.665792 104.285712,150.714288 C78.6439177,150.714288 57.8571363,129.927506 57.8571363,104.285712 C57.8571363,78.6439177 78.6439177,57.8571363 104.285712,57.8571363 C129.927506,57.8571363 150.714288,78.6439177 150.714288,104.285712 C150.663766,111.726907 148.805527,119.044343 145.299554,125.608038 L160,140.302679 L174.700446,125.608028 C171.194472,119.044337 169.336233,111.726904 169.285712,104.285712 C169.285712,78.6439177 190.072494,57.8571363 215.714288,57.8571363 C241.356082,57.8571363 262.142864,78.6439177 262.142864,104.285712 C262.142864,129.927506 241.356082,150.714288 215.714288,150.714288 L215.714288,150.714288 Z M215.714288,76.4285707 C200.335843,76.4445669 187.87314,88.9072676 187.857141,104.285712 C187.889849,106.694645 188.239124,109.088823 188.895989,111.406701 L205.848212,94.4196414 C209.373021,90.8948328 214.510541,89.5182382 219.325519,90.8084076 C224.140497,92.0985771 227.901423,95.859503 229.191592,100.674481 C230.481762,105.489459 229.105167,110.626979 225.580359,114.151788 L208.610722,131.121429 C210.923761,131.770897 213.311968,132.1143 215.714288,132.142859 C231.094719,132.136292 243.559541,119.666147 243.559541,104.285715 C243.559541,88.9052821 231.094719,76.4351375 215.714288,76.4285707 L215.714288,76.4285707 Z" id="Shape" fill="#683523" fill-rule="nonzero" opacity="0.4"></path>
        <path d="M225.922785,113.770311 L174.390393,165.305195 L174.390393,215.102953 C174.390393,222.77808 168.168775,229 160.49402,229 C152.819264,229 146.597646,222.77808 146.597646,215.102953 L146.597646,165.270453 L95.0652538,113.735569 C91.5547989,110.218738 90.1871209,105.096156 91.4774109,100.29745 C92.7677009,95.4987444 96.5199332,91.7529521 101.320678,90.4710772 C106.121423,89.1892022 111.241333,90.565992 114.751788,94.082823 L114.751788,94.082823 L160.49402,139.827276 L206.236251,94.082823 C211.672537,88.6462733 220.486499,88.6462733 225.922785,94.082823 C231.359072,99.5193728 231.359072,108.333762 225.922785,113.770311 Z" id="Path" fill="#683523" fill-rule="nonzero"></path>
    </g>
</svg>