<?xml version="1.0" encoding="UTF-8"?>
<svg width="320px" height="320px" viewBox="0 0 320 320" version="1.1" xmlns="http://www.w3.org/2000/svg" xmlns:xlink="http://www.w3.org/1999/xlink">
    <title>ivory</title>
    <g id="ivory" stroke="none" stroke-width="1" fill="none" fill-rule="evenodd">
        <g id="Group" transform="translate(30.000000, 38.334429)" fill="#683523" fill-rule="nonzero">
            <path d="M78,86.6657762 L78,190.665776 L112.666667,190.665776 L112.666667,86.6657762 L147.333333,86.6657762 L147.333333,190.665776 L182,190.665776 L182,86.6657762 L216.666667,86.6657762 L216.666667,190.665776 L236.166667,190.665776 C239.756518,190.665776 242.666667,193.575925 242.666667,197.165776 L242.666667,207.99911 L17.3333333,207.99911 L17.3333333,197.165776 C17.3333333,193.575925 20.2434825,190.665776 23.8333333,190.665776 L43.3333333,190.665776 L43.3333333,86.6657762 L78,86.6657762 Z" id="Path" opacity="0.4"></path>
            <path d="M257.324167,47.9961929 L131.6575,0.329526204 C130.596175,-0.109842068 129.403825,-0.109842068 128.3425,0.329526204 L2.67583333,47.9961929 C1.05645461,48.6665848 0,50.2464508 0,51.9991095 L0,60.6657762 C0,63.0590101 1.94009942,64.9991095 4.33333333,64.9991095 L17.3333333,64.9991095 L17.3333333,71.4991095 C17.3333333,75.0889604 20.2434825,77.9991095 23.8333333,77.9991095 L236.166667,77.9991095 C239.756518,77.9991095 242.666667,75.0889604 242.666667,71.4991095 L242.666667,64.9991095 L255.666667,64.9991095 C258.059901,64.9991095 260,63.0590101 260,60.6657762 L260,51.9991095 C260,50.2464508 258.943545,48.6665848 257.324167,47.9961929 L257.324167,47.9961929 Z M247,216.665776 L13,216.665776 C5.82029825,216.665776 0,222.486074 0,229.665776 L0,238.332443 C0,240.725677 1.94009942,242.665776 4.33333333,242.665776 L255.666667,242.665776 C258.059901,242.665776 260,240.725677 260,238.332443 L260,229.665776 C260,222.486074 254.179702,216.665776 247,216.665776 Z" id="Shape"></path>
        </g>
    </g>
</svg>