<?xml version="1.0" encoding="UTF-8"?>
<svg width="320px" height="320px" viewBox="0 0 320 320" version="1.1" xmlns="http://www.w3.org/2000/svg" xmlns:xlink="http://www.w3.org/1999/xlink">
    <title>no-cruft</title>
    <g id="no-cruft" stroke="none" stroke-width="1" fill="none" fill-rule="evenodd">
        <path d="M214.785714,101.437587 L183.178571,101.437587 L180.702679,96.506926 C179.63289,94.356796 177.43926,92.9983697 175.039732,93.000046 L144.933929,93.000046 C142.538914,92.9908758 140.349422,94.3530758 139.297321,96.506926 L136.821429,101.437587 L105.214286,101.437587 C102.8868,101.437587 101,103.326384 101,105.656334 L101,114.093828 C101,116.423778 102.8868,118.312575 105.214286,118.312575 L214.785714,118.312575 C217.1132,118.312575 219,116.423778 219,114.093828 L219,105.656334 C219,103.326384 217.1132,101.437587 214.785714,101.437587 Z M115.0125,216.134774 C115.429688,222.803785 120.954009,228 127.629018,228 L192.370982,228 C199.045991,228 204.570312,222.803785 204.9875,216.134774 L210.571429,126.750069 L109.428571,126.750069 L115.0125,216.134774 Z" id="Shape" fill="#683523" fill-rule="nonzero" opacity="0.396554129"></path>
        <path d="M160,30 C231.797017,30 290,88.2029825 290,160 C290,231.797017 231.797017,290 160,290 C88.2029825,290 30,231.797017 30,160 C30,88.2029825 88.2029825,30 160,30 Z M58,160 C58,216.333044 103.666956,262 160,262 C183.118302,262 204.440255,254.308917 221.546743,241.345869 L78.6541306,98.4532572 C65.6910826,115.559745 58,136.881698 58,160 Z M160,58 C136.881698,58 115.559745,65.6910826 98.4532572,78.6541306 L241.345869,221.546743 C254.308917,204.440255 262,183.118302 262,160 C262,103.666956 216.333044,58 160,58 Z" id="Combined-Shape" fill="#683523"></path>
    </g>
</svg>