<?xml version="1.0" encoding="UTF-8"?>
<svg width="320px" height="320px" viewBox="0 0 320 320" version="1.1" xmlns="http://www.w3.org/2000/svg" xmlns:xlink="http://www.w3.org/1999/xlink">
    <title>benefits/quick</title>
    <g id="benefits/quick" stroke="none" stroke-width="1" fill="none" fill-rule="evenodd">
        <path d="M75.2777778,244.711111 C72.6827473,246.338335 71.1083249,249.18699 71.1111074,252.25 L71.1111074,273.222222 C71.1111074,276.453762 72.8641128,279.430955 75.6904561,280.997682 C78.5167994,282.56441 81.9707729,282.473827 84.7111111,280.761111 L121.761111,258.611111 L95.1833333,232.027778 L75.2777778,244.711111 Z M306.816667,136.144444 L275.472222,116.911111 C275.438889,109.161111 274.2,99.8166667 271.538889,89.8722222 C265.255556,66.4055556 253.816667,49.0777778 245.983333,51.1722222 C238.15,53.2666667 236.911111,73.9944444 243.205556,97.4611111 C243.566667,98.8166667 244.005556,100.072222 244.4,101.383333 C241.565195,97.8283152 238.538472,94.4306694 235.333333,91.2055556 C218.166667,74.0277778 199.594444,64.7388889 193.888889,70.4444444 C188.183333,76.15 197.45,94.7388889 214.627778,111.922222 C220.864817,118.255263 227.845165,123.810442 235.416667,128.466667 C233.53786,131.7994 232.245017,135.429883 231.594444,139.2 C231.32791,140.911406 231.18864,142.64022 231.177778,144.372222 C202.522222,123.844444 145.327778,86.5555556 106.666667,86.5555556 C79.7048699,86.5557331 55.3373744,102.623727 44.7166667,127.405556 C39.1848438,140.311924 42.0669851,155.285858 51.9944444,165.216667 L144.116667,257.338889 C148.596342,261.817265 154.671256,264.333333 161.005556,264.333333 L240,264.333333 C244.909198,264.333333 248.888889,260.353642 248.888889,255.444444 L248.888889,246.555556 C248.888889,236.73716 240.929507,228.777778 231.111111,228.777778 L177.777778,228.777778 L177.777778,197.9 C177.720635,178.081065 164.595023,160.676051 145.555556,155.172222 L122,148.444444 C117.277965,147.097483 114.541928,142.17759 115.888889,137.455556 C117.23585,132.733521 122.155743,129.997483 126.877778,131.344444 L150.427778,138.072222 C177.088365,145.77881 195.46995,170.148044 195.555556,197.9 L195.555556,211 L231.111111,193.222222 L288.516667,193.222222 C302.196049,193.218472 314.307103,184.38035 318.483147,171.353985 C322.65919,158.32762 317.944143,144.09532 306.816667,136.138889 L306.816667,136.144444 Z M275.555556,157.666667 C270.646358,157.666667 266.666667,153.686976 266.666667,148.777778 C266.666667,143.86858 270.646358,139.888889 275.555556,139.888889 C280.464753,139.888889 284.444444,143.86858 284.444444,148.777778 C284.444444,153.686976 280.464753,157.666667 275.555556,157.666667 Z" id="Shape" fill="#683523" fill-rule="nonzero" opacity="0.4"></path>
        <path d="M9.7,110.411111 C-1.55475025,119.810449 -3.10896731,136.533301 6.22083423,147.845762 C15.5506358,159.158222 32.2635917,160.815466 43.6333333,151.555556 C41.0490339,143.635555 41.4340877,135.045892 44.7166667,127.388889 C46.1546462,124.043983 47.8601804,120.82056 49.8166667,117.75 C49.0620403,116.432491 48.1939358,115.183313 47.2222222,114.016667 C37.8529638,102.665999 21.0592598,101.052272 9.7,110.411111 L9.7,110.411111 Z M275.555556,139.888889 C270.646358,139.888889 266.666667,143.86858 266.666667,148.777778 C266.666667,153.686976 270.646358,157.666667 275.555556,157.666667 C280.464753,157.666667 284.444444,153.686976 284.444444,148.777778 C284.444444,143.86858 280.464753,139.888889 275.555556,139.888889 Z" id="Shape" fill="#683523" fill-rule="nonzero"></path>
    </g>
</svg>