<?xml version="1.0" encoding="UTF-8"?>
<svg width="320px" height="320px" viewBox="0 0 320 320" version="1.1" xmlns="http://www.w3.org/2000/svg" xmlns:xlink="http://www.w3.org/1999/xlink">
    <title>clone</title>
    <g id="clone" stroke="none" stroke-width="1" fill="none" fill-rule="evenodd">
        <ellipse id="Oval-Copy" fill-opacity="0.1" fill="#683523" cx="159.5" cy="160" rx="159.5" ry="160"></ellipse>
        <path d="M273.340104,103.734379 L255.996625,95.2070124 L255.996625,87.999625 C255.996625,81.3734785 250.622959,75.9998125 243.996813,75.9998125 L219.997188,75.9998125 C219.997188,69.373666 214.623522,64 207.997375,64 C201.371229,64 195.997563,69.373666 195.997563,75.9998125 L195.997563,104.806862 C189.423915,98.8369557 178.346588,98.8594553 171.765441,104.96436 C168.540492,101.904408 164.205559,99.9994375 159.394384,99.9994375 C154.718208,99.9994375 150.394525,101.799409 147.154576,104.799363 C143.914626,101.799409 139.718442,99.9994375 134.914767,99.9994375 C130.23859,99.9994375 125.914908,101.799409 122.798706,104.799363 C119.558757,101.799409 115.238824,99.9994375 110.558898,99.9994375 C105.638974,99.9994375 101.195294,102.039406 97.9553444,105.155607 C93.75916,101.675661 88.1192481,99.9994375 82.3593381,101.319417 C75.7631912,102.759394 70.7232699,107.675568 68.9195481,113.799222 C62.6796456,112.719239 56.0834987,114.999203 51.8798144,120.279121 C47.5598819,125.559038 46.8398931,132.518929 49.2436056,138.395088 C43.7199419,141.518789 40,147.394947 40,154.114842 C40,160.950985 43.8361901,166.834643 49.3561038,169.834596 C46.9523914,175.718254 47.7961282,182.670646 51.9998125,187.950563 C56.319745,193.234231 62.9158919,195.514195 69.1557944,194.430462 C70.6857705,199.534132 74.6457087,203.715317 79.8318776,205.781535 L77.5294136,211.923939 C75.8199389,216.481677 75.5374368,221.451621 76.7194263,226.173716 L83.0380775,251.452071 C83.7058954,254.122652 86.1051728,255.997 88.8579866,255.997 L113.5926,255.997 C117.496289,255.997 120.361244,252.329557 119.412509,248.542117 L112.546366,221.070046 L118.08128,206.310276 C119.855002,205.504039 121.538726,204.517804 122.918704,203.194075 C126.158654,206.194028 130.482336,207.99775 135.158513,207.99775 C139.83844,207.99775 144.158373,206.194028 147.398322,203.194075 C150.638271,206.194028 154.838206,207.99775 159.638131,207.99775 C164.333057,207.99775 168.589241,206.130279 171.784191,203.134076 C171.84794,203.194075 171.934189,203.212825 171.997938,203.272824 L171.997938,249.997094 C171.997938,253.312042 174.682896,255.997 177.997844,255.997 L201.997469,255.997 C205.312417,255.997 207.997375,253.312042 207.997375,249.997094 L207.997375,187.999313 L221.309667,179.123201 C227.985851,174.671833 231.996176,167.178859 231.997,159.154763 L231.997,135.998875 L264.868986,135.998875 C268.341432,135.998875 271.528882,134.161404 273.257605,131.146451 C276.103811,126.174029 280,118.602897 280,114.425462 C279.996927,109.884338 277.414738,105.739168 273.340104,103.734379 L273.340104,103.734379 Z M231.997,105.999344 C228.682052,105.999344 225.997094,103.314386 225.997094,99.9994375 C225.997094,96.6844893 228.682052,93.9995313 231.997,93.9995313 C235.311948,93.9995313 237.996906,96.6844893 237.996906,99.9994375 C237.996906,103.314386 235.311948,105.999344 231.997,105.999344 Z" id="Shape" fill="#683523" fill-rule="nonzero"></path>
    </g>
</svg>