<?xml version="1.0" encoding="UTF-8"?>
<svg width="320px" height="320px" viewBox="0 0 320 320" version="1.1" xmlns="http://www.w3.org/2000/svg" xmlns:xlink="http://www.w3.org/1999/xlink">
    <title>copy</title>
    <g id="copy" stroke="none" stroke-width="1" fill="none" fill-rule="evenodd">
        <ellipse id="Oval-Copy-3" fill-opacity="0.1" fill="#683523" cx="160.5" cy="160" rx="159.5" ry="160"></ellipse>
        <path d="M195.75,231.25 L195.75,246.09375 C195.75,251.012598 191.762598,255 186.84375,255 L85.90625,255 C80.9874023,255 77,251.012598 77,246.09375 L77,109.53125 C77,104.612402 80.9874023,100.625 85.90625,100.625 L112.625,100.625 L112.625,210.46875 C112.625,221.927754 121.947246,231.25 133.40625,231.25 L195.75,231.25 Z M195.75,103.59375 L195.75,65 L133.40625,65 C128.487402,65 124.5,68.9874023 124.5,73.90625 L124.5,210.46875 C124.5,215.387598 128.487402,219.375 133.40625,219.375 L234.34375,219.375 C239.262598,219.375 243.25,215.387598 243.25,210.46875 L243.25,112.5 L204.65625,112.5 C199.757813,112.5 195.75,108.492188 195.75,103.59375 Z M240.641582,92.079082 L216.170918,67.608418 C214.500697,65.9382828 212.235446,65 209.873457,65 L207.625,65 L207.625,100.625 L243.25,100.625 L243.25,98.376543 C243.25,96.0145543 242.311717,93.7493033 240.641582,92.079082 L240.641582,92.079082 Z" id="Shape" fill="#683523" fill-rule="nonzero"></path>
    </g>
</svg>