<?xml version="1.0" encoding="UTF-8"?>
<svg width="320px" height="320px" viewBox="0 0 320 320" version="1.1" xmlns="http://www.w3.org/2000/svg" xmlns:xlink="http://www.w3.org/1999/xlink">
    <title>person</title>
    <g id="person" stroke="none" stroke-width="1" fill="none" fill-rule="evenodd">
        <ellipse id="Oval-Copy-2" fill-opacity="0.1" fill="#683523" cx="160.5" cy="160" rx="159.5" ry="160"></ellipse>
        <path d="M126.274838,245.223724 C126.279135,247.926397 127.078335,250.573211 128.57791,252.824722 L135.921102,263.863142 C138.468881,267.695672 142.765601,269.998939 147.367715,269.998939 L173.883125,269.998939 C178.48524,269.998939 182.781959,267.695672 185.329738,263.863142 L192.67293,252.824722 C194.171858,250.572888 194.973,247.928819 194.976002,245.223724 L194.99319,228.745585 L126.253354,228.745585 L126.274838,245.223724 Z M85,125.622942 C85,144.687741 92.0681979,162.081093 103.71676,175.371024 C110.815035,183.470448 121.917906,200.391155 126.150232,214.665048 C126.167419,214.776764 126.180309,214.88848 126.197496,215.000196 L195.049048,215.000196 C195.066235,214.88848 195.079125,214.781061 195.096312,214.665048 C199.328637,200.391155 210.431509,183.470448 217.529784,175.371024 C229.178346,162.081093 236.246544,144.687741 236.246544,125.622942 C236.246544,83.7766325 202.263336,49.8707667 160.386949,49.9993036 C116.555529,50.13287 85,85.6500271 85,125.622942 Z M160.623272,91.2487273 C141.670189,91.2487273 126.249057,106.669859 126.249057,125.622942 C126.249057,129.421293 123.172565,132.497785 119.374214,132.497785 C115.575864,132.497785 112.499372,129.421293 112.499372,125.622942 C112.499372,99.0860482 134.086378,77.4990415 160.623272,77.4990415 C164.421623,77.4990415 167.498115,80.5755337 167.498115,84.3738844 C167.498115,88.1722351 164.421623,91.2487273 160.623272,91.2487273 Z" id="Shape" fill="#683523" fill-rule="nonzero"></path>
    </g>
</svg>