<?xml version="1.0" encoding="UTF-8"?>
<svg width="320px" height="320px" viewBox="0 0 320 320" version="1.1" xmlns="http://www.w3.org/2000/svg" xmlns:xlink="http://www.w3.org/1999/xlink">
    <title>fix</title>
    <g id="fix" stroke="none" stroke-width="1" fill="none" fill-rule="evenodd">
        <ellipse id="Oval-Copy-2" fill-opacity="0.1" fill="#683523" cx="160.5" cy="160" rx="159.5" ry="160"></ellipse>
        <path d="M278.210511,136.630287 L269.567058,127.986835 C267.179892,125.599668 263.310772,125.599668 260.923606,127.986835 L256.603789,132.306651 L245.565531,121.268393 C247.715891,113.12911 245.703032,104.118989 239.320704,97.7366606 L222.037618,80.4535751 C198.173592,56.589549 159.478578,56.589549 135.610733,80.4535751 L170.180723,97.7366606 L170.180723,104.89816 C170.180723,111.379795 172.755043,117.597886 177.342222,122.181246 L196.11108,140.950104 C202.493409,147.332432 211.50353,149.345291 219.642813,147.194931 L230.681071,158.233189 L226.361254,162.553006 C223.974088,164.940172 223.974088,168.809292 226.361254,171.196458 L235.004707,179.839911 C237.391873,182.227077 241.260993,182.227077 243.648159,179.839911 L278.21815,145.26992 C280.597677,142.886573 280.597677,139.017454 278.210511,136.630287 L278.210511,136.630287 Z M168.69877,130.824698 C167.285567,129.411496 166.086255,127.849334 164.936596,126.260436 L67.5020076,217.228667 C57.7356319,226.349553 57.4720888,241.745822 66.9176292,251.195182 C76.3631696,260.644542 91.7632582,260.380999 100.884144,250.610804 L191.837097,153.187674 C190.324589,152.076209 188.819719,150.945647 187.467628,149.593556 L168.69877,130.824698 L168.69877,130.824698 Z" id="Shape" fill="#683523" fill-rule="nonzero"></path>
    </g>
</svg>