<?xml version="1.0" encoding="UTF-8"?>
<svg width="320px" height="320px" viewBox="0 0 320 320" version="1.1" xmlns="http://www.w3.org/2000/svg" xmlns:xlink="http://www.w3.org/1999/xlink">
    <title>speed</title>
    <g id="speed" stroke="none" stroke-width="1" fill="none" fill-rule="evenodd">
        <ellipse id="Oval" fill-opacity="0.1" fill="#683523" cx="159.5" cy="160" rx="159.5" ry="160"></ellipse>
        <path d="M160,50.1111111 C99.2479167,50.1111111 50,99.3590278 50,160.111111 C50,180.277778 55.4427083,199.16875 64.91875,215.416667 C67.0614583,219.090972 71.1444444,221.222222 75.3993056,221.222222 L244.600694,221.222222 C248.855556,221.222222 252.938542,219.090972 255.08125,215.416667 C264.557292,199.16875 270,180.277778 270,160.111111 C270,99.3590278 220.752083,50.1111111 160,50.1111111 Z M222.333333,116.726042 L180.873264,172.004861 C183.092361,175.682986 184.444444,179.945486 184.444444,184.555556 C184.444444,189.031944 183.153472,193.168403 181.052778,196.777778 L138.947222,196.777778 C136.846528,193.168403 135.555556,189.031944 135.555556,184.555556 C135.555556,171.053819 146.498264,160.111111 160,160.111111 C162.157986,160.111111 164.209028,160.477778 166.202778,161.004861 L207.666667,105.718403 C210.714583,101.685069 216.451389,100.860069 220.503819,103.885069 C224.548611,106.925347 225.373611,112.673611 222.333333,116.726042 L222.333333,116.726042 Z" id="Shape" fill="#683523" fill-rule="nonzero"></path>
    </g>
</svg>