<?xml version="1.0" encoding="UTF-8"?>
<svg width="320px" height="320px" viewBox="0 0 320 320" version="1.1" xmlns="http://www.w3.org/2000/svg" xmlns:xlink="http://www.w3.org/1999/xlink">
    <title>undo</title>
    <g id="undo" stroke="none" stroke-width="1" fill="none" fill-rule="evenodd">
        <ellipse id="Oval-Copy" fill-opacity="0.1" fill="#683523" cx="160.5" cy="160" rx="159.5" ry="160"></ellipse>
        <path d="M160.816532,60 C134.095161,60.0481464 109.833468,70.5779766 91.921371,87.6957046 L77.5205645,73.2949098 C71.4237903,67.1981406 61,71.515879 61,80.1376462 L61,134.193651 C61,139.538404 65.3326613,143.871062 70.6774194,143.871062 L124.733468,143.871062 C133.355242,143.871062 137.672984,133.44728 131.576613,127.350511 L114.741935,110.515847 C127.187097,98.8630342 143.290726,92.4082008 160.399194,92.2606202 C197.656452,91.9388463 229.061694,122.090031 228.739516,160.583952 C228.433871,197.100454 198.829032,227.741962 161,227.741962 C144.416532,227.741962 128.743145,221.823418 116.391129,210.985524 C114.478629,209.307702 111.590323,209.409719 109.791129,211.208507 L93.7983871,227.201236 C91.833871,229.165751 91.9310484,232.368571 93.9927419,234.230666 C111.725,250.247185 135.223387,260 161,260 C216.228226,260 261,215.228665 261,160.000888 C261,104.836013 215.981452,59.9013723 160.816532,60 Z" id="Path" fill="#683523" fill-rule="nonzero"></path>
    </g>
</svg>