<?xml version="1.0" encoding="UTF-8"?>
<svg width="110px" height="110px" viewBox="0 0 110 110" version="1.1" xmlns="http://www.w3.org/2000/svg" xmlns:xlink="http://www.w3.org/1999/xlink">
    <title>background-tile</title>
    <g id="background-tile" stroke="none" stroke-width="1" fill="none" fill-rule="evenodd" opacity="0.102608817">
        <path d="M47,16.0625 C47,11.7460938 43.4572917,8.25 39.0833333,8.25 C34.709375,8.25 31.1666667,11.7460938 31.1666667,16.0625 C31.1666667,19.6171875 33.5713542,22.6152344 36.8567708,23.5625 C36.7973958,25.1347656 36.4411458,26.3457031 35.7682292,27.1660156 C34.2442708,29.0410156 30.8895833,29.3535156 27.3369792,29.6757813 C24.5463542,29.9296875 21.6567708,30.203125 19.2916667,31.3261719 L19.2916667,17.2636719 C22.5078125,16.2675781 24.8333333,13.3085938 24.8333333,9.8125 C24.8333333,5.49609375 21.290625,2 16.9166667,2 C12.5427083,2 9,5.49609375 9,9.8125 C9,13.3085938 11.3255208,16.2675781 14.5416667,17.2636719 L14.5416667,36.7265625 C11.3255208,37.7324219 9,40.6914063 9,44.1875 C9,48.5039063 12.5427083,52 16.9166667,52 C21.290625,52 24.8333333,48.5039063 24.8333333,44.1875 C24.8333333,40.8671875 22.7354167,38.0253906 19.7666667,36.9023438 C20.0734375,36.3945313 20.5385417,35.9453125 21.2411458,35.59375 C22.8442708,34.7929688 25.2390625,34.578125 27.7822917,34.34375 C31.9583333,33.9628906 36.6885417,33.5234375 39.4791667,30.0957031 C40.8645833,28.3964844 41.5671875,26.2089844 41.6166667,23.4648438 C44.74375,22.4199219 47,19.5 47,16.0625 Z M16.9166667,6.6875 C18.6583333,6.6875 20.0833333,8.09375 20.0833333,9.8125 C20.0833333,11.53125 18.6583333,12.9375 16.9166667,12.9375 C15.175,12.9375 13.75,11.53125 13.75,9.8125 C13.75,8.09375 15.175,6.6875 16.9166667,6.6875 Z M16.9166667,47.3125 C15.175,47.3125 13.75,45.90625 13.75,44.1875 C13.75,42.46875 15.175,41.0625 16.9166667,41.0625 C18.6583333,41.0625 20.0833333,42.46875 20.0833333,44.1875 C20.0833333,45.90625 18.6583333,47.3125 16.9166667,47.3125 Z M39.0833333,19.1875 C37.3416667,19.1875 35.9166667,17.78125 35.9166667,16.0625 C35.9166667,14.34375 37.3416667,12.9375 39.0833333,12.9375 C40.825,12.9375 42.25,14.34375 42.25,16.0625 C42.25,17.78125 40.825,19.1875 39.0833333,19.1875 Z" id="Shape" fill="#FFFFFF" fill-rule="nonzero" transform="translate(28.000000, 27.000000) rotate(-45.000000) translate(-28.000000, -27.000000) "></path>
        <path d="M98.2916667,75.75 C94.6302083,75.75 91.5661458,78.3378906 90.7856771,81.8046875 C88.4828125,81.4628906 85.1971354,80.5449219 82.7015625,78.1328125 C81.1020833,76.5800781 80.0132813,74.5683594 79.4544271,72.1171875 C82.3546875,70.9941406 84.4166667,68.1425781 84.4166667,64.8125 C84.4166667,60.4960938 80.9671875,57 76.7083333,57 C72.4494792,57 69,60.4960938 69,64.8125 C69,68.3085938 71.2643229,71.2675781 74.3958333,72.2636719 L74.3958333,91.7265625 C71.2643229,92.7324219 69,95.6914062 69,99.1875 C69,103.503906 72.4494792,107 76.7083333,107 C80.9671875,107 84.4166667,103.503906 84.4166667,99.1875 C84.4166667,95.6914062 82.1523438,92.7324219 79.0208333,91.7363281 L79.0208333,81.0332031 C79.175,81.1992188 79.3388021,81.3652344 79.5026042,81.5214844 C83.2893229,85.1835938 88.2130208,86.2675781 91.1807292,86.5800781 C92.3466146,89.4023438 95.0927083,91.3847656 98.2916667,91.3847656 C102.550521,91.3847656 106,87.8886719 106,83.5722656 C106,79.2558594 102.550521,75.75 98.2916667,75.75 Z M76.7083333,61.6875 C78.4041667,61.6875 79.7916667,63.09375 79.7916667,64.8125 C79.7916667,66.53125 78.4041667,67.9375 76.7083333,67.9375 C75.0125,67.9375 73.625,66.53125 73.625,64.8125 C73.625,63.09375 75.0125,61.6875 76.7083333,61.6875 Z M76.7083333,102.3125 C75.0125,102.3125 73.625,100.90625 73.625,99.1875 C73.625,97.46875 75.0125,96.0625 76.7083333,96.0625 C78.4041667,96.0625 79.7916667,97.46875 79.7916667,99.1875 C79.7916667,100.90625 78.4041667,102.3125 76.7083333,102.3125 Z M98.2916667,86.6875 C96.5958333,86.6875 95.2083333,85.28125 95.2083333,83.5625 C95.2083333,81.84375 96.5958333,80.4375 98.2916667,80.4375 C99.9875,80.4375 101.375,81.84375 101.375,83.5625 C101.375,85.28125 99.9875,86.6875 98.2916667,86.6875 Z" id="Shape-Copy" fill="#FFFFFF" fill-rule="nonzero" transform="translate(87.500000, 82.000000) rotate(-45.000000) translate(-87.500000, -82.000000) "></path>
    </g>
</svg>