<?xml version="1.0" encoding="UTF-8"?>
<svg width="150px" height="150px" viewBox="0 0 150 150" version="1.1" xmlns="http://www.w3.org/2000/svg" xmlns:xlink="http://www.w3.org/1999/xlink">
    <title>background-tile</title>
    <g id="background-tile" stroke="none" stroke-width="1" fill="none" fill-rule="evenodd" opacity="0.097563244">
        <path d="M123.291667,31.75 C119.630208,31.75 116.566146,34.3378906 115.785677,37.8046875 C113.482812,37.4628906 110.197135,36.5449219 107.701562,34.1328125 C106.102083,32.5800781 105.013281,30.5683594 104.454427,28.1171875 C107.354687,26.9941406 109.416667,24.1425781 109.416667,20.8125 C109.416667,16.4960938 105.967187,13 101.708333,13 C97.4494792,13 94,16.4960938 94,20.8125 C94,24.3085938 96.2643229,27.2675781 99.3958333,28.2636719 L99.3958333,47.7265625 C96.2643229,48.7324219 94,51.6914063 94,55.1875 C94,59.5039063 97.4494792,63 101.708333,63 C105.967187,63 109.416667,59.5039063 109.416667,55.1875 C109.416667,51.6914063 107.152344,48.7324219 104.020833,47.7363281 L104.020833,37.0332031 C104.175,37.1992188 104.338802,37.3652344 104.502604,37.5214844 C108.289323,41.1835938 113.213021,42.2675781 116.180729,42.5800781 C117.346615,45.4023438 120.092708,47.3847656 123.291667,47.3847656 C127.550521,47.3847656 131,43.8886719 131,39.5722656 C131,35.2558594 127.550521,31.75 123.291667,31.75 Z M101.708333,17.6875 C103.404167,17.6875 104.791667,19.09375 104.791667,20.8125 C104.791667,22.53125 103.404167,23.9375 101.708333,23.9375 C100.0125,23.9375 98.625,22.53125 98.625,20.8125 C98.625,19.09375 100.0125,17.6875 101.708333,17.6875 Z M101.708333,58.3125 C100.0125,58.3125 98.625,56.90625 98.625,55.1875 C98.625,53.46875 100.0125,52.0625 101.708333,52.0625 C103.404167,52.0625 104.791667,53.46875 104.791667,55.1875 C104.791667,56.90625 103.404167,58.3125 101.708333,58.3125 Z M123.291667,42.6875 C121.595833,42.6875 120.208333,41.28125 120.208333,39.5625 C120.208333,37.84375 121.595833,36.4375 123.291667,36.4375 C124.9875,36.4375 126.375,37.84375 126.375,39.5625 C126.375,41.28125 124.9875,42.6875 123.291667,42.6875 Z" id="Shape" fill="#FFFFFF" fill-rule="nonzero" transform="translate(112.500000, 38.000000) rotate(-45.000000) translate(-112.500000, -38.000000) "></path>
        <path d="M57,27.0625 C57,22.7460938 53.4572917,19.25 49.0833333,19.25 C44.709375,19.25 41.1666667,22.7460938 41.1666667,27.0625 C41.1666667,30.6171875 43.5713542,33.6152344 46.8567708,34.5625 C46.7973958,36.1347656 46.4411458,37.3457031 45.7682292,38.1660156 C44.2442708,40.0410156 40.8895833,40.3535156 37.3369792,40.6757813 C34.5463542,40.9296875 31.6567708,41.203125 29.2916667,42.3261719 L29.2916667,28.2636719 C32.5078125,27.2675781 34.8333333,24.3085938 34.8333333,20.8125 C34.8333333,16.4960938 31.290625,13 26.9166667,13 C22.5427083,13 19,16.4960938 19,20.8125 C19,24.3085938 21.3255208,27.2675781 24.5416667,28.2636719 L24.5416667,47.7265625 C21.3255208,48.7324219 19,51.6914063 19,55.1875 C19,59.5039063 22.5427083,63 26.9166667,63 C31.290625,63 34.8333333,59.5039063 34.8333333,55.1875 C34.8333333,51.8671875 32.7354167,49.0253906 29.7666667,47.9023438 C30.0734375,47.3945313 30.5385417,46.9453125 31.2411458,46.59375 C32.8442708,45.7929688 35.2390625,45.578125 37.7822917,45.34375 C41.9583333,44.9628906 46.6885417,44.5234375 49.4791667,41.0957031 C50.8645833,39.3964844 51.5671875,37.2089844 51.6166667,34.4648438 C54.74375,33.4199219 57,30.5 57,27.0625 Z M26.9166667,17.6875 C28.6583333,17.6875 30.0833333,19.09375 30.0833333,20.8125 C30.0833333,22.53125 28.6583333,23.9375 26.9166667,23.9375 C25.175,23.9375 23.75,22.53125 23.75,20.8125 C23.75,19.09375 25.175,17.6875 26.9166667,17.6875 Z M26.9166667,58.3125 C25.175,58.3125 23.75,56.90625 23.75,55.1875 C23.75,53.46875 25.175,52.0625 26.9166667,52.0625 C28.6583333,52.0625 30.0833333,53.46875 30.0833333,55.1875 C30.0833333,56.90625 28.6583333,58.3125 26.9166667,58.3125 Z M49.0833333,30.1875 C47.3416667,30.1875 45.9166667,28.78125 45.9166667,27.0625 C45.9166667,25.34375 47.3416667,23.9375 49.0833333,23.9375 C50.825,23.9375 52.25,25.34375 52.25,27.0625 C52.25,28.78125 50.825,30.1875 49.0833333,30.1875 Z" id="Shape" fill="#FFFFFF" fill-rule="nonzero" transform="translate(38.000000, 38.000000) rotate(-45.000000) translate(-38.000000, -38.000000) "></path>
        <path d="M48.2916667,105.75 C44.6302083,105.75 41.5661458,108.337891 40.7856771,111.804688 C38.4828125,111.462891 35.1971354,110.544922 32.7015625,108.132813 C31.1020833,106.580078 30.0132812,104.568359 29.4544271,102.117188 C32.3546875,100.994141 34.4166667,98.1425781 34.4166667,94.8125 C34.4166667,90.4960938 30.9671875,87 26.7083333,87 C22.4494792,87 19,90.4960938 19,94.8125 C19,98.3085938 21.2643229,101.267578 24.3958333,102.263672 L24.3958333,121.726563 C21.2643229,122.732422 19,125.691406 19,129.1875 C19,133.503906 22.4494792,137 26.7083333,137 C30.9671875,137 34.4166667,133.503906 34.4166667,129.1875 C34.4166667,125.691406 32.1523437,122.732422 29.0208333,121.736328 L29.0208333,111.033203 C29.175,111.199219 29.3388021,111.365234 29.5026042,111.521484 C33.2893229,115.183594 38.2130208,116.267578 41.1807292,116.580078 C42.3466146,119.402344 45.0927083,121.384766 48.2916667,121.384766 C52.5505208,121.384766 56,117.888672 56,113.572266 C56,109.255859 52.5505208,105.75 48.2916667,105.75 Z M26.7083333,91.6875 C28.4041667,91.6875 29.7916667,93.09375 29.7916667,94.8125 C29.7916667,96.53125 28.4041667,97.9375 26.7083333,97.9375 C25.0125,97.9375 23.625,96.53125 23.625,94.8125 C23.625,93.09375 25.0125,91.6875 26.7083333,91.6875 Z M26.7083333,132.3125 C25.0125,132.3125 23.625,130.90625 23.625,129.1875 C23.625,127.46875 25.0125,126.0625 26.7083333,126.0625 C28.4041667,126.0625 29.7916667,127.46875 29.7916667,129.1875 C29.7916667,130.90625 28.4041667,132.3125 26.7083333,132.3125 Z M48.2916667,116.6875 C46.5958333,116.6875 45.2083333,115.28125 45.2083333,113.5625 C45.2083333,111.84375 46.5958333,110.4375 48.2916667,110.4375 C49.9875,110.4375 51.375,111.84375 51.375,113.5625 C51.375,115.28125 49.9875,116.6875 48.2916667,116.6875 Z" id="Shape" fill="#FFFFFF" fill-rule="nonzero" transform="translate(37.500000, 112.000000) rotate(-45.000000) translate(-37.500000, -112.000000) "></path>
        <path d="M132,101.0625 C132,96.7460938 128.457292,93.25 124.083333,93.25 C119.709375,93.25 116.166667,96.7460938 116.166667,101.0625 C116.166667,104.617188 118.571354,107.615234 121.856771,108.5625 C121.797396,110.134766 121.441146,111.345703 120.768229,112.166016 C119.244271,114.041016 115.889583,114.353516 112.336979,114.675781 C109.546354,114.929688 106.656771,115.203125 104.291667,116.326172 L104.291667,102.263672 C107.507813,101.267578 109.833333,98.3085938 109.833333,94.8125 C109.833333,90.4960938 106.290625,87 101.916667,87 C97.5427083,87 94,90.4960938 94,94.8125 C94,98.3085938 96.3255208,101.267578 99.5416667,102.263672 L99.5416667,121.726563 C96.3255208,122.732422 94,125.691406 94,129.1875 C94,133.503906 97.5427083,137 101.916667,137 C106.290625,137 109.833333,133.503906 109.833333,129.1875 C109.833333,125.867188 107.735417,123.025391 104.766667,121.902344 C105.073438,121.394531 105.538542,120.945313 106.241146,120.59375 C107.844271,119.792969 110.239063,119.578125 112.782292,119.34375 C116.958333,118.962891 121.688542,118.523438 124.479167,115.095703 C125.864583,113.396484 126.567188,111.208984 126.616667,108.464844 C129.74375,107.419922 132,104.5 132,101.0625 Z M101.916667,91.6875 C103.658333,91.6875 105.083333,93.09375 105.083333,94.8125 C105.083333,96.53125 103.658333,97.9375 101.916667,97.9375 C100.175,97.9375 98.75,96.53125 98.75,94.8125 C98.75,93.09375 100.175,91.6875 101.916667,91.6875 Z M101.916667,132.3125 C100.175,132.3125 98.75,130.90625 98.75,129.1875 C98.75,127.46875 100.175,126.0625 101.916667,126.0625 C103.658333,126.0625 105.083333,127.46875 105.083333,129.1875 C105.083333,130.90625 103.658333,132.3125 101.916667,132.3125 Z M124.083333,104.1875 C122.341667,104.1875 120.916667,102.78125 120.916667,101.0625 C120.916667,99.34375 122.341667,97.9375 124.083333,97.9375 C125.825,97.9375 127.25,99.34375 127.25,101.0625 C127.25,102.78125 125.825,104.1875 124.083333,104.1875 Z" id="Shape" fill="#FFFFFF" fill-rule="nonzero" transform="translate(113.000000, 112.000000) rotate(-45.000000) translate(-113.000000, -112.000000) "></path>
    </g>
</svg>