<?xml version="1.0" encoding="UTF-8"?>
<svg width="156px" height="6px" viewBox="0 0 156 6" version="1.1" xmlns="http://www.w3.org/2000/svg" xmlns:xlink="http://www.w3.org/1999/xlink">
    <title>strike</title>
    <g id="strike" stroke="none" stroke-width="1" fill="none" fill-rule="evenodd">
        <path d="M48.6142163,6 C49.5643985,6 50.1324423,5.51086957 50.3183475,4.5326087 L50.3183475,4.5326087 L50.9380316,1.85869565 C50.9793439,1.75 51,1.65217391 51,1.56521739 L51,1.56521739 L51,1.30434783 C51,0.434782609 50.5145808,0 49.5437424,0 L49.5437424,0 L2.41676792,0 C1.46658566,0 0.888213852,0.489130435 0.681652491,1.4673913 L0.681652491,1.4673913 L0.0619684083,4.10869565 C0.0206561361,4.2173913 0,4.32065217 0,4.41847826 L0,4.41847826 L0,4.66304348 C0,5.55434783 0.485419198,6 1.45625759,6 L1.45625759,6 L48.6142163,6 Z" id="—" fill="#683523" fill-rule="nonzero"></path>
        <path d="M82.6142163,6 C83.5643985,6 84.1324423,5.51086957 84.3183475,4.5326087 L84.3183475,4.5326087 L84.9380316,1.85869565 C84.9793439,1.75 85,1.65217391 85,1.56521739 L85,1.56521739 L85,1.30434783 C85,0.434782609 84.5145808,0 83.5437424,0 L83.5437424,0 L36.4167679,0 C35.4665857,0 34.8882139,0.489130435 34.6816525,1.4673913 L34.6816525,1.4673913 L34.0619684,4.10869565 C34.0206561,4.2173913 34,4.32065217 34,4.41847826 L34,4.41847826 L34,4.66304348 C34,5.55434783 34.4854192,6 35.4562576,6 L35.4562576,6 L82.6142163,6 Z" id="—-copy" fill="#683523" fill-rule="nonzero"></path>
        <path d="M131.614216,6 C132.564399,6 133.132442,5.51086957 133.318348,4.5326087 L133.318348,4.5326087 L133.938032,1.85869565 C133.979344,1.75 134,1.65217391 134,1.56521739 L134,1.56521739 L134,1.30434783 C134,0.434782609 133.514581,0 132.543742,0 L132.543742,0 L85.4167679,0 C84.4665857,0 83.8882139,0.489130435 83.6816525,1.4673913 L83.6816525,1.4673913 L83.0619684,4.10869565 C83.0206561,4.2173913 83,4.32065217 83,4.41847826 L83,4.41847826 L83,4.66304348 C83,5.55434783 83.4854192,6 84.4562576,6 L84.4562576,6 L131.614216,6 Z" id="—-copy-2" fill="#683523" fill-rule="nonzero"></path>
        <path d="M153.614216,6 C154.564399,6 155.132442,5.51086957 155.318348,4.5326087 L155.318348,4.5326087 L155.938032,1.85869565 C155.979344,1.75 156,1.65217391 156,1.56521739 L156,1.56521739 L156,1.30434783 C156,0.434782609 155.514581,0 154.543742,0 L154.543742,0 L107.416768,0 C106.466586,0 105.888214,0.489130435 105.681652,1.4673913 L105.681652,1.4673913 L105.061968,4.10869565 C105.020656,4.2173913 105,4.32065217 105,4.41847826 L105,4.41847826 L105,4.66304348 C105,5.55434783 105.485419,6 106.456258,6 L106.456258,6 L153.614216,6 Z" id="—-copy-3" fill="#683523" fill-rule="nonzero"></path>
    </g>
</svg>