<?xml version="1.0" encoding="UTF-8"?>
<svg width="156px" height="7px" viewBox="0 0 156 7" version="1.1" xmlns="http://www.w3.org/2000/svg" xmlns:xlink="http://www.w3.org/1999/xlink">
    <title>strike</title>
    <g id="strike" stroke="none" stroke-width="1" fill="none" fill-rule="evenodd">
        <path d="M1.45625759,7 L1.29894582,6.99518586 C0.432981939,6.94062556 -3.55271368e-15,6.42230274 -3.55271368e-15,5.44021739 L-3.55271368e-15,5.44021739 L-3.55271368e-15,5.1548913 L0.0068853787,5.03864734 C0.0160658836,4.95974235 0.0344268935,4.87801932 0.0619684083,4.79347826 L0.0619684083,4.79347826 L0.681652491,1.71195652 L0.72196412,1.5164736 C0.957544136,0.505491199 1.52247874,0 2.41676792,0 L2.41676792,0 L154.543742,0 L154.710028,0.00526553332 C155.570009,0.0614312221 156,0.566922421 156,1.52173913 L156,1.52173913 L156,1.82608696 L155.993115,1.93176329 C155.983934,2.00503221 155.965573,2.0839372 155.938032,2.16847826 L155.938032,2.16847826 L155.318348,5.28804348 L155.281574,5.4835264 C155.064291,6.4945088 154.508505,7 153.614216,7 L153.614216,7 L1.45625759,7 Z" id="Combined-Shape" fill="#683523" fill-rule="nonzero"></path>
    </g>
</svg>