<?xml version="1.0" encoding="UTF-8"?>
<svg width="320px" height="320px" viewBox="0 0 320 320" version="1.1" xmlns="http://www.w3.org/2000/svg" xmlns:xlink="http://www.w3.org/1999/xlink">
    <title>bull</title>
    <g id="bull" stroke="none" stroke-width="1" fill="none" fill-rule="evenodd">
        <path d="M269.157685,113.215569 C300.071856,92.5209581 319.361277,63.2674651 319.361277,30.756487 C319.361277,24.6886228 318.658683,18.8123752 317.381238,13 C293.748503,39.4431138 257.213573,59.499002 214.163673,68.8243513 C210.267465,66.5888224 200.622754,62.8203593 181.780439,65.3752495 C167.153693,67.3552894 152.271457,67.3552894 137.644711,65.3752495 C118.802395,62.8203593 109.093812,66.5888224 105.261477,68.8243513 C62.0838323,59.499002 25.6127745,39.4431138 1.98003992,13 C0.70259481,18.8123752 2.55795385e-13,24.6886228 2.55795385e-13,30.756487 C2.55795385e-13,63.2674651 19.2894212,92.5209581 50.2035928,113.215569 C36.0239521,119.730539 25.6766467,131.483034 21.4610778,145.023952 C33.9800399,156.520958 52.8862275,161.439122 71.6646707,156.393214 C75.4331337,155.371257 78.9461078,154.02994 82.2674651,152.369261 C84.1836327,182.516966 103.217565,216.369261 103.217565,216.369261 L110.562874,238.916168 C106.155689,242.301397 100.215569,249.646707 100.023952,264.46507 C99.9600798,266.125749 99.0658683,291.419162 121.165669,295.443114 L121.421158,295.443114 C121.48503,295.443114 123.081836,295.570858 125.381238,295.570858 C127.041916,295.570858 128.702595,295.506986 130.363273,295.251497 C140.710579,310.06986 159.808383,306.365269 159.808383,306.365269 C159.808383,306.365269 178.906188,310.005988 189.253493,295.187625 C190.850299,295.379242 192.383234,295.506986 193.98004,295.506986 C194.043912,295.506986 194.107784,295.506986 194.171657,295.506986 C196.471058,295.506986 198.067864,295.379242 198.131737,295.379242 L198.387226,295.379242 C220.487026,291.419162 219.592814,266.061876 219.528942,264.401198 C219.337325,249.646707 213.397206,242.301397 208.99002,238.852295 L216.335329,216.305389 C216.335329,216.305389 235.305389,182.389222 237.285429,152.305389 C240.606786,153.966068 244.183633,155.307385 247.888224,156.329341 C266.666667,161.37525 285.572854,156.457086 298.091816,144.96008 C293.684631,131.483034 283.337325,119.666667 269.157685,113.215569 Z" id="Shape" fill="#FFFFFF" fill-rule="nonzero"></path>
    </g>
</svg>