<?xml version="1.0" encoding="UTF-8"?>
<svg width="320px" height="320px" viewBox="0 0 320 320" version="1.1" xmlns="http://www.w3.org/2000/svg" xmlns:xlink="http://www.w3.org/1999/xlink">
    <title>icons/check-light</title>
    <g id="icons/check-light" stroke="none" stroke-width="1" fill="none" fill-rule="evenodd">
        <path d="M320,160 C320,248.365806 248.365806,320 160,320 C71.6341935,320 0,248.365806 0,160 C0,71.6341935 71.6341935,0 160,0 C248.365806,0 320,71.6341935 320,160 Z M141.492903,244.71871 L260.202581,126.009032 C264.233548,121.978065 264.233548,115.441935 260.202581,111.410968 L245.604516,96.8129032 C241.573548,92.7812903 235.037419,92.7812903 231.005806,96.8129032 L134.193548,193.624516 L88.9941935,148.425161 C84.9632258,144.394194 78.4270968,144.394194 74.3954839,148.425161 L59.7974194,163.023226 C55.7664516,167.054194 55.7664516,173.590323 59.7974194,177.62129 L126.894194,244.718065 C130.925806,248.749677 137.46129,248.749677 141.492903,244.71871 L141.492903,244.71871 Z" id="Shape" fill="#AAAAAA" fill-rule="nonzero"></path>
    </g>
</svg>