<?xml version="1.0" encoding="UTF-8"?>
<svg width="320px" height="320px" viewBox="0 0 320 320" version="1.1" xmlns="http://www.w3.org/2000/svg" xmlns:xlink="http://www.w3.org/1999/xlink">
    <title>icons/hamburger</title>
    <g id="icons/hamburger" stroke="none" stroke-width="1" fill="none" fill-rule="evenodd">
        <path d="M11.4285714,71.4285714 L308.571429,71.4285714 C314.883571,71.4285714 320,66.3121429 320,60 L320,31.4285714 C320,25.1164286 314.883571,20 308.571429,20 L11.4285714,20 C5.11642857,20 0,25.1164286 0,31.4285714 L0,60 C0,66.3121429 5.11642857,71.4285714 11.4285714,71.4285714 Z M11.4285714,185.714286 L308.571429,185.714286 C314.883571,185.714286 320,180.597857 320,174.285714 L320,145.714286 C320,139.402143 314.883571,134.285714 308.571429,134.285714 L11.4285714,134.285714 C5.11642857,134.285714 0,139.402143 0,145.714286 L0,174.285714 C0,180.597857 5.11642857,185.714286 11.4285714,185.714286 Z M11.4285714,300 L308.571429,300 C314.883571,300 320,294.883571 320,288.571429 L320,260 C320,253.687857 314.883571,248.571429 308.571429,248.571429 L11.4285714,248.571429 C5.11642857,248.571429 0,253.687857 0,260 L0,288.571429 C0,294.883571 5.11642857,300 11.4285714,300 Z" id="Shape" fill="#683523" fill-rule="nonzero"></path>
    </g>
</svg>