<?xml version="1.0" encoding="UTF-8"?>
<svg width="320px" height="320px" viewBox="0 0 320 320" version="1.1" xmlns="http://www.w3.org/2000/svg" xmlns:xlink="http://www.w3.org/1999/xlink">
    <title>icons/poop2</title>
    <g id="icons/poop2" stroke="none" stroke-width="1" fill="none" fill-rule="evenodd">
        <g id="Group" transform="translate(5.000000, 0.000000)" fill="#000000" fill-rule="nonzero">
            <path d="M192.705882,149 L134.647059,149 C93.4206266,149 60,115.645214 60,74.5 C60,33.3547861 93.4206266,0 134.647059,0 L176.117647,0 L176.117647,38.6296296 L192.705882,38.6296296 C223.24398,38.6296296 248,63.3368786 248,93.8148148 C248,124.292751 223.24398,149 192.705882,149 L192.705882,149 Z M134.647059,33.1111111 C111.743486,33.1111111 93.1764715,51.6415482 93.1764715,74.5 C93.1764715,97.3584518 111.743486,115.888889 134.647059,115.888889 L192.705882,115.888889 C204.921122,115.888889 214.823529,106.005989 214.823529,93.8148148 C214.823529,81.6236403 204.921122,71.7407407 192.705882,71.7407407 L170.588235,71.7407407 C155.319186,71.7407407 142.941176,59.3871162 142.941176,44.1481481 L142.941176,33.1111111 L134.647059,33.1111111 Z" id="Shape"></path>
            <path d="M223.021739,232 L84.9782609,232 C52.9577516,232 27,206.032515 27,174 C27,141.967485 52.9577516,116 84.9782609,116 L223.021739,116 C255.042248,116 281,141.967485 281,174 C281,206.032515 255.042248,232 223.021739,232 Z M84.9782609,149.142857 C71.2551855,149.142857 60.1304348,160.271779 60.1304348,174 C60.1304348,187.728221 71.2551855,198.857143 84.9782609,198.857143 L223.021739,198.857143 C236.744815,198.857143 247.869565,187.728221 247.869565,174 C247.869565,160.271779 236.744815,149.142857 223.021739,149.142857 L84.9782609,149.142857 Z" id="Shape"></path>
            <path d="M248.303571,320 L60.6964286,320 C27.1747167,320 0,292.913227 0,259.5 C0,226.086773 27.1747167,199 60.6964286,199 L248.303571,199 C281.825283,199 309,226.086773 309,259.5 C309,292.913227 281.825283,320 248.303571,320 Z M60.6964286,232 C45.4592868,232 33.1071429,244.312169 33.1071429,259.5 C33.1071429,274.687831 45.4592868,287 60.6964286,287 L248.303571,287 C263.540713,287 275.892857,274.687831 275.892857,259.5 C275.892857,244.312169 263.540713,232 248.303571,232 L60.6964286,232 Z" id="Shape"></path>
        </g>
    </g>
</svg>