<?xml version="1.0" encoding="UTF-8"?>
<svg width="320px" height="320px" viewBox="0 0 320 320" version="1.1" xmlns="http://www.w3.org/2000/svg" xmlns:xlink="http://www.w3.org/1999/xlink">
    <title>icons/shield</title>
    <g id="icons/shield" stroke="none" stroke-width="1" fill="none" fill-rule="evenodd">
        <path d="M291.5625,52.3125 L171.5625,2.3125 C164.180016,-0.750052698 155.882484,-0.750052698 148.5,2.3125 L28.5,52.3125 C17.3125,56.9375 10,67.875 10,80 C10,204.0625 81.5625,289.8125 148.4375,317.6875 C155.8125,320.75 164.125,320.75 171.5,317.6875 C225.0625,295.375 310,218.3125 310,80 C310,67.875 302.6875,56.9375 291.5625,52.3125 Z M262.0625,123.6875 L147.0625,238.6875 C143.1875,242.5625 136.8125,242.5625 132.9375,238.6875 L67.9375,173.6875 C64.0625,169.8125 64.0625,163.4375 67.9375,159.5625 L82.0625,145.4375 C85.9375,141.5625 92.3125,141.5625 96.1875,145.4375 L140,189.25 L233.8125,95.4375 C237.6875,91.5625 244.0625,91.5625 247.9375,95.4375 L262.0625,109.5625 C266,113.5 266,119.8125 262.0625,123.6875 L262.0625,123.6875 Z" id="Shape" fill="#1C0700" fill-rule="nonzero"></path>
    </g>
</svg>