<?xml version="1.0" encoding="UTF-8"?>
<svg width="320px" height="320px" viewBox="0 0 320 320" version="1.1" xmlns="http://www.w3.org/2000/svg" xmlns:xlink="http://www.w3.org/1999/xlink">
    <title>learn/clone</title>
    <g id="learn/clone" stroke="none" stroke-width="1" fill="none" fill-rule="evenodd">
        <ellipse id="Oval-Copy-2" fill-opacity="0.1" fill="#683523" cx="159.5" cy="160" rx="159.5" ry="160"></ellipse>
        <g id="sheep-duotone" transform="translate(40.000000, 64.000000)" fill="#683523" fill-rule="nonzero">
            <path d="M120.03375,36 C115.683165,36.0204566 111.472238,37.5379793 108.10875,40.2975 C101.037357,34.7404884 91.0826427,34.7404884 84.01125,40.2975 C80.6988054,37.6948882 76.5986522,36.2981908 72.38625,36.3375 C67.7382543,36.3358946 63.2210565,37.8763579 59.5425,40.7175 C56.2412804,38.2465627 52.2322615,36.904087 48.10875,36.88875 C39.75,36.8925 32.2275,42.375 29.28375,50.4375 C28.84875,50.4075 28.41375,50.3925 27.97875,50.3925 C21.60375,50.3925 15.53625,53.65875 11.7525,59.1225 C7.87942171,64.7480998 6.84277609,71.854943 8.9475,78.3525 C3.3225,82.24125 0,88.71 0,95.925 C0,103.0275 3.345,109.6125 8.82375,113.44125 C6.71558571,119.938033 7.75099384,127.045895 11.625,132.67125 C15.4125,138.135 21.465,141.3975 27.81375,141.3975 C28.23,141.3975 28.65,141.3975 29.06625,141.35625 C31.96125,149.60625 39.3075,155.01375 47.81625,155.01375 C51.9296501,154.999986 55.9370484,153.707868 59.28375,151.31625 C62.9393851,154.185538 67.4540547,155.741501 72.10125,155.73375 C76.3513649,155.76135 80.4885014,154.366024 83.85375,151.77 C87.2367133,154.497455 91.4557776,155.976644 95.80125,155.95875 C100.186437,155.963945 104.444061,154.483492 107.88,151.75875 C115.108366,157.558929 125.439231,157.401494 132.4875,151.38375 C135.779358,153.846669 139.776291,155.185115 143.8875,155.20125 C152.265,155.20125 159.78375,149.70375 162.72375,141.63375 C163.14,141.66 163.55625,141.675 163.9725,141.675 C170.508301,141.612013 176.597378,138.346754 180.26625,132.9375 C184.133555,127.319032 185.16487,120.220425 183.05625,113.73375 C188.68125,109.84125 192,103.36875 192.00375,96.15375 C192.00375,89.05125 188.65875,82.46625 183.18,78.63375 C185.294007,72.1283598 184.257019,65.009467 180.375,59.3775 C176.59125,53.92125 170.55,50.6625 164.21625,50.6625 C163.7925,50.6625 163.365,50.6625 162.94125,50.70375 C160.05375,42.56625 152.5425,37.0125 144.13875,37.0125 C140.045235,37.0349544 136.06048,38.3326212 132.73875,40.725 C129.186975,37.7120927 124.691122,36.0400814 120.03375,36 Z" id="Path" opacity="0.4"></path>
            <path d="M162.72,141.6225 C159.78,149.6925 152.26125,155.19 143.88375,155.19 C139.772541,155.173865 135.775608,153.835419 132.48375,151.3725 C132.32625,151.5075 132.16125,151.635 132,151.7475 L132,186 C132,189.313708 134.686292,192 138,192 L162,192 C165.313708,192 168,189.313708 168,186 L168,141.22125 C166.675823,141.51177 165.324417,141.66011 163.96875,141.66375 C163.5525,141.66375 163.125,141.64875 162.72,141.6225 L162.72,141.6225 Z M72.5475,157.0725 L73.06125,155.7075 C72.73875,155.7075 72.42,155.73375 72.0975,155.73375 C67.4503047,155.741501 62.9356351,154.185538 59.28,151.31625 C55.9332984,153.707868 51.9259001,154.999986 47.8125,155.01375 C43.7639321,155.022759 39.8141556,153.763866 36.5175,151.41375 C35.7692242,154.970306 35.8384656,158.650359 36.72,162.17625 L43.03875,187.455 C43.7063402,190.125778 46.1058007,191.999583 48.85875,192 L73.60875,192 C75.4561637,192 77.2004485,191.148409 78.337286,189.692202 C79.4741234,188.235995 79.8767478,186.337271 79.42875,184.545 L72.5475,157.0725 Z M233.34375,39.75 L216,31.2075 L216,24 C216,17.372583 210.627417,12 204,12 L180,12 C180,5.372583 174.627417,0 168,0 C161.372583,0 156,5.372583 156,12 L156,41.1 C159.193227,43.5648363 161.606247,46.8998302 162.94875,50.70375 C163.3725,50.6775 163.8,50.6625 164.22375,50.6625 C170.5575,50.6625 176.59875,53.92125 180.3825,59.3775 C182.942721,63.0849122 184.29083,67.494761 184.24125,72 L224.8725,72 C228.33356,72.003449 231.530913,70.1514458 233.25,67.1475 C236.09625,62.175 240,54.60375 240,50.42625 C239.991748,45.8913569 237.412021,41.75362 233.34375,39.75 Z M192,42 C188.686292,42 186,39.3137085 186,36 C186,32.6862915 188.686292,30 192,30 C195.313708,30 198,32.6862915 198,36 C198,39.3137085 195.313708,42 192,42 Z" id="Shape"></path>
        </g>
    </g>
</svg>