<?xml version="1.0" encoding="UTF-8"?>
<svg width="320px" height="320px" viewBox="0 0 320 320" version="1.1" xmlns="http://www.w3.org/2000/svg" xmlns:xlink="http://www.w3.org/1999/xlink">
    <title>learn/copy</title>
    <g id="learn/copy" stroke="none" stroke-width="1" fill="none" fill-rule="evenodd">
        <ellipse id="Oval-Copy-2" fill-opacity="0.1" fill="#683523" cx="159.5" cy="160" rx="159.5" ry="160"></ellipse>
        <g id="copy-solid" transform="translate(77.000000, 65.000000)" fill="#683523" fill-rule="nonzero">
            <path d="M118.75,38.59375 L118.75,0 L56.40625,0 C51.4874023,0 47.5,3.98740234 47.5,8.90625 L47.5,145.46875 C47.5,150.387598 51.4874023,154.375 56.40625,154.375 L157.34375,154.375 C162.262598,154.375 166.25,150.387598 166.25,145.46875 L166.25,47.5 L127.65625,47.5 C122.757813,47.5 118.75,43.4921875 118.75,38.59375 Z M163.641582,27.079082 L139.170918,2.60841797 C137.500697,0.93828277 135.235446,0 132.873457,0 L130.625,0 L130.625,35.625 L166.25,35.625 L166.25,33.376543 C166.25,31.0145543 165.311717,28.7493033 163.641582,27.079082 L163.641582,27.079082 Z" id="Shape"></path>
            <path d="M118.75,166.25 L118.75,181.09375 C118.75,186.012598 114.762598,190 109.84375,190 L8.90625,190 C3.98740234,190 0,186.012598 0,181.09375 L0,44.53125 C0,39.6124023 3.98740234,35.625 8.90625,35.625 L35.625,35.625 L35.625,145.46875 C35.625,156.927754 44.9472461,166.25 56.40625,166.25 L118.75,166.25 Z" id="Path" opacity="0.4"></path>
        </g>
    </g>
</svg>