<?xml version="1.0" encoding="UTF-8"?>
<svg width="320px" height="320px" viewBox="0 0 320 320" version="1.1" xmlns="http://www.w3.org/2000/svg" xmlns:xlink="http://www.w3.org/1999/xlink">
    <title>learn/customize</title>
    <g id="learn/customize" stroke="none" stroke-width="1" fill="none" fill-rule="evenodd">
        <ellipse id="Oval-Copy-2" fill-opacity="0.1" fill="#683523" cx="159.5" cy="160" rx="159.5" ry="160"></ellipse>
        <path d="M230.714286,70 L89.2857143,70 C78.6345084,70 70,78.6345084 70,89.2857143 L70,230.714286 C70,241.365492 78.6345084,250 89.2857143,250 L230.714286,250 C241.365492,250 250,241.365492 250,230.714286 L250,89.2857143 C250,78.6345084 241.365492,70 230.714286,70 L230.714286,70 Z M150.399979,146.6 L140.799988,146.6 L140.799988,219.1625 C140.799988,221.834177 138.650957,224 136,224 L120,224 C117.349043,224 115.200012,221.834177 115.200012,219.1625 L115.200012,146.6 L105.600021,146.6 C103.05199,146.606444 100.606478,145.589186 98.8047429,143.773373 C97.0030074,141.95756 95.9936361,139.49294 96,136.925 L96,130.475 C95.9936361,127.90706 97.0030074,125.44244 98.8047429,123.626627 C100.606478,121.810814 103.05199,120.793556 105.600021,120.8 L115.200012,120.8 L115.200012,99.8375 C115.200012,97.1658225 117.349043,95 120,95 L136,95 C138.650957,95 140.799988,97.1658225 140.799988,99.8375 L140.799988,120.8 L150.399979,120.8 C152.94801,120.793556 155.393522,121.810814 157.195257,123.626627 C158.996993,125.44244 160.006364,127.90706 160,130.475 L160,136.925 C160.006364,139.49294 158.996993,141.95756 157.195257,143.773373 C155.393522,145.589186 152.94801,146.606444 150.399979,146.6 L150.399979,146.6 Z M224,188.525 C224.006364,191.09294 222.996993,193.55756 221.195257,195.373373 C219.393522,197.189186 216.94801,198.206444 214.399979,198.2 L204.799988,198.2 L204.799988,219.1625 C204.799988,221.834177 202.650957,224 200,224 L184,224 C181.349043,224 179.200012,221.834177 179.200012,219.1625 L179.200012,198.2 L169.600021,198.2 C167.05199,198.206444 164.606478,197.189186 162.804743,195.373373 C161.003007,193.55756 159.993636,191.09294 160,188.525 L160,182.075 C159.993636,179.50706 161.003007,177.04244 162.804743,175.226627 C164.606478,173.410814 167.05199,172.393556 169.600021,172.4 L179.200012,172.4 L179.200012,99.8375 C179.200012,97.1658225 181.349043,95 184,95 L200,95 C202.650957,95 204.799988,97.1658225 204.799988,99.8375 L204.799988,172.4 L214.399979,172.4 C216.94801,172.393556 219.393522,173.410814 221.195257,175.226627 C222.996993,177.04244 224.006364,179.50706 224,182.075 L224,188.525 Z" id="Shape" fill="#683523" fill-rule="nonzero" opacity="0.4"></path>
        <path d="M160,130.750008 C160.006364,128.162168 158.996993,125.678448 157.195257,123.848563 C155.393522,122.018678 152.94801,120.993537 150.399979,121 L105.600021,121 C103.05199,120.993537 100.606478,122.018678 98.8047429,123.848563 C97.0030074,125.678448 95.9936361,128.162168 96,130.750008 L96,137.249992 C95.9936361,139.837832 97.0030074,142.321552 98.8047429,144.151437 C100.606478,145.981322 103.05199,147.006463 105.600021,147 L150.399979,147 C152.94801,147.006463 155.393522,145.981322 157.195257,144.151437 C158.996993,142.321552 160.006364,139.837832 160,137.249992 L160,130.750008 Z M214.399979,173 L169.600021,173 C167.05199,172.993537 164.606478,174.018678 162.804743,175.848563 C161.003007,177.678448 159.993636,180.162168 160,182.750008 L160,189.249992 C159.993636,191.837832 161.003007,194.321552 162.804743,196.151437 C164.606478,197.981322 167.05199,199.006463 169.600021,199 L214.399979,199 C216.94801,199.006463 219.393522,197.981322 221.195257,196.151437 C222.996993,194.321552 224.006364,191.837832 224,189.249992 L224,182.750008 C224.006364,180.162168 222.996993,177.678448 221.195257,175.848563 C219.393522,174.018678 216.94801,172.993537 214.399979,173 Z" id="Shape" fill="#683523" fill-rule="nonzero"></path>
    </g>
</svg>