<?xml version="1.0" encoding="UTF-8"?>
<svg width="320px" height="320px" viewBox="0 0 320 320" version="1.1" xmlns="http://www.w3.org/2000/svg" xmlns:xlink="http://www.w3.org/1999/xlink">
    <title>learn/expert</title>
    <g id="learn/expert" stroke="none" stroke-width="1" fill="none" fill-rule="evenodd">
        <g id="lightbulb-duotone" fill="#683523">
            <ellipse id="Oval-Copy-2" fill-opacity="0.1" cx="159.5" cy="160" rx="159.5" ry="160"></ellipse>
            <path d="M159.388672,49.9994715 C115.55625,50.1332031 83.9999268,85.6640625 83.9999268,125.625 C83.9744741,143.93373 90.6296461,161.622798 102.717187,175.374219 C109.815625,183.473828 120.91875,200.390625 125.151172,214.669141 C125.151172,214.780859 125.18125,214.892578 125.198437,215.004297 L194.051562,215.004297 C194.051562,214.892578 194.081641,214.785156 194.098828,214.669141 C198.33125,200.394922 209.434375,183.473828 216.532812,175.374219 C236.107368,153.020433 240.768669,121.271527 228.445545,94.2345976 C216.12242,67.1976686 189.10134,49.8892304 159.388672,49.9994715 Z M159.625,91.25 C140.649046,91.271312 125.271312,106.649046 125.25,125.625 C125.25,129.421958 122.171958,132.5 118.375,132.5 C114.578042,132.5 111.5,129.421958 111.5,125.625 C111.528419,99.0580768 133.058077,77.5284189 159.625,77.5 C163.421958,77.5 166.5,80.5780423 166.5,84.375 C166.5,88.1719577 163.421958,91.25 159.625,91.25 Z" id="Shape" fill-rule="nonzero" opacity="0.4"></path>
            <path d="M125.275781,245.228516 L125.25,228.75 L194,228.75 L194,245.228516 C193.986977,247.92998 193.178457,250.567757 191.675391,252.8125 L184.332031,263.868359 C181.782673,267.698753 177.486367,270 172.885156,270 L146.369141,270 C141.767114,269.999158 137.470638,267.696092 134.922266,263.864062 L127.578906,252.8125 C126.083433,250.565369 125.282441,247.927773 125.275781,245.228516 Z" id="Path" fill-rule="nonzero"></path>
        </g>
    </g>
</svg>