<?xml version="1.0" encoding="UTF-8"?>
<svg width="320px" height="320px" viewBox="0 0 320 320" version="1.1" xmlns="http://www.w3.org/2000/svg" xmlns:xlink="http://www.w3.org/1999/xlink">
    <title>learn/fix</title>
    <g id="learn/fix" stroke="none" stroke-width="1" fill="none" fill-rule="evenodd">
        <ellipse id="Oval-Copy-2" fill-opacity="0.1" fill="#683523" cx="160.5" cy="160" rx="159.5" ry="160"></ellipse>
        <g id="hammer-duotone" transform="translate(50.000000, 62.000000)" fill="#683523" fill-rule="nonzero">
            <path d="M7.85605536,154.532872 L104.952941,63.8799308 C106.078612,65.5001459 107.332338,67.027528 108.702076,68.4474048 L127.405882,87.1512111 C128.764136,88.4540848 130.219801,89.6514456 131.760208,90.732872 L41.1072664,187.784083 C35.2682248,194.194442 26.3776031,196.875334 17.9681588,194.761486 C9.55871462,192.647638 2.99250045,186.081424 0.878652568,177.67198 C-1.23519531,169.262535 1.44569671,160.371914 7.85605536,154.532872 Z" id="Path" opacity="0.4"></path>
            <path d="M166.164706,100.031488 L170.46955,95.7266436 L159.480969,84.7266436 C151.113798,86.9911754 142.174131,84.6187757 136.030796,78.5034602 L117.32699,59.799654 C112.758405,55.2320458 110.191287,49.0367341 110.190311,42.5764706 L110.190311,35.4397924 L75.7439446,18.216609 C87.1649354,6.79502969 102.655476,0.37840377 118.807612,0.37840377 C134.959749,0.37840377 150.45029,6.79502969 161.87128,18.216609 L179.094464,35.4397924 C185.209779,41.5831279 187.582179,50.5227945 185.317647,58.8899654 L196.317647,69.8899654 L200.622491,65.5851211 C201.764621,64.4427303 203.313839,63.8009199 204.929239,63.8009199 C206.544639,63.8009199 208.093856,64.4427303 209.235986,65.5851211 L217.849481,74.1986159 C220.225879,76.5765721 220.225879,80.4303483 217.849481,82.8083045 L183.399308,117.258478 C182.257178,118.400868 180.707961,119.042679 179.092561,119.042679 C177.47716,119.042679 175.927943,118.400868 174.785813,117.258478 L166.172318,108.644983 C165.028918,107.503863 164.385738,105.955212 164.38431,104.339812 C164.382882,102.724412 165.023324,101.174627 166.164706,100.031488 L166.164706,100.031488 Z" id="Path"></path>
        </g>
    </g>
</svg>