<?xml version="1.0" encoding="UTF-8"?>
<svg width="320px" height="320px" viewBox="0 0 320 320" version="1.1" xmlns="http://www.w3.org/2000/svg" xmlns:xlink="http://www.w3.org/1999/xlink">
    <title>learn/merge</title>
    <g id="learn/merge" stroke="none" stroke-width="1" fill="none" fill-rule="evenodd">
        <ellipse id="Oval-Copy-2" fill-opacity="0.1" fill="#683523" cx="159.5" cy="160" rx="159.5" ry="160"></ellipse>
        <path d="M188.564844,176.285156 C167.978189,173.261983 149.188797,162.868729 135.6875,147.036328 L135.6875,202.826953 C128.973258,200.724373 121.776742,200.724373 115.0625,202.826953 L115.0625,117.173047 C123.401279,119.785673 132.421023,119.134495 140.298047,115.351172 C148.631287,136.230442 167.085505,151.380807 189.187891,155.488281 C186.836864,162.189769 186.619209,169.454946 188.564844,176.285156 L188.564844,176.285156 Z" id="Path" fill="#683523" fill-rule="nonzero" opacity="0.4"></path>
        <path d="M125.375,50 C106.390212,50 91,65.3902117 91,84.375 C91,103.359788 106.390212,118.75 125.375,118.75 C144.359788,118.75 159.75,103.359788 159.75,84.375 C159.75,75.2581832 156.128359,66.5147674 149.681796,60.0682044 C143.235233,53.6216414 134.491817,50 125.375,50 Z M125.375,91.25 C121.578042,91.25 118.5,88.1719577 118.5,84.375 C118.5,80.5780423 121.578042,77.5 125.375,77.5 C129.171958,77.5 132.25,80.5780423 132.25,84.375 C132.25,88.1719577 129.171958,91.25 125.375,91.25 Z M125.375,201.25 C106.390212,201.25 91,216.640212 91,235.625 C91,254.609788 106.390212,270 125.375,270 C144.359788,270 159.75,254.609788 159.75,235.625 C159.75,216.640212 144.359788,201.25 125.375,201.25 Z M125.375,242.5 C121.578042,242.5 118.5,239.421958 118.5,235.625 C118.5,231.828042 121.578042,228.75 125.375,228.75 C129.171958,228.75 132.25,231.828042 132.25,235.625 C132.25,239.421958 129.171958,242.5 125.375,242.5 Z M221.625,132.5 C202.640212,132.5 187.25,147.890212 187.25,166.875 C187.25,185.859788 202.640212,201.25 221.625,201.25 C240.609788,201.25 256,185.859788 256,166.875 C256,147.890212 240.609788,132.5 221.625,132.5 L221.625,132.5 Z M221.625,173.75 C217.828042,173.75 214.75,170.671958 214.75,166.875 C214.75,163.078042 217.828042,160 221.625,160 C225.421958,160 228.5,163.078042 228.5,166.875 C228.5,170.671958 225.421958,173.75 221.625,173.75 Z" id="Shape" fill="#683523" fill-rule="nonzero"></path>
    </g>
</svg>