<?xml version="1.0" encoding="UTF-8"?>
<svg width="320px" height="320px" viewBox="0 0 320 320" version="1.1" xmlns="http://www.w3.org/2000/svg" xmlns:xlink="http://www.w3.org/1999/xlink">
    <title>learn/speed</title>
    <g id="learn/speed" stroke="none" stroke-width="1" fill="none" fill-rule="evenodd">
        <ellipse id="Oval-Copy-2" fill-opacity="0.1" fill="#683523" cx="159.5" cy="160" rx="159.5" ry="160"></ellipse>
        <g id="tachometer-alt-fastest-duotone" transform="translate(50.000000, 50.000000)" fill="#683523" fill-rule="nonzero">
            <path d="M110,0 C49.2480252,0 9.78552563e-05,49.2699023 9.78552563e-05,110.049107 C-0.0258864913,129.490623 5.12345707,148.5884 14.9189198,165.379353 C17.0616243,169.055299 21.1446031,171.1875 25.3994566,171.1875 L194.600543,171.1875 C198.855397,171.1875 202.938376,169.055299 205.08108,165.379353 C214.876543,148.5884 220.025886,129.490623 219.999902,110.049107 C219.999902,49.2699023 170.751975,0 110,0 Z M164.999902,48.9107143 C171.750037,48.9107143 177.222102,54.3852325 177.222102,61.1383929 C177.222102,67.8915533 171.750037,73.3660714 164.999902,73.3660714 C158.249767,73.3660714 152.777701,67.8915533 152.777701,61.1383929 C152.777701,54.3852325 158.249767,48.9107143 164.999902,48.9107143 Z M110,24.4553571 C116.750135,24.4553571 122.2222,29.9298753 122.2222,36.6830357 C122.2222,43.4361961 116.750135,48.9107143 110,48.9107143 C103.249865,48.9107143 97.7777996,43.4361961 97.7777996,36.6830357 C97.7777996,29.9298753 103.249865,24.4553571 110,24.4553571 Z M36.6667976,134.504464 C29.9166627,134.504464 24.4445972,129.029946 24.4445972,122.276786 C24.4445972,115.523625 29.9166627,110.049107 36.6667976,110.049107 C43.4169325,110.049107 48.888998,115.523625 48.888998,122.276786 C48.888998,129.029946 43.4169325,134.504464 36.6667976,134.504464 Z M55.0000982,73.3660714 C48.2499633,73.3660714 42.7778978,67.8915533 42.7778978,61.1383929 C42.7778978,54.3852325 48.2499633,48.9107143 55.0000982,48.9107143 C61.7502331,48.9107143 67.2222986,54.3852325 67.2222986,61.1383929 C67.2222986,67.8915533 61.7502331,73.3660714 55.0000982,73.3660714 Z M184.860977,131.321447 L133.680513,139.854074 C133.143254,142.263447 132.255314,144.58085 131.045101,146.732143 L88.9472598,146.732143 C86.7496285,143.03065 85.5788192,138.809626 85.5555238,134.504464 C85.5285376,123.55845 92.791629,113.934131 103.321846,110.962419 C113.852063,107.990707 125.071734,112.399042 130.766282,121.745646 L181.824525,113.232125 C186.77716,112.481185 191.415199,115.846737 192.239721,120.789818 C193.064242,125.7329 189.769876,130.422788 184.84188,131.321447 L184.860977,131.321447 Z" id="Shape" opacity="0.4"></path>
            <path d="M110.325139,110 C118.791373,110.014028 126.64018,114.415473 131.0432,121.618249 L181.98288,113.161712 C186.924016,112.415799 191.551284,115.758823 192.373891,120.668819 C193.196498,125.578815 189.909782,130.237311 184.993229,131.129954 L133.950664,139.605469 C133.414652,141.998716 132.528774,144.300607 131.321371,146.4375 L89.3212849,146.4375 C87.1287566,142.760783 85.960666,138.568013 85.9375,134.291667 C85.9375,120.87575 96.8562178,110 110.325139,110 L110.325139,110 Z" id="Path"></path>
        </g>
    </g>
</svg>