<?xml version="1.0" encoding="UTF-8"?>
<svg width="320px" height="320px" viewBox="0 0 320 320" version="1.1" xmlns="http://www.w3.org/2000/svg" xmlns:xlink="http://www.w3.org/1999/xlink">
    <title>learn/undo</title>
    <g id="learn/undo" stroke="none" stroke-width="1" fill="none" fill-rule="evenodd">
        <ellipse id="Oval-Copy-2" fill-opacity="0.1" fill="#683523" cx="159.5" cy="160" rx="159.5" ry="160"></ellipse>
        <g id="undo-alt-duotone" transform="translate(60.000000, 60.000000)" fill="#683523" fill-rule="nonzero">
            <path d="M48.7903226,151.209677 C50.5891666,149.41101 53.4735732,149.312337 55.391129,150.983871 C67.716679,161.827806 83.5833025,167.788367 100,167.741935 C137.830645,167.741935 167.435484,137.096774 167.741935,100.584677 C168.060484,62.0967742 136.657258,31.9395161 99.3991935,32.2580645 C82.4264172,32.3601295 66.120367,38.8782282 53.7540323,50.5040323 L30.9233871,27.6975806 C49.4612977,9.93462983 74.1400854,0.0125582451 99.8145161,-0.000156032769 C154.979839,-0.0967741935 200,44.8346774 200,100 C200,155.241935 155.241935,200.000097 100,200.000097 C75.2377983,200.034586 51.3498886,190.847702 32.9919355,174.229839 L32.7943548,174.044355 C31.8832846,173.136443 31.3711843,171.903152 31.3711843,170.616935 C31.3711843,169.330719 31.8832846,168.097428 32.7943548,167.189516 L48.7903226,151.209677 Z" id="Path" opacity="0.4"></path>
            <path d="M16.5322581,13.3064516 L70.5887097,67.3387097 C76.6733871,73.4475806 72.3548387,83.8709677 63.733871,83.8709677 L9.67741935,83.8709677 C4.33272823,83.8709677 0,79.5382395 0,74.1935484 L0,20.1370968 C0,11.516129 10.4233871,7.19758065 16.5322581,13.3064516 Z" id="Path"></path>
        </g>
    </g>
</svg>