<?xml version="1.0" encoding="UTF-8"?>
<svg width="320px" height="320px" viewBox="0 0 320 320" version="1.1" xmlns="http://www.w3.org/2000/svg" xmlns:xlink="http://www.w3.org/1999/xlink">
    <title>navigation-icons/benefits</title>
    <g id="navigation-icons/benefits" stroke="none" stroke-width="1" fill="none" fill-rule="evenodd">
        <path d="M280,130 C291.04375,130 300,121.04375 300,110 L300,90 C300,78.95625 291.04375,70 280,70 L265.075,70 L297.49375,28.24375 C300.85,23.85625 300.01875,17.58125 295.6375,14.225 L279.75625,2.0625 C275.36875,-1.3 269.09375,-0.4625 265.73125,3.91875 L214.43125,70 L40,70 C28.95625,70 20,78.95625 20,90 L20,110 C20,121.04375 28.95625,130 40,130 L167.85,130 L121.26875,190 L40,190 C28.95625,190 20,198.95625 20,210 L20,230 C20,241.04375 28.95625,250 40,250 L74.68125,250 L42.2625,291.75625 C38.90625,296.1375 39.7375,302.4125 44.11875,305.775 L60,317.9375 C64.3875,321.3 70.6625,320.4625 74.01875,316.08125 L125.325,250 L280,250 C291.04375,250 300,241.04375 300,230 L300,210 C300,198.95625 291.04375,190 280,190 L171.90625,190 L218.4875,130 L280,130 Z" id="Path" fill="#633220" fill-rule="nonzero"></path>
    </g>
</svg>