<?xml version="1.0" encoding="UTF-8"?>
<svg width="320px" height="320px" viewBox="0 0 320 320" version="1.1" xmlns="http://www.w3.org/2000/svg" xmlns:xlink="http://www.w3.org/1999/xlink">
    <title>navigation-icons/faq</title>
    <g id="navigation-icons/faq" stroke="none" stroke-width="1" fill="none" fill-rule="evenodd">
        <path d="M160.638125,0 C110.75125,0 78.439375,20.439375 53.07125,56.89125 C48.469375,63.50375 49.888125,72.57 56.3075,77.4375 L83.26875,97.880625 C89.751875,102.79625 98.97625,101.646875 104.051875,95.288125 C119.7075,75.675 131.320625,64.3825 155.775,64.3825 C175.0025,64.3825 198.785,76.756875 198.785,95.401875 C198.785,109.496875 187.149375,116.735625 168.164375,127.379375 C146.025,139.791875 116.7275,155.239375 116.7275,193.8825 L116.7275,200 C116.7275,208.284375 123.443125,215 131.7275,215 L177.021875,215 C185.30625,215 192.021875,208.284375 192.021875,200 L192.021875,196.391875 C192.021875,169.604375 270.314375,168.48875 270.314375,96 C270.314375,41.41 213.68875,0 160.638125,0 Z M154.375,233.411875 C130.5025,233.411875 111.080625,252.83375 111.080625,276.70625 C111.080625,300.578125 130.5025,320 154.375,320 C178.2475,320 197.669375,300.578125 197.669375,276.705625 C197.669375,252.833125 178.2475,233.411875 154.375,233.411875 Z" id="Shape" fill="#633220" fill-rule="nonzero"></path>
    </g>
</svg>