<?xml version="1.0" encoding="UTF-8"?>
<svg width="320px" height="320px" viewBox="0 0 320 320" version="1.1" xmlns="http://www.w3.org/2000/svg" xmlns:xlink="http://www.w3.org/1999/xlink">
    <title>navigation-icons/learn</title>
    <g id="navigation-icons/learn" stroke="none" stroke-width="1" fill="none" fill-rule="evenodd">
        <path d="M311.17,114.6 L171.7,71.75 C164.1,69.415 155.9,69.415 148.305,71.75 L8.83,114.6 C-2.94,118.215 -2.94,133.78 8.83,137.395 L33.145,144.865 C27.81,151.46 24.53,159.505 24.205,168.315 C19.39,171.075 16,176.055 16,182 C16,187.39 18.84,191.925 22.93,194.825 L10.165,252.265 C9.055,257.26 12.855,262 17.97,262 L46.025,262 C51.145,262 54.945,257.26 53.835,252.265 L41.07,194.825 C45.16,191.925 48,187.39 48,182 C48,176.215 44.765,171.375 40.17,168.565 C40.55,161.055 44.39,154.415 50.515,150.205 L148.3,180.25 C152.83,181.64 161.52,183.375 171.695,180.25 L311.17,137.4 C322.945,133.78 322.945,118.22 311.17,114.6 Z M176.395,195.545 C162.13,199.925 149.975,197.505 143.6,195.545 L71.09,173.27 L64,230 C64,247.675 106.98,262 160,262 C213.02,262 256,247.675 256,230 L248.91,173.265 L176.395,195.545 Z" id="Shape" fill="#633220" fill-rule="nonzero"></path>
    </g>
</svg>