<?xml version="1.0" encoding="UTF-8"?>
<svg width="320px" height="320px" viewBox="0 0 320 320" version="1.1" xmlns="http://www.w3.org/2000/svg" xmlns:xlink="http://www.w3.org/1999/xlink">
    <title>navigation-icons/many-ways</title>
    <g id="navigation-icons/many-ways" stroke="none" stroke-width="1" fill="none" fill-rule="evenodd">
        <path d="M256,192 C291.346224,192 320,220.653776 320,256 C320,291.346224 291.346224,320 256,320 C220.653776,320 192,291.346224 192,256 C192,220.653776 220.653776,192 256,192 Z M64,192 C99.346224,192 128,220.653776 128,256 C128,291.346224 99.346224,320 64,320 C28.653776,320 0,291.346224 0,256 C0,220.653776 28.653776,192 64,192 Z M64,0 C99.346224,0 128,28.653776 128,64 C128,99.346224 99.346224,128 64,128 C28.653776,128 0,99.346224 0,64 C0,28.653776 28.653776,0 64,0 Z M256,0 C291.346224,0 320,28.653776 320,64 C320,99.346224 291.346224,128 256,128 C220.653776,128 192,99.346224 192,64 C192,28.653776 220.653776,0 256,0 Z" id="Combined-Shape" fill="#633220"></path>
    </g>
</svg>