<?xml version="1.0" encoding="UTF-8"?>
<svg width="320px" height="320px" viewBox="0 0 320 320" version="1.1" xmlns="http://www.w3.org/2000/svg" xmlns:xlink="http://www.w3.org/1999/xlink">
    <title>navigation-icons/pricing</title>
    <g id="navigation-icons/pricing" stroke="none" stroke-width="1" fill="none" fill-rule="evenodd">
        <path d="M0,200 C0,217.35625 11.25,233.35625 30,246.45625 L30,206.25 C18.21875,198.75 7.875,190.4 0,181.0125 L0,200 Z M160,220 C248.33125,220 320,179.725 320,130 C320,80.275 248.33125,40 160,40 C71.66875,40 0,80.275 0,130 C0,179.725 71.66875,220 160,220 Z M50,257.81875 C66.93125,265.875 87.2875,272.075 110,275.81875 L110,235.625 C87.88125,231.875 67.61875,225.7 50,217.5 L50,257.81875 Z M290,246.45625 C308.78125,233.33125 320,217.35625 320,200 L320,181.01875 C312.125,190.39375 301.78125,198.75 290,206.25625 L290,246.45625 Z M210,275.83125 C232.7125,272.08125 253.06875,265.8875 270,257.83125 L270,217.5 C252.38125,225.7 232.11875,231.875 210,235.625 L210,275.83125 Z M130,238.25 L130,278.30625 C139.7625,279.25 149.68125,280 160,280 C170.31875,280 180.2375,279.25 190,278.30625 L190,238.25 C180.035759,239.337072 170.023053,239.921146 160,240 C149.976947,239.921146 139.964241,239.337072 130,238.25 L130,238.25 Z" id="Shape" fill="#633220" fill-rule="nonzero"></path>
    </g>
</svg>