<?xml version="1.0" encoding="UTF-8"?>
<svg width="320px" height="320px" viewBox="0 0 320 320" version="1.1" xmlns="http://www.w3.org/2000/svg" xmlns:xlink="http://www.w3.org/1999/xlink">
    <title>navigation-icons/download</title>
    <g id="navigation-icons/download" stroke="none" stroke-width="1" fill="none" fill-rule="evenodd">
        <path d="M310.095476,59.2124805 C290.730733,51.0901716 271.351014,48 251.981279,48 C190.492356,47.9950078 129.008424,79.1213729 67.5195008,79.1213729 C52.0985959,79.1213729 36.6876755,77.1644306 21.2667707,72.2720749 C19.5344774,71.7229329 17.7971919,71.4633385 16.099844,71.4633385 C7.50826833,71.4633385 0,78.1129485 0,87.3435257 L0,245.726053 C0,252.031201 3.60936037,258.006864 9.40530421,260.433073 C28.7700468,268.560374 48.149766,271.650546 67.5195008,271.650546 C129.008424,271.650546 190.497348,240.524181 251.986271,240.524181 C267.407176,240.524181 282.818097,242.481123 298.239002,247.373479 C299.971295,247.922621 301.70858,248.182215 303.405928,248.182215 C311.997504,248.182215 319.505772,241.532605 319.505772,232.302028 L319.505772,73.924493 C319.50078,67.6143526 315.89142,61.6436817 310.095476,59.2124805 Z M159.75039,207.75039 C137.68986,207.75039 119.812793,186.288924 119.812793,159.825273 C119.812793,133.35663 137.694852,111.900156 159.75039,111.900156 C181.805928,111.900156 199.687988,133.35663 199.687988,159.825273 C199.687988,186.298908 181.800936,207.75039 159.75039,207.75039 Z" id="Shape" fill="#633220" fill-rule="nonzero"></path>
    </g>
</svg>